<svg xmlns="http://www.w3.org/2000/svg" viewBox="0 0 35.262 40.715"><defs><style>.a{fill:#64cbc7;}</style></defs><g transform="translate(0 0)"><g transform="translate(0 0)"><path class="a" d="M67.542,1.9A9.455,9.455,0,0,0,60.1.1a13.132,13.132,0,0,0-6.935,3.564,1.2,1.2,0,0,0-1.008-.548H46.393a1.2,1.2,0,0,0-1.2,1.2V8.691a1.2,1.2,0,0,0,1.2,1.2h1.682v1.46H46.616a1.2,1.2,0,0,0-1.2,1.2v1.4a14.99,14.99,0,0,0-5.072,26.525,1.2,1.2,0,0,0,.717.237H57.494a1.2,1.2,0,0,0,.717-.237A14.993,14.993,0,0,0,53.14,13.953v-1.4a1.2,1.2,0,0,0-1.2-1.2H50.479V9.893h1.682a1.2,1.2,0,0,0,1.008-.548A13.132,13.132,0,0,0,60.1,12.909a13.21,13.21,0,0,0,1.642.1,8.7,8.7,0,0,0,5.8-1.9,5.959,5.959,0,0,0,2.006-4.61A5.959,5.959,0,0,0,67.542,1.9ZM50.735,13.757v1.152a1.2,1.2,0,0,0,.972,1.18A12.6,12.6,0,0,1,61.863,28.44a12.476,12.476,0,0,1-4.777,9.871H41.467a12.476,12.476,0,0,1-4.777-9.871A12.6,12.6,0,0,1,46.847,16.089a1.2,1.2,0,0,0,.972-1.18V13.757h2.916Zm.224-6.269H47.6V5.525h3.364ZM65.951,9.313a7.11,7.11,0,0,1-5.548,1.21c-3-.376-5.545-2.787-6.667-4.018C54.854,5.274,57.387,2.868,60.4,2.49A7.11,7.11,0,0,1,65.951,3.7a3.573,3.573,0,0,1,1.193,2.807A3.573,3.573,0,0,1,65.951,9.313Z" transform="translate(-34.286 0)"/></g></g><g transform="translate(6.902 20.746)"><g transform="translate(0)"><path class="a" d="M132.23,260.878a4.862,4.862,0,0,0-3.067,1.108,4.861,4.861,0,0,0-3.067-1.108,5.183,5.183,0,0,0-5.022,5.32,5.589,5.589,0,0,0,.576,2.476,19.243,19.243,0,0,0,6.913,7.544,1.2,1.2,0,0,0,1.2,0,19.238,19.238,0,0,0,6.912-7.542,5.591,5.591,0,0,0,.577-2.478A5.183,5.183,0,0,0,132.23,260.878Zm2.291,6.73a17.1,17.1,0,0,1-5.36,6.133,17.005,17.005,0,0,1-5.357-6.135,3.175,3.175,0,0,1-.325-1.407,2.782,2.782,0,0,1,2.618-2.915,2.52,2.52,0,0,1,2.077,1.143,1.2,1.2,0,0,0,1.979,0,2.52,2.52,0,0,1,2.077-1.143,2.782,2.782,0,0,1,2.618,2.915A3.177,3.177,0,0,1,134.521,267.608Z" transform="translate(-121.074 -260.878)"/></g></g></svg>