<svg xmlns="http://www.w3.org/2000/svg" viewBox="0 0 22.007 21.095"><defs><style>.a{fill:#fff;}</style></defs><g transform="translate(0 -1.011)"><g transform="translate(0 1.011)"><path class="a" d="M42.034,3.282,40.065,1.316a1.044,1.044,0,0,0-1.475,0l-1.575,1.57,3.443,3.437,1.575-1.57A1.039,1.039,0,0,0,42.034,3.282Z" transform="translate(-20.333 -1.011)"/><path class="a" d="M14.336,16.272l3.443,3.438,9.485-9.468L23.821,6.8Z" transform="translate(-7.875 -4.193)"/><path class="a" d="M11.791,29.441l-.735,4.17,4.179-.733Z" transform="translate(-6.073 -16.627)"/><path class="a" d="M15.237,24.247H2.254V11.265h9.162l2.258-2.254H1.458A1.462,1.462,0,0,0,0,10.469V25.044A1.462,1.462,0,0,0,1.458,26.5H16.033a1.461,1.461,0,0,0,1.457-1.457V14.623l-2.254,2.25v7.374Z" transform="translate(0 -5.405)"/></g></g></svg>