<svg xmlns="http://www.w3.org/2000/svg" viewBox="0 0 17.213 18.466"><defs><style>.a{fill:#7a7a7a;}</style></defs><g transform="translate(-17.379)"><g transform="translate(17.379 2.772)"><path class="a" d="M306.566,175.109l-1.445-.053-.313,8.558,1.445.053Z" transform="translate(-294.44 -171.515)"/><rect class="a" width="1.446" height="8.558" transform="translate(7.883 3.568)"/><path class="a" d="M160.178,183.607l-.313-8.558-1.445.053.313,8.558Z" transform="translate(-153.332 -171.508)"/><path class="a" d="M17.379,76.867v1.446h1.507l1.2,13.588a.723.723,0,0,0,.72.66H31.144a.723.723,0,0,0,.72-.66l1.2-13.587h1.532V76.867Zm13.1,14.247H21.464l-1.126-12.8h11.27Z" transform="translate(-17.379 -76.867)"/></g><g transform="translate(22.417)"><path class="a" d="M163.006,0h-4.725a1.207,1.207,0,0,0-1.205,1.205V3.5h1.446V1.446h4.243V3.5h1.446V1.205A1.207,1.207,0,0,0,163.006,0Z" transform="translate(-157.076)"/></g></g></svg>