<svg xmlns="http://www.w3.org/2000/svg" viewBox="0 0 15.963 9.516"><defs><style>.a{opacity:0.5;}</style></defs><g class="a" transform="translate(0 -98.725)"><path d="M7.982,98.725A9.958,9.958,0,0,0,.125,103.1a.632.632,0,0,0,0,.754,9.953,9.953,0,0,0,7.857,4.382,9.958,9.958,0,0,0,7.857-4.379.632.632,0,0,0,0-.754A9.953,9.953,0,0,0,7.982,98.725Zm.219,8.108a3.358,3.358,0,1,1,3.132-3.132A3.36,3.36,0,0,1,8.2,106.833Zm-.1-1.548A1.808,1.808,0,1,1,9.787,103.6,1.8,1.8,0,0,1,8.1,105.285Z" transform="translate(0)"/></g></svg>