<svg xmlns="http://www.w3.org/2000/svg" viewBox="0 0 17.949 19.944"><defs><style>.a{opacity:0.361;}</style></defs><g transform="translate(-23.333)"><g class="a" transform="translate(23.333)"><g transform="translate(0)"><path d="M37.288,1.994h-1V0H34.3V1.994H26.319V0H24.325V1.994h-1a1.985,1.985,0,0,0-1.984,1.994l-.01,13.961a1.994,1.994,0,0,0,1.994,1.994H37.288a1.994,1.994,0,0,0,1.994-1.994V3.989A1.994,1.994,0,0,0,37.288,1.994Zm0,15.955H23.327V6.98H37.288Z" transform="translate(-21.333)"/><path d="M124.507,193.057,123.45,192l-4.866,4.866-2.114-2.114-1.057,1.057,3.171,3.171Z" transform="translate(-111.015 -183.025)"/></g></g></g></svg>