<svg xmlns="http://www.w3.org/2000/svg" viewBox="0 0 31.189 31.19"><defs><style>.a{fill:#2095b4;}</style></defs><path class="a" d="M-14192.4,47.189a15.5,15.5,0,0,1-11.028-4.568A15.5,15.5,0,0,1-14208,31.592a15.49,15.49,0,0,1,4.568-11.026A15.5,15.5,0,0,1-14192.4,16a15.492,15.492,0,0,1,11.026,4.567,15.5,15.5,0,0,1,4.566,11.026,15.5,15.5,0,0,1-4.566,11.029A15.491,15.491,0,0,1-14192.4,47.189Zm-7.4-16.574h0v6.322a1.24,1.24,0,0,0,.37.9,1.235,1.235,0,0,0,.9.374h11.717a1.222,1.222,0,0,0,.9-.374,1.23,1.23,0,0,0,.374-.9V30.615a4.5,4.5,0,0,1-.795.692c-1.676,1.132-3.01,2.055-3.965,2.746-.3.22-.545.4-.738.524a4.656,4.656,0,0,1-.752.382,2.323,2.323,0,0,1-.878.2h-.014a2.315,2.315,0,0,1-.877-.2,4.819,4.819,0,0,1-.753-.382c-.2-.131-.449-.313-.734-.524-.731-.535-2.062-1.458-3.958-2.746a4.167,4.167,0,0,1-.8-.692Zm1.272-3.615a1.15,1.15,0,0,0-.945.414,1.6,1.6,0,0,0-.327,1.034,1.837,1.837,0,0,0,.438,1.088,3.776,3.776,0,0,0,.931.92c.145.1.525.369,1.158.807l.263.182.208.144c.94.653,1.623,1.129,2.086,1.455.05.033.154.108.339.242.153.112.283.2.4.284l.027.019c.13.085.259.168.414.257a2.223,2.223,0,0,0,.456.214,1.217,1.217,0,0,0,.4.075h.014a1.2,1.2,0,0,0,.4-.075,2.277,2.277,0,0,0,.457-.214c.138-.078.273-.162.413-.257l.028-.02.019-.013c.105-.072.236-.162.385-.271l.139-.1.045-.033c.073-.053.124-.089.155-.11l.206-.143c.432-.3,1.638-1.135,3.521-2.445a3.71,3.71,0,0,0,.97-.981,2.115,2.115,0,0,0,.392-1.2,1.218,1.218,0,0,0-.378-.9,1.241,1.241,0,0,0-.9-.374Z" transform="translate(14208.001 -15.999)"/></svg>