<svg xmlns="http://www.w3.org/2000/svg" viewBox="0 0 31.189 31.19"><defs><style>.a{fill:#2095b4;}</style></defs><path class="a" d="M-14192.4,47.189a15.5,15.5,0,0,1-11.028-4.568A15.5,15.5,0,0,1-14208,31.592a15.49,15.49,0,0,1,4.568-11.026A15.5,15.5,0,0,1-14192.4,16a15.492,15.492,0,0,1,11.026,4.567,15.5,15.5,0,0,1,4.566,11.026,15.5,15.5,0,0,1-4.566,11.029A15.491,15.491,0,0,1-14192.4,47.189Zm-.2-23.12a6.208,6.208,0,0,0-6.2,6.2c0,2.226,1.562,5.012,2.872,6.958a37.933,37.933,0,0,0,2.915,3.778.546.546,0,0,0,.414.185.556.556,0,0,0,.417-.185,37.814,37.814,0,0,0,2.979-3.876c1.86-2.785,2.8-5.093,2.8-6.86A6.207,6.207,0,0,0-14192.607,24.069Zm0,9.321a3.123,3.123,0,0,1-3.12-3.12,3.123,3.123,0,0,1,3.12-3.12,3.123,3.123,0,0,1,3.119,3.12A3.123,3.123,0,0,1-14192.607,33.39Z" transform="translate(14208.001 -15.999)"/></svg>