<svg xmlns="http://www.w3.org/2000/svg" viewBox="0 0 31.188 31.188"><defs><style>.a{fill:#2095b4;}</style></defs><g transform="translate(-0.001)"><path class="a" d="M15.6,0A15.594,15.594,0,1,0,31.189,15.594,15.595,15.595,0,0,0,15.6,0ZM23.83,22.753,22.581,24a2.3,2.3,0,0,1-.9.361A14.727,14.727,0,0,1,6.823,9.468a2.324,2.324,0,0,1,.366-.856L8.438,7.363A2.086,2.086,0,0,1,10.387,6.9l.263.088A2.467,2.467,0,0,1,12.076,8.5L12.7,10.8a2.261,2.261,0,0,1-.516,1.974l-.834.834a8.856,8.856,0,0,0,6.227,6.229l.833-.834a2.26,2.26,0,0,1,1.975-.518l2.3.63A2.47,2.47,0,0,1,24.2,20.542l.088.266A2.088,2.088,0,0,1,23.83,22.753Z" transform="translate(0)"/></g></svg>