<svg xmlns="http://www.w3.org/2000/svg" viewBox="0 0 19.739 19.739"><defs><style>.a{fill:#fff;}</style></defs><path class="a" d="M19.566,4.487a.771.771,0,0,0-.6-.285H5l-.057-.526,0-.017A4.219,4.219,0,0,0,.771,0a.771.771,0,0,0,0,1.542,2.672,2.672,0,0,1,2.641,2.31l.917,8.42a2.316,2.316,0,0,0-1.36,2.108c0,.006,0,.013,0,.019s0,.013,0,.019a2.316,2.316,0,0,0,2.313,2.313H5.6a2.275,2.275,0,1,0,4.307,0h3.326a2.275,2.275,0,1,0,2.154-1.542H5.282a.772.772,0,0,1-.771-.771c0-.006,0-.013,0-.019s0-.013,0-.019a.772.772,0,0,1,.771-.771h9.844a3.531,3.531,0,0,0,3.2-2.157.771.771,0,0,0-1.412-.62,2.016,2.016,0,0,1-1.788,1.235H5.858L5.17,5.744H18.02l-.377,1.809a.771.771,0,1,0,1.51.315l.571-2.737A.771.771,0,0,0,19.566,4.487ZM15.383,16.732a.733.733,0,1,1-.733.733A.733.733,0,0,1,15.383,16.732Zm-7.633,0a.733.733,0,1,1-.733.733A.733.733,0,0,1,7.749,16.732Z"/></svg>