<svg xmlns="http://www.w3.org/2000/svg" viewBox="0 0 133.5 35.6"><defs><style>.a{opacity:0.388;}.b,.e{fill:none;}.b{stroke:#fff;}.c{fill:#fff;}.d{stroke:none;}</style></defs><g class="a" transform="translate(-1115 -2865)"><g class="b" transform="translate(1115 2865)"><rect class="d" width="35.6" height="35.6" rx="5"/><rect class="e" x="0.5" y="0.5" width="34.6" height="34.6" rx="4.5"/></g><g class="b" transform="translate(1163.95 2865)"><rect class="d" width="35.6" height="35.6" rx="5"/><rect class="e" x="0.5" y="0.5" width="34.6" height="34.6" rx="4.5"/></g><g class="b" transform="translate(1212.9 2865)"><rect class="d" width="35.6" height="35.6" rx="5"/><rect class="e" x="0.5" y="0.5" width="34.6" height="34.6" rx="4.5"/></g><path class="c" d="M18.25,81.263c-.517-.92-1.078-1.089-2.221-1.153S12.019,80,9.533,80s-5.362.032-6.5.108-1.7.233-2.224,1.154S0,83.763,0,86.548v.01c0,2.773.274,4.367.806,5.276S1.889,92.921,3.029,93s4.012.106,6.5.106,5.356-.039,6.5-.1,1.7-.244,2.221-1.164c.537-.909.809-2.5.809-5.276v-.01C19.06,83.763,18.789,82.181,18.25,81.263Zm-11.1,8.863V82.978L13.1,86.552Z" transform="translate(1220.91 2796.57)"/><path class="c" d="M17.836,59.155a7.307,7.307,0,0,1-2.1.576,3.674,3.674,0,0,0,1.608-2.023,7.376,7.376,0,0,1-2.325.888,3.662,3.662,0,0,0-6.235,3.336A10.387,10.387,0,0,1,1.244,58.11a3.663,3.663,0,0,0,1.132,4.884,3.659,3.659,0,0,1-1.657-.459v.046a3.662,3.662,0,0,0,2.934,3.588,3.706,3.706,0,0,1-.964.128A3.513,3.513,0,0,1,2,66.228a3.661,3.661,0,0,0,3.417,2.541A7.341,7.341,0,0,1,.874,70.332,7.778,7.778,0,0,1,0,70.282a10.342,10.342,0,0,0,5.608,1.646A10.338,10.338,0,0,0,16.019,61.519l-.012-.474A7.306,7.306,0,0,0,17.836,59.155Z" transform="translate(1173.739 2818.555)"/><path class="c" d="M31.029,0,28.8,0a3.918,3.918,0,0,0-4.127,4.234V6.187H22.428a.351.351,0,0,0-.351.351V9.366a.351.351,0,0,0,.351.351h2.243v7.138a.351.351,0,0,0,.351.351h2.927a.351.351,0,0,0,.351-.351V9.717h2.623a.351.351,0,0,0,.351-.351V6.538a.351.351,0,0,0-.351-.351H28.3V4.532c0-.8.19-1.2,1.226-1.2h1.5a.351.351,0,0,0,.351-.351V.354A.351.351,0,0,0,31.029,0Z" transform="translate(1106.273 2873.9)"/></g></svg>