<svg xmlns="http://www.w3.org/2000/svg" viewBox="0 0 133 36.058"><defs><linearGradient id="a" y1="1" x2="1" y2="1" gradientUnits="objectBoundingBox"><stop offset="0" stop-color="#084599"/><stop offset=".721" stop-color="#2095b4"/><stop offset="1" stop-color="#64cbc7"/></linearGradient></defs><path d="M1.612-10.953v-15.234q0-5.129 3.283-7.258a14.3 14.3 0 0 1 7.95-2.129q.616 0 1.257.051l1.257.1a12.612 12.612 0 0 1 5.976 2.513q2.693 2.052 2.693 6.719v15.234A11.549 11.549 0 0 1 21.334-2.9Q18.641.075 12.486.075q-6.258 0-8.566-3.36a13.217 13.217 0 0 1-2.308-7.668zM9.87-26.546v17.388a2.668 2.668 0 0 0 .9 2.18 3.026 3.026 0 0 0 1.975.744h.155A3.185 3.185 0 0 0 14.794-7a2.629 2.629 0 0 0 .872-2.154v-17.392a2.629 2.629 0 0 0-.872-2.154 3.185 3.185 0 0 0-1.9-.769h-.154a3.09 3.09 0 0 0-1.975.718 2.654 2.654 0 0 0-.895 2.205zM27.822-.592v-34.16h9.438q6.719 0 9.489 1.513t2.77 6.335V-8.8a7.749 7.749 0 0 1-2.411 5.976Q44.7-.592 39.055-.592zm8.258-6.052a9.62 9.62 0 0 0 3.667-.59q1.411-.59 1.411-3v-15.593q0-2-1.231-2.59a6.653 6.653 0 0 0-2.667-.641h-1.18zm17.7 6.052v-34.16h8.258v34.16zm10.976-11.9h7.489v.41a.509.509 0 0 0-.051.231v.231a3.462 3.462 0 0 0-.077.41 2.943 2.943 0 0 0-.026.359 5.584 5.584 0 0 0 .923 3.488 2.784 2.784 0 0 0 2.052 1.231h.385a.509.509 0 0 0 .231-.051 3.117 3.117 0 0 0 1.667-1.051 3.335 3.335 0 0 0 .744-2.282 3.64 3.64 0 0 0-1-2.565 13.377 13.377 0 0 0-2.493-2.052q-.718-.513-1.487-.975t-1.539-1.026a21.28 21.28 0 0 1-4.514-3.949 9.356 9.356 0 0 1-2.052-6.36.228.228 0 0 1 .026-.1.357.357 0 0 0 .026-.154.228.228 0 0 1 .026-.1.228.228 0 0 0 .026-.1q0-.256.026-.513t.026-.513a9.454 9.454 0 0 1 3.129-5.514 9.6 9.6 0 0 1 6.822-2.488 11.392 11.392 0 0 1 7.309 2.513q3.154 2.513 3.154 7.95v.718h-7.49v-.975a4.606 4.606 0 0 0-.718-2.77 3.119 3.119 0 0 0-1.59-1.231q-.205-.051-.359-.077a1.869 1.869 0 0 0-.308-.026h-.154a2.514 2.514 0 0 0-1.616.769 2.393 2.393 0 0 0-.744 1.8 3.5 3.5 0 0 0 1.1 2.642 14.256 14.256 0 0 0 2.701 1.965q.616.41 1.308.8t1.411.8a18.445 18.445 0 0 1 4.334 3.565 9.456 9.456 0 0 1 2.129 6.181v.872q0 6.052-3.257 8.284a13.06 13.06 0 0 1-7.571 2.22l-1.077.051A9.18 9.18 0 0 1 66.984-2.8q-2.334-2.667-2.334-7.54 0-.256.026-.513t.026-.513v-.41a1.137 1.137 0 0 0 .051-.359zm24.052 11.9v-34.16h19.029v6.411H97.015v6.565h10.1v7.13h-10.1v7.283h10.823v6.771zm20.927 0l7.848-34.16h9.386l7.642 34.16h-8.361l-1.077-6.771h-6.155l-1.076 6.771zm10-12.977h4.36l-2.1-15.131z" transform="translate(-1.612 35.932)" fill="url(#a)"/></svg>