<svg><defs><font id="HelveticaNeueLTGEO-45Light" horiz-adv-x="185"><font-face font-family="Helvetica Neue LT GEO 45 Light" font-weight="300" panose-1="2 11 4 3 2 2 2 2 2 4" ascent="765" descent="-235" x-height="516" cap-height="714" bbox="-166 -215 1050 967" underline-thickness="50" underline-position="-75" unicode-range="U+000D-U+FEFF"/><glyph glyph-name=".notdef" horiz-adv-x="512" d="M512 0H0v718h512V0zm-50 667H50V50h412v617zm-140-74.5q28-16.5 44.5-46.5t16.5-68q0-36-14-62t-50-59-42-51q-6-19-6-72h-46l-2 19q0 37 5 58t18.5 39.5T290 398q25 26 33.5 41.5T332 474q0 23-10.5 42.5t-28 31T256 559q-33 0-54.5-23T174 464l-50 8q7 68 43 102.5t92 34.5q35 0 63-16.5zM278 184v-67h-56v67h56z"/><glyph glyph-name="NULL" horiz-adv-x="0"/><glyph glyph-name="NULL" horiz-adv-x="0"/><glyph glyph-name="CR" horiz-adv-x="278"/><glyph glyph-name="space" horiz-adv-x="278"/><glyph glyph-name="exclam" unicode="!" horiz-adv-x="241" d="M155 501l-15-323h-38L87 501v213h68V501zm8-501H79v106h84V0z"/><glyph glyph-name="quotedbl" unicode="&quot;" horiz-adv-x="370" d="M150 471H87v243h63V471zm133 0h-63v243h63V471z"/><glyph glyph-name="numbersign" unicode="#" horiz-adv-x="556" d="M260 691l-31-222h141l31 222h50l-31-222h105v-45H414l-22-156h105v-45H386L355 0h-50l31 223H195L164 0h-50l31 223H35v45h116l22 156H63v45h116l31 222h50zm82-423l22 156H223l-22-156h141z"/><glyph glyph-name="dollar" unicode="$" horiz-adv-x="556" d="M296 807v-78q60-1 108-28t75.5-74T508 521v-9h-63q-1 47-18.5 84t-51 58.5T296 676V388q134-28 183-77 48-49 48-126 0-58-29-103t-81.5-70.5T296-15v-85h-39v86q-77 7-126.5 34.5t-74 78T29 228h63q1-85 42.5-133T257 38v296q-79 16-125 41.5t-65.5 64T47 534q0 55 26 98.5t73.5 69.5T257 729v78h39zM123 467.5q13-23.5 45-41t89-29.5v279q-69 0-108-39.5T110 527q0-36 13-59.5zM385 56q38 18 58.5 51t20.5 77q0 36-16.5 62t-53 46-98.5 34V38q51 0 89 18z"/><glyph glyph-name="percent" unicode="%" horiz-adv-x="889" d="M690 725L238-34h-48l453 759h47zm-344-68.5Q387 607 387 517q0-88-40-138.5T228 328q-76 0-117.5 49T69 517t41.5 140T228 706q77 0 118-49.5zm-197.5-244Q175 373 228 373q54 0 80 41t26 102q0 60-25.5 102.5T227 661q-49 0-77-38t-28-107q0-64 26.5-103.5zm636.5-99Q826 264 826 174q0-88-40-138.5T667-15 548 36t-40 138q0 90 41 139.5T667 363t118-49.5zM587 70q26-40 80-40 53 0 79.5 40T773 173q0 58-24.5 101.5T666 318q-50 0-77.5-38T561 173q0-63 26-103z"/><glyph glyph-name="ampersand" unicode="&amp;" horiz-adv-x="611" d="M364 695.5q36-18.5 57-51.5t21-75q0-51-32-95t-108-90l156-188q12 25 16.5 50t4.5 70h63q0-43-11.5-89.5T500 145L620 0h-79l-76 93q-42-53-96.5-80.5T254-15q-62 0-110.5 23.5T67 77 39 185q0 119 175 212l-15 19q-23 28-38 49.5t-25 48-10 55.5q0 43 21.5 76t57.5 51 79 18q44 0 80-18.5zm-156-188q19-33.5 61-82.5 60 37 85 72t25 72q0 42-26.5 67T283 661q-25 0-46.5-10.5t-34.5-31-13-50.5q0-28 19-61.5zM123.5 106Q145 74 181 56t76-18q47 0 89.5 25t79.5 77L248 356q-74-39-110-82.5T102 179q0-41 21.5-73z"/><glyph glyph-name="quotesingle" unicode="'" horiz-adv-x="278" d="M171 471h-63v243h63V471z"/><glyph glyph-name="parenleft" unicode="(" horiz-adv-x="241" d="M146 504.5Q114 382 114 244q0-108 35-225t93-210h-50Q115-64 83 43.5T51 266q0 121 35.5 237.5T192 729h50q-64-102-96-224.5z"/><glyph glyph-name="parenright" unicode=")" horiz-adv-x="241" d="M156.5 500Q190 393 190 272q0-123-36-240T49-191H-1Q63-88 95 34.5T127 294q0 105-34 219T-1 729h50q74-122 107.5-229z"/><glyph glyph-name="asterisk" unicode="*" horiz-adv-x="352" d="M195 714V591l115 41 15-37-118-39 72-98-32-23-73 100-73-100-32 23 73 98-115 39 14 37 115-41v123h39z"/><glyph glyph-name="plus" unicode="+" horiz-adv-x="600" d="M327 503V278h225v-53H327V0h-53v225H49v53h225v225h53z"/><glyph glyph-name="comma" unicode="," horiz-adv-x="278" d="M181-1q0-31-10.5-59.5t-30.5-49T93-137v43q19 6 32.5 32T139-9v9H97v106h84V-1z"/><glyph glyph-name="hyphen" unicode="-" horiz-adv-x="370" d="M310 246H60v58h250v-58z"/><glyph glyph-name="period" unicode="." horiz-adv-x="278" d="M181 0H97v106h84V0z"/><glyph glyph-name="slash" unicode="/" horiz-adv-x="333" d="M346 729L41-15h-54l308 744h51z"/><glyph glyph-name="zero" unicode="0" horiz-adv-x="556" d="M460.5 614.5Q522 523 522 346q0-179-62-270T278-15 96 76 34 345q0 180 62 270.5T278 706q121 0 182.5-91.5zM142.5 116Q188 38 278 38t135.5 77.5T459 346q0 152-45.5 229.5T277 653q-88 0-134-77.5T97 346t45.5-230z"/><glyph glyph-name="one" unicode="1" horiz-adv-x="556" d="M345 0h-63v520H97v45q45 1 73.5 4.5T217 580q33 13 51 41.5t26 78.5h51V0z"/><glyph glyph-name="two" unicode="2" horiz-adv-x="556" d="M388 683.5q49-22.5 77.5-67T494 509q0-73-45-135-23-32-63.5-65.5T274 232q-82-50-120-90.5T108 58h389V0H36q2 60 24.5 106t65 85.5T239 277q58 38 92 64.5t57 52.5q22 25 32.5 52.5T431 510q0 43-20.5 75.5t-56.5 50-80 17.5q-52 0-87.5-24t-53-65.5T116 468v-10H53v10q0 71 26 125t76.5 83.5T277 706q62 0 111-22.5z"/><glyph glyph-name="three" unicode="3" horiz-adv-x="556" d="M377.5 686.5q49.5-19.5 79.5-60t30-98.5-31-99.5-87-55.5v-2q70-12 107-58.5T513 198q0-66-32.5-114t-87-73.5T273-15q-69 0-123.5 25.5t-86 75T32 204l1 19h63v-13q0-52 21.5-90.5t61.5-60T272 38q46 0 86.5 18t66 53 25.5 84q0 46-20.5 79T371 323t-90 18h-52v53h51q38 0 71 14.5t53 43.5 20 69q0 63-41.5 97.5T272 653q-48 0-84-20t-56-59-20-94v-4H49q0 70 29 122t79 80 114 28q57 0 106.5-19.5z"/><glyph glyph-name="four" unicode="4" horiz-adv-x="556" d="M411 700V227h105v-53H411V0h-58v174H30v61l324 465h57zm-58-473v381h-2L87 227h266z"/><glyph glyph-name="five" unicode="5" horiz-adv-x="556" d="M475 633H169l-45-232 2-2q27 31 66.5 48t81.5 17q70 0 123.5-30.5T480 348t29-126q0-65-32-119.5t-87.5-86T266-15q-64 0-116 25.5T67.5 85 36 200h63q1-48 24-84.5t61.5-57T271 38q52 0 92 26t61.5 70 21.5 95-23 92.5-64 65.5-92 24q-47 0-88-21t-68-62H57l68 363h350v-58z"/><glyph glyph-name="six" unicode="6" horiz-adv-x="556" d="M440 659.5Q494 613 505 523h-63q-5 39-24.5 68.5t-51 45.5-70.5 16q-94 0-143-80.5T103 340h2q26 54 76.5 85T292 456q67 0 119.5-29.5T493 344t29-122q0-68-30.5-122T407 15.5 285-15q-87 0-140.5 36.5T65.5 139 40 355q0 81 21.5 160.5t77.5 135T290 706q96 0 150-46.5zm-278-574Q208 38 291 38q48 0 86.5 24t60 65.5T459 218q0 53-20.5 95t-59 66-90.5 24q-53 0-92-24.5t-60-67-21-93.5q0-85 46-132.5z"/><glyph glyph-name="seven" unicode="7" horiz-adv-x="556" d="M501 633Q372 498 299.5 337T218 0h-68q9 122 40.5 225T282 426t156 207H51v58h450v-58z"/><glyph glyph-name="eight" unicode="8" horiz-adv-x="556" d="M379 687q49-19 80-58.5t31-97.5q0-57-30-97.5T376 377v-2q69-14 106-61t37-118q0-66-30.5-113.5T403 10 278-15q-71 0-125.5 25.5T67.5 83 37 194q0 40 15.5 78t47.5 66 79 37v2q-56 18-85 57.5T65 531q0 54 28.5 94t77 60.5T277 706q53 0 102-19zM146.5 462.5Q165 433 198 417t77-16q46 0 80.5 15.5t53 44.5 18.5 70q0 37-18.5 64.5t-52 42.5-79.5 15q-40 0-74-14.5T148.5 596 128 531q0-39 18.5-68.5zM123 110q23-36 63.5-54T278 38q54 0 94.5 18.5t62 54.5 21.5 85q0 44-21 78.5t-61.5 54T277 348q-55 0-95-19t-61-53.5-21-79.5q0-50 23-86z"/><glyph glyph-name="nine" unicode="9" horiz-adv-x="556" d="M413.5 667.5q53.5-38.5 78-119T516 336q0-84-22.5-163t-78-133.5T266-15 117 31 51 168h63q6-40 26-69.5t51-45T260 38q95 0 144 81.5T453 351h-2q-17-36-46.5-62.5t-66-40T265 235q-68 0-120.5 30T63 348 34 469t31 122 85 84.5T271 706q89 0 142.5-38.5zM118 378q21-42 59.5-66t88.5-24q54 0 93.5 24.5t60 67T440 473q0 55-20 95.5T360.5 631 265 653q-48 0-86-24t-60-65-22-91q0-53 21-95z"/><glyph glyph-name="colon" unicode=":" horiz-adv-x="278" d="M181 394H97v106h84V394zm0-394H97v106h84V0z"/><glyph glyph-name="semicolon" unicode=";" horiz-adv-x="278" d="M181 394H97v106h84V394zm0-397q0-29-10.5-57T140-109t-47-28v43q21 8 33.5 33.5T139-7v7H97v106h84V-3z"/><glyph glyph-name="less" unicode="&lt;" horiz-adv-x="600" d="M554 459L108 253 554 47V-8L46 226v54l508 234v-55z"/><glyph glyph-name="equal" unicode="=" horiz-adv-x="600" d="M552 325H49v53h503v-53zm0-197H49v53h503v-53z"/><glyph glyph-name="greater" unicode="&gt;" horiz-adv-x="600" d="M554 280v-54L46-8v55l446 206L46 459v55z"/><glyph glyph-name="question" unicode="?" horiz-adv-x="537" d="M384.5 706q46.5-23 73-65t26.5-97q0-36-10.5-64.5T446 428t-44-49l-54-53q-20-20-28.5-37.5t-11-38.5-4.5-71h-63v20q0 63 21 107 19 39 86 99 73 64 73 136 0 38-19 69t-52 48.5-73 17.5q-48 0-84-21t-56-60.5-20-91.5v-9H54q0 72 27.5 125t79 81.5T281 729q57 0 103.5-23zM315 0h-84v106h84V0z"/><glyph glyph-name="at" unicode="@" horiz-adv-x="800" d="M585.5 690.5Q663 652 708 581t45-163q0-79-34.5-145.5T630 167t-109-39q-27 0-45.5 17.5T454 195h-2q-65-66-127-66-39 0-69 19t-46.5 52-16.5 74q0 70 30 137t84.5 109.5T430 563q37 0 63.5-21.5T536 479l25 65h53l-92-276q-15-43-15-67 0-28 24-28 42 0 81.5 38t63.5 96 24 114q0 79-37.5 138.5t-102 92T416 684q-92 0-164-44T140 520.5 100 353q0-90 41.5-164T256 72.5 418 30q49 0 98 16.5T606.5 93t69.5 70h51q-30-53-78.5-93.5T540 7 418-15q-105 0-189.5 49t-133 134.5T47 360q0 100 48 184.5T227 679t187 50q94 0 171.5-38.5zM279 209q23-27 60-27 44 0 82 39.5t61 95.5 23 100q0 23-11.5 44.5t-29.5 35-38 13.5q-48 0-87-37t-61-91.5T256 279q0-43 23-70z"/><glyph glyph-name="A" unicode="A" horiz-adv-x="630" d="M637 0h-73l-87 222H152L66 0H-7l288 714h76zM454 280L316 646 173 280h281z"/><glyph glyph-name="B" unicode="B" horiz-adv-x="667" d="M541.5 671Q603 628 603 540q0-37-15-70.5T545 412t-66-33v-2q46-6 80-29.5t52.5-61T630 203q0-99-65.5-151T375 0H72v714h302q106 0 167.5-43zM460 416q36 15 55.5 42.5T535 522q0 134-162 134H140V401h235q49 0 85 15zm102-211q0 68-48.5 103T374 343H140V58h235q187 0 187 147z"/><glyph glyph-name="C" unicode="C" horiz-adv-x="704" d="M508.5 701Q571 673 612 620.5T662 498h-68q-12 53-43.5 92.5t-77 60T375 671q-89 0-149.5-44t-90-115.5T106 357q0-81 28.5-152.5t89-116.5T375 43q61 0 110.5 29t80.5 81 38 119h68q-9-89-48.5-153.5T520 19.5 375-15q-107 0-183 50T77 170 38 357q0 100 38 185t114 136 185 51q71 0 133.5-28z"/><glyph glyph-name="D" unicode="D" horiz-adv-x="685" d="M559 627.5Q647 541 647 357 647 0 306 0H72v714h235q164 0 252-86.5zM449.5 87q64.5 29 97 94.5T579 357q0 109-31 174.5t-96 95T282 656H140V58h144q101 0 165.5 29z"/><glyph glyph-name="E" unicode="E" horiz-adv-x="593" d="M565 656H140V398h398v-58H140V58h430V0H72v714h493v-58z"/><glyph glyph-name="F" unicode="F" horiz-adv-x="537" d="M525 656H140V398h342v-58H140V0H72v714h453v-58z"/><glyph glyph-name="G" unicode="G" horiz-adv-x="741" d="M515 701.5q63-27.5 104-81T673 492h-68q-5 45-35.5 86T488 645t-113 26q-90 0-150.5-44.5t-89.5-116T106 357q0-83 29-154.5T224.5 87 375 43q73 0 129 31t87 89 31 136v6H379v58h303V0h-49l-9 130h-2q-33-70-97.5-107.5T375-15q-107 0-183 50T77 169.5 38 357q0 101 38.5 185.5T191 678t184 51q77 0 140-27.5z"/><glyph glyph-name="H" unicode="H" horiz-adv-x="704" d="M140 404h424v310h68V0h-68v346H140V0H72v714h68V404z"/><glyph glyph-name="I" unicode="I" horiz-adv-x="222" d="M145 0H77v714h68V0z"/><glyph glyph-name="J" unicode="J" horiz-adv-x="500" d="M428 197q0-74-20.5-120.5t-66-69T221-15Q120-15 70.5 45T21 227v2h68q0-61 11.5-101t42-62.5T227 43q50 0 78.5 17t41.5 56 13 107v491h68V197z"/><glyph glyph-name="K" unicode="K" horiz-adv-x="648" d="M140 330l415 384h92L328 419 662 0h-88L277 372 140 245V0H72v714h68V330z"/><glyph glyph-name="L" unicode="L" horiz-adv-x="537" d="M140 58h400V0H72v714h68V58z"/><glyph glyph-name="M" unicode="M" horiz-adv-x="833" d="M417 88l246 626h100V0h-68v617h-2L449 0h-64L140 617h-2V0H70v714h100z"/><glyph glyph-name="N" unicode="N" horiz-adv-x="704" d="M563 110h2v604h68V0h-76L141 604h-2V0H71v714h76z"/><glyph glyph-name="O" unicode="O" horiz-adv-x="741" d="M554 678.5q76-50.5 114.5-135T707 357q0-100-38-184.5t-114-136T371-15q-107 0-183.5 50.5t-115 135T34 357q0 101 38.5 186T187 678.5 371 729q107 0 183-50.5zm-423-476Q160 131 220.5 87T371 43q89 0 149 44t89.5 115.5T639 357q0 82-29 153.5t-89.5 116T370 671q-87 0-147-43t-90.5-114T102 357q0-83 29-154.5z"/><glyph glyph-name="P" unicode="P" horiz-adv-x="630" d="M500 690.5q48-23.5 74.5-69.5T601 510q0-66-27.5-112t-75-69T390 306H140V0H72v714h318q62 0 110-23.5zm-9.5-290Q533 437 533 510q0 69-40.5 107.5T373 656H140V364h235q73 0 115.5 36.5z"/><glyph glyph-name="Q" unicode="Q" horiz-adv-x="741" d="M553 679q76-50 115-134.5T707 357q0-89-28.5-162T599 74L701-4l-34-42-111 84q-74-53-185-53-107 0-183.5 50.5t-115 135T34 357q0 103 39.5 188T189 679.5 371 729t182-50zM131 202.5Q160 131 220.5 87T371 43q76 0 132 35l-94 71 35 43 104-79q45 43 68 106t23 138q0 83-29 154.5T520.5 627 370 671q-87 0-147-43t-90.5-114T102 357q0-83 29-154.5z"/><glyph glyph-name="R" unicode="R" horiz-adv-x="667" d="M511.5 693q49.5-21 77-63T616 528q0-72-36.5-120.5T477 346v-2q52-7 79-34t36-62 11-83q2-59 8-102t24-63h-75q-9 14-12.5 42T542 97t-2 34q-3 53-12 88t-27 58q-31 40-93 40H140V0H72v714h325q65 0 114.5-21zM471 391.5q35 16.5 56 48.5t21 74q0 69-40 105.5T395 656H140V375h255q41 0 76 16.5z"/><glyph glyph-name="S" unicode="S" horiz-adv-x="630" d="M440 702.5q60-26.5 94.5-76.5T569 507h-68q-2 52-28.5 89t-70 56-97.5 19q-79 0-128.5-35T127 529q0-49 29.5-73t70.5-34l174-43q102-25 147.5-71T594 189q0-45-21.5-91T490 18.5 321-15q-88 0-152 26.5T70.5 90 36 217v18h68v-6q0-95 60.5-140.5T335 43q44 0 88 16t73.5 48.5T526 188t-36 79-107 49l-163 40q-82 20-121.5 61T59 528q0 46 23.5 92t78.5 77.5T304 729q76 0 136-26.5z"/><glyph glyph-name="T" unicode="T" horiz-adv-x="556" d="M561 656H312V0h-68v656H-5v58h566v-58z"/><glyph glyph-name="U" unicode="U" horiz-adv-x="685" d="M133 271q0-112 50-170t159-58q107 0 158.5 56.5T552 272v442h68V259q0-84-31.5-145.5t-94-95T342-15q-91 0-153 34.5t-93 96T65 259v455h68V271z"/><glyph glyph-name="V" unicode="V" horiz-adv-x="593" d="M298 75h2l230 639h72L337 1l-1-1h-78L-7 714h73z"/><glyph glyph-name="W" unicode="W" horiz-adv-x="907" d="M235 89h2l174 625h85L671 89h2l163 625h68L707 0h-72L454 639h-2L272 0h-74L0 714h73z"/><glyph glyph-name="X" unicode="X" horiz-adv-x="574" d="M285 415l209 299h76L326 366 584 0h-82L285 315 65 0h-77l257 368L3 714h80z"/><glyph glyph-name="Y" unicode="Y" horiz-adv-x="611" d="M306 352l234 362h81L339 294V0h-68v294L-10 714h81z"/><glyph glyph-name="Z" unicode="Z" horiz-adv-x="574" d="M551 654L81 58h480V0H5v60l470 596H37v58h514v-60z"/><glyph glyph-name="bracketleft" unicode="[" horiz-adv-x="241" d="M237 676h-98v-814h98v-53H76v920h161v-53z"/><glyph glyph-name="backslash" unicode="\" horiz-adv-x="333" d="M38 729L346-15h-54L-13 729h51z"/><glyph glyph-name="bracketright" unicode="]" horiz-adv-x="241" d="M165-191H4v53h98v814H4v53h161v-920z"/><glyph glyph-name="asciicircum" unicode="^" horiz-adv-x="600" d="M326 691l230-453h-57L299 628 102 238H44l230 453h52z"/><glyph glyph-name="underscore" unicode="_" horiz-adv-x="500" d="M500-125H0v50h500v-50z"/><glyph glyph-name="grave" unicode="`" d="M152 589h-51L-31 730h78z"/><glyph glyph-name="a" unicode="a" horiz-adv-x="519" d="M453 365V91q0-38 37-38 10 0 20 4V4q-20-4-40-4-41 0-58 20t-17 67v3h-2q-26-40-53-63T280.5-5.5 205-15q-52 0-91 17.5T53.5 54 32 136q0 74 51 111 27 19 69.5 31T283 299q45 5 65 10t31 19 11 44q0 56-34 81t-101 25q-64 0-100-30.5T117 358H54q5 85 59 129t151 44q189 0 189-166zm-86.5-98.5Q351 261 323 257l-31-5q-65-8-95-16-47-12-74.5-33T95 140q0-30 16-53.5t42-36T210 38q51 0 92 20.5t64.5 57T390 199v83h-2q-6-10-21.5-15.5z"/><glyph glyph-name="b" unicode="b" horiz-adv-x="574" d="M123 418h2q12 34 38.5 59.5T227 517t78 14q73 0 125-35.5t79-97.5 27-140q0-76-26.5-138T431 21.5 304-15q-62 0-112 29.5T120 98h-2V0H60v714h63V418zm81.5 32q-40.5-28-61-77.5T123 259q0-60 19-110t59.5-80.5T304 38q57 0 95 31.5t56 81.5 18 107q0 58-18.5 108T398 447t-95 31q-58 0-98.5-28z"/><glyph glyph-name="c" unicode="c" horiz-adv-x="519" d="M422 484q54-47 65-130h-63q-13 61-50 92.5T278 478q-57 0-98-31.5T118 365 97 258t21-107.5T180 69t98-31q37 0 70 18.5t54.5 52T428 185h63q-8-62-36.5-107t-74-69T278-15q-75 0-130.5 36.5T63 120 34 258q0 78 30 140t85.5 97.5T278 531q90 0 144-47z"/><glyph glyph-name="d" unicode="d" horiz-adv-x="574" d="M514 0h-58v98h-2q-14-34-43.5-60T344-1.5 270-15q-74 0-126.5 35.5t-79 97.5T38 258q0 76 26 138t78.5 98.5T270 531q39 0 75.5-13.5t64-39T449 418h2v296h63V0zM119.5 149Q138 99 176 68.5T270 38q60 0 100.5 29.5T431 147t20 111q0 60-19 109.5t-59.5 80T270 478q-57 0-95-31t-56-81-18-108q0-59 18.5-109z"/><glyph glyph-name="e" unicode="e" horiz-adv-x="519" d="M389 496q51-35 78-97.5T494 256v-15H97q1-53 20-99.5t57-75T267 38q63 0 104.5 33.5T429 170h63q-22-94-77.5-139.5T267-15q-76 0-128 34.5T60.5 116 34 258q0 73 25.5 135.5t78 100T267 531q71 0 122-35zm20-111q-20 42-57 67.5T266 478q-45 0-80.5-22.5t-58.5-64T97 294h334q-2 49-22 91z"/><glyph glyph-name="f" unicode="f" horiz-adv-x="259" d="M94 463H6v53h88v50q0 76 28.5 112t97.5 36q26 0 52-4v-54q-27 5-46 5-28 0-43-9.5T162.5 624t-5.5-49v-59h102v-53H157V0H94v463z"/><glyph glyph-name="g" unicode="g" horiz-adv-x="556" d="M335.5 517.5q32.5-13.5 57.5-37t38-53.5h2v89h63V40q0-123-56-184.5T268-206q-58 0-105.5 18t-77 53.5T53-50h63q8-49 48-76t103-27q86 0 126 49t40 144v72h-2q-22-50-66-78T267 6q-76 0-128.5 32.5t-78.5 92T34 271q0 74 28.5 133.5t81.5 93T267 531q36 0 68.5-13.5zM116 162.5q19-46.5 57.5-75T267 59q50 0 87.5 27.5t58 74.5T433 264t-17.5 104.5-55.5 79-94 30.5q-52 0-90.5-27.5t-58.5-76T97 264q0-55 19-101.5z"/><glyph glyph-name="h" unicode="h" horiz-adv-x="537" d="M122 427h2q12 31 37 54.5t58.5 36.5 70.5 13q98 0 143-48t45-149V0h-63v324q0 77-32.5 115.5T284 478q-54 0-90.5-26.5t-54-68T122 296V0H59v714h63V427z"/><glyph glyph-name="i" unicode="i" d="M124 613H61v101h63V613zm0-613H61v516h63V0z"/><glyph glyph-name="j" unicode="j" d="M124 613H61v101h63V613zm0-663q0-71-27-106t-83-35l-44 2v52q9-1 30-1 22 0 35 6.5T54.5-109 61-64v580h63V-50z"/><glyph glyph-name="k" unicode="k" horiz-adv-x="500" d="M123 266l286 250h84L273 325 508 0h-79L225 281l-102-85V0H60v714h63V266z"/><glyph glyph-name="l" unicode="l" d="M124 0H61v714h63V0z"/><glyph glyph-name="m" unicode="m" horiz-adv-x="833" d="M384.5 504.5Q425 478 438 430q22 49 66 75t99 26q85 0 127.5-45.5T773 352V0h-63v348q0 68-29.5 99T588 478q-71 0-105.5-49T448 291V0h-63v349q0 63-27 96t-81 33q-77 0-115.5-51.5T123 288V0H60v516h58v-87h3q53 102 169 102 54 0 94.5-26.5z"/><glyph glyph-name="n" unicode="n" horiz-adv-x="537" d="M433 483q45-48 45-148V0h-63v323q0 77-32 116t-99 39q-53 0-89.5-25.5t-54.5-67-18-89.5V0H59v516h63v-89h2q12 31 37 54.5t58.5 36.5 70.5 13q98 0 143-48z"/><glyph glyph-name="o" unicode="o" horiz-adv-x="556" d="M409 494.5q55-36.5 84-99T522 258q0-76-29-138.5T408.5 21 278-15 147.5 21.5 63 120 34 258t29 138 84.5 98.5T278 531q76 0 131-36.5zm-290.5-345Q140 99 181 68.5T278 38q57 0 98 31t62 81.5T459 258q0 56-20.5 106.5t-62 82T277 478q-56 0-96.5-30.5t-62-81T97 258t21.5-108.5z"/><glyph glyph-name="p" unicode="p" horiz-adv-x="574" d="M60 516h58v-98h2q22 54 71.5 83.5T304 531q75 0 127.5-36.5T510 396t26-138q0-80-27.5-142T429 19.5 305-15q-41 0-77.5 13.5t-63.5 39T125 98h-2v-289H60v707zm109-93.5Q123 367 123 258q0-59 19-108.5T201.5 69 304 38q57 0 95 31.5t56 81.5 18 107-18 107-56 81.5-96 31.5q-88 0-134-55.5z"/><glyph glyph-name="q" unicode="q" horiz-adv-x="574" d="M345.5 516.5q37.5-14.5 66.5-40t42-58.5h2v98h58v-707h-63V98h-2q-12-35-39-60.5t-63-39T270-15q-76 0-128 36.5T64 120 38 258q0 75 26 137t78 99 128 37q38 0 75.5-14.5zM119.5 150Q138 100 176 69t94-31q63 0 104 31.5t59 81.5 18 107q0 59-19 109t-59.5 80.5T270 478q-57 0-95-31.5T119 365t-18-107q0-58 18.5-108z"/><glyph glyph-name="r" unicode="r" horiz-adv-x="315" d="M305 460q-54 0-95.5-24.5t-64-67T123 274V0H60v516h58V395h2q23 61 71 94.5T302 523h13v-63h-10z"/><glyph glyph-name="s" unicode="s" horiz-adv-x="481" d="M340 511.5q42-19.5 66-57t26-89.5h-63q-1 53-37.5 83T234 478q-50 0-86-21.5T112 389q0-33 29-54.5t87-34.5l66-15q40-9 73-22.5t58-43.5 25-79q0-53-30.5-88T342 1t-99-16q-96 0-150 45.5T31 167h63q4-61 44.5-95T246 38q35 0 67.5 10.5t53 32.5 20.5 54q0 39-29 61t-93 36l-67 15q-77 18-113 50t-36 89q0 50 28.5 82.5T150 516t93 15q55 0 97-19.5z"/><glyph glyph-name="t" unicode="t" horiz-adv-x="296" d="M160 516h105v-53H160V111q0-35 12.5-49.5T218 47q20 0 47 3V-4q-10 0-23.5-1T209-6q-42 0-66.5 10.5t-35 34.5T97 106v357H7v53h90v155h63V516z"/><glyph glyph-name="u" unicode="u" horiz-adv-x="537" d="M122 193q0-49 11.5-83T175 57t84-19q52 0 87 28.5t52 76T415 246v270h63V0h-58v93h-2q-25-51-72-79.5T240-15q-94 0-137.5 50.5T59 181v335h63V193z"/><glyph glyph-name="v" unicode="v" horiz-adv-x="463" d="M234 63h2l160 453h65L268 0h-67L2 516h70z"/><glyph glyph-name="w" unicode="w" horiz-adv-x="741" d="M207 74h2l126 442h71L532 74h2l132 442h67L567 0h-69L371 434h-2L243 0h-69L8 516h67z"/><glyph glyph-name="x" unicode="x" horiz-adv-x="481" d="M242 320l144 196h79L279 269 480 0h-80L238 217 79 0H1l200 268L16 516h79z"/><glyph glyph-name="y" unicode="y" horiz-adv-x="463" d="M239 76l159 440h63L237-79q-25-63-48-85-15-14-35-20.5t-50-6.5q-36 0-51 5v53q25-5 43-5 21 0 35.5 6.5T156-113q11 15 21 36.5T208 2L2 516h67z"/><glyph glyph-name="z" unicode="z" horiz-adv-x="463" d="M432 471L91 53h355V0H15v51l337 412H38v53h394v-45z"/><glyph glyph-name="braceleft" unicode="{" horiz-adv-x="333" d="M275 676q-10 0-18-3.5T241 661q-12-13-17.5-36.5T218 573V431q0-54-19-96.5T148 270v-2q32-21 51-63.5t19-97.5V-33q0-47 13.5-76t42.5-29h19v-53h-50q-41 0-64.5 33.5T155-66V84q0 158-72 158v53q72 0 72 157v155q0 48 21 85t68 37h49v-53h-18z"/><glyph glyph-name="bar" unicode="|" horiz-adv-x="222" d="M138 786V-214H85V786h53z"/><glyph glyph-name="braceright" unicode="}" horiz-adv-x="333" d="M90 729q44 0 66-35.5t22-86.5V454q0-158 72-158v-53q-72 0-72-157V-67q0-55-23-89.5T90-191H40v53h19q32 0 44 32t12 73v143q0 49 18.5 92t51.5 66v2q-32 22-51 64.5T115 430v144q0 39-12.5 70.5T59 676H40v53h50z"/><glyph glyph-name="asciitilde" unicode="~" horiz-adv-x="600" d="M472 213q-29-20-66-20-21 0-44.5 6.5T300 224q-39 19-63.5 26.5T189 258q-53 0-84-69l-36 36q21 43 52.5 64.5T194 311q26 0 55.5-9.5T318 275q36-16 55.5-22.5T407 246q23 0 43.5 16t44.5 53l36-36q-30-46-59-66z"/><glyph glyph-name="Agrave" unicode="À" horiz-adv-x="630" d="M637 0h-73l-87 222H152L66 0H-7l288 714h76zM454 280L316 646 173 280h281zm-96 499h-51L175 920h78z"/><glyph glyph-name="Aacute" unicode="Á" horiz-adv-x="630" d="M637 0h-73l-87 222H152L66 0H-7l288 714h76zM454 280L316 646 173 280h281zM331 779h-51l105 141h78z"/><glyph glyph-name="Acircumflex" unicode="Â" horiz-adv-x="630" d="M637 0h-73l-87 222H152L66 0H-7l288 714h76zM454 280L316 646 173 280h281zm12 499h-65l-86 102-88-102h-58l114 141h69z"/><glyph glyph-name="Atilde" unicode="Ã" horiz-adv-x="630" d="M637 0h-73l-87 222H152L66 0H-7l288 714h76zM454 280L316 646 173 280h281zm-12 549.5Q419 805 387 805q-17 0-34 5.5T312 828t-37 17.5-26 5.5q-38 0-50-51h-39q3 27 15.5 49t31.5 34.5 42 12.5q18 0 35-5.5t40-16.5q22-11 35.5-16.5T384 852q20 0 32 11.5t20 36.5h38q-9-46-32-70.5z"/><glyph glyph-name="Adieresis" unicode="Ä" horiz-adv-x="630" d="M637 0h-73l-87 222H152L66 0H-7l288 714h76zM454 280L316 646 173 280h281zM261 800h-68v101h68V800zm177 0h-68v101h68V800z"/><glyph glyph-name="Aring" unicode="Å" horiz-adv-x="630" d="M637 0h-73l-87 222H152L66 0H-7l288 714h76zM454 280L316 646 173 280h281zm-81.5 672.5Q397 938 411 913t14-53q0-29-14.5-53.5t-39-39T318 753t-53.5 14.5-39 39T211 860t14.5 53.5 39 39T318 967q30 0 54.5-14.5zM269 811.5q19-19.5 49-19.5t49 19.5 19 48.5-19 48.5-50 19.5q-18 0-33.5-8.5t-24.5-24-9-35.5q0-29 19-48.5z"/><glyph glyph-name="AE" unicode="Æ" horiz-adv-x="907" d="M880 656H513V398h344v-58H513V58h371V0H445v226H186L70 0H-7l374 714h513v-58zM445 284v372h-40L216 284h229z"/><glyph glyph-name="Ccedilla" unicode="Ç" horiz-adv-x="704" d="M508.5 701Q571 673 612 620.5T662 498h-68q-12 53-43.5 92.5t-77 60T375 671q-88 0-148.5-43T136 513.5 106 357q0-84 29.5-155.5t90-115T375 43q61 0 110.5 28.5T566 152t38 120h68q-10-89-49-153.5t-103-99T374-15l-32-39q16 4 35 4t37.5-7 31-22 12.5-38q0-28-16-47.5t-41.5-29T348-203q-53 0-94 21l14 32q12-5 34-9.5t45-4.5q25 0 39 11.5t14 31.5q0 17-12 27.5T356-83q-32 0-50-8l-16 15 50 63q-94 7-162.5 57.5t-104 132T38 357q0 101 38.5 185.5T191 678t184 51q71 0 133.5-28z"/><glyph glyph-name="Eth" unicode="Ð" horiz-adv-x="685" d="M559.5 627Q647 540 647 357 647 0 306 0H72v348H0v45h72v321h232q168 0 255.5-87zM376 348H140V58h144q103 0 167.5 29.5t96 95T579 357q0 104-29.5 169.5t-94 97.5T285 656H140V393h236v-45z"/><glyph glyph-name="Egrave" unicode="È" horiz-adv-x="593" d="M565 656H140V398h398v-58H140V58h430V0H72v714h493v-58zM357 779h-51L174 920h78z"/><glyph glyph-name="Eacute" unicode="É" horiz-adv-x="593" d="M565 656H140V398h398v-58H140V58h430V0H72v714h493v-58zM330 779h-51l105 141h78z"/><glyph glyph-name="Ecircumflex" unicode="Ê" horiz-adv-x="593" d="M565 656H140V398h398v-58H140V58h430V0H72v714h493v-58zM465 779h-65l-86 102-88-102h-58l114 141h69z"/><glyph glyph-name="Edieresis" unicode="Ë" horiz-adv-x="593" d="M565 656H140V398h398v-58H140V58h430V0H72v714h493v-58zM260 800h-68v101h68V800zm177 0h-68v101h68V800z"/><glyph glyph-name="Gbreve" unicode="Ğ" horiz-adv-x="741" d="M515 701.5q63-27.5 104-81T673 492h-68q-5 45-35.5 86T488 645t-113 26q-90 0-150.5-44.5t-89.5-116T106 357q0-83 29-154.5T224.5 87 375 43q73 0 129 31t87 89 31 136v6H379v58h303V0h-49l-9 130h-2q-33-70-97.5-107.5T375-15q-107 0-183 50T77 169.5 38 357q0 101 38.5 185.5T191 678t184 51q77 0 140-27.5zm-228.5 169Q301 852 324 842t50-10q40 0 70 22.5t36 59.5h39q-8-59-46.5-93T374 787q-62 0-99.5 34T232 914h39q1-25 15.5-43.5z"/><glyph glyph-name="Igrave" unicode="Ì" horiz-adv-x="222" d="M145 0H77v714h68V0zm8 779h-51L-30 920h78z"/><glyph glyph-name="Iacute" unicode="Í" horiz-adv-x="222" d="M145 0H77v714h68V0zm-19 779H75l105 141h78z"/><glyph glyph-name="Icircumflex" unicode="Î" horiz-adv-x="222" d="M145 0H77v714h68V0zm116 779h-65l-86 102-88-102h-58L78 920h69z"/><glyph glyph-name="Idieresis" unicode="Ï" horiz-adv-x="222" d="M145 0H77v714h68V0zM56 800h-68v101h68V800zm177 0h-68v101h68V800z"/><glyph glyph-name="Idotaccent" unicode="İ" horiz-adv-x="222" d="M145 0H77v714h68V0zm0 800H77v101h68V800z"/><glyph glyph-name="Lslash" unicode="Ł" horiz-adv-x="537" d="M140 353l243 168v-56L140 298V58h400V0H72v251l-82-57v56l82 56v408h68V353z"/><glyph glyph-name="Ntilde" unicode="Ñ" horiz-adv-x="704" d="M563 110h2v604h68V0h-76L141 604h-2V0H71v714h76zm-76 719.5Q464 805 432 805q-17 0-34 5.5T357 828t-37 17.5-26 5.5q-38 0-50-51h-39q3 27 15.5 49t31.5 34.5 42 12.5q18 0 35-5.5t40-16.5q22-11 35.5-16.5T429 852q20 0 32 11.5t20 36.5h38q-9-46-32-70.5z"/><glyph glyph-name="Ograve" unicode="Ò" horiz-adv-x="741" d="M554 678.5q76-50.5 114.5-135T707 357q0-100-38-184.5t-114-136T371-15q-107 0-183.5 50.5t-115 135T34 357q0 101 38.5 186T187 678.5 371 729q107 0 183-50.5zm-423-476Q160 131 220.5 87T371 43q89 0 149 44t89.5 115.5T639 357q0 82-29 153.5t-89.5 116T370 671q-87 0-147-43t-90.5-114T102 357q0-83 29-154.5zM413 779h-51L230 920h78z"/><glyph glyph-name="Oacute" unicode="Ó" horiz-adv-x="741" d="M554 678.5q76-50.5 114.5-135T707 357q0-100-38-184.5t-114-136T371-15q-107 0-183.5 50.5t-115 135T34 357q0 101 38.5 186T187 678.5 371 729q107 0 183-50.5zm-423-476Q160 131 220.5 87T371 43q89 0 149 44t89.5 115.5T639 357q0 82-29 153.5t-89.5 116T370 671q-87 0-147-43t-90.5-114T102 357q0-83 29-154.5zM386 779h-51l105 141h78z"/><glyph glyph-name="Ocircumflex" unicode="Ô" horiz-adv-x="741" d="M554 678.5q76-50.5 114.5-135T707 357q0-100-38-184.5t-114-136T371-15q-107 0-183.5 50.5t-115 135T34 357q0 101 38.5 186T187 678.5 371 729q107 0 183-50.5zm-423-476Q160 131 220.5 87T371 43q89 0 149 44t89.5 115.5T639 357q0 82-29 153.5t-89.5 116T370 671q-87 0-147-43t-90.5-114T102 357q0-83 29-154.5zM521 779h-65l-86 102-88-102h-58l114 141h69z"/><glyph glyph-name="Otilde" unicode="Õ" horiz-adv-x="741" d="M554 678.5q76-50.5 114.5-135T707 357q0-100-38-184.5t-114-136T371-15q-107 0-183.5 50.5t-115 135T34 357q0 101 38.5 186T187 678.5 371 729q107 0 183-50.5zm-423-476Q160 131 220.5 87T371 43q89 0 149 44t89.5 115.5T639 357q0 82-29 153.5t-89.5 116T370 671q-87 0-147-43t-90.5-114T102 357q0-83 29-154.5zm366 627Q474 805 442 805q-17 0-34 5.5T367 828t-37 17.5-26 5.5q-38 0-50-51h-39q3 27 15.5 49t31.5 34.5 42 12.5q18 0 35-5.5t40-16.5q22-11 35.5-16.5T439 852q20 0 32 11.5t20 36.5h38q-9-46-32-70.5z"/><glyph glyph-name="Odieresis" unicode="Ö" horiz-adv-x="741" d="M554 678.5q76-50.5 114.5-135T707 357q0-100-38-184.5t-114-136T371-15q-107 0-183.5 50.5t-115 135T34 357q0 101 38.5 186T187 678.5 371 729q107 0 183-50.5zm-423-476Q160 131 220.5 87T371 43q89 0 149 44t89.5 115.5T639 357q0 82-29 153.5t-89.5 116T370 671q-87 0-147-43t-90.5-114T102 357q0-83 29-154.5zM316 800h-68v101h68V800zm177 0h-68v101h68V800z"/><glyph glyph-name="Oslash" unicode="Ø" horiz-adv-x="741" d="M601 641l71 78 26-23-73-81q40-48 61-114.5T707 357q0-100-38-184.5t-114-136T371-15q-142 0-231 89L64-12 37 13l79 88q-40 50-61 115.5T34 357q0 101 38.5 186T187 678.5 371 729q141 0 230-88zM117 243.5q15-53.5 43-93.5l398 443q-72 78-188 78-87 0-147.5-43.5T132 513t-30-156q0-60 15-113.5zM265.5 63Q313 43 371 43q88 0 148.5 43t90 114.5T639 357q0 61-15 114.5T580 565L183 122q35-39 82.5-59z"/><glyph glyph-name="OE" unicode="Œ" horiz-adv-x="1074" d="M486 710q50-19 83-55v59h474v-58H637V398h368v-58H637V58h409V0H569v70q-34-40-86.5-62.5T375-15q-103 0-179.5 50.5T78 171 37 357q0 99 40.5 184.5t117 136.5T375 729q61 0 111-19zM136 201.5q31-71.5 92-115T375 43q50 0 83.5 11.5T517 87q30 25 41 45.5t11 49.5v331q0 50-5 62-10 27-40.5 49T453 658.5 375 671q-85 0-146-43t-92.5-115T105 357t31-155.5z"/><glyph glyph-name="Scaron" unicode="Š" horiz-adv-x="630" d="M440 702.5q60-26.5 94.5-76.5T569 507h-68q-2 52-28.5 89t-70 56-97.5 19q-79 0-128.5-35T127 529q0-49 29.5-73t70.5-34l174-43q102-25 147.5-71T594 189q0-45-21.5-91T490 18.5 321-15q-88 0-152 26.5T70.5 90 36 217v18h68v-6q0-95 60.5-140.5T335 43q44 0 88 16t73.5 48.5T526 188t-36 79-107 49l-163 40q-82 20-121.5 61T59 528q0 46 23.5 92t78.5 77.5T304 729q76 0 136-26.5zM317 818l88 102h58L349 779h-69L166 920h65z"/><glyph glyph-name="Scedilla" unicode="Ş" horiz-adv-x="630" d="M441 702.5q60-26.5 94-77T569 507h-68q-2 51-28 88t-70 56.5-97 19.5q-82 0-130.5-35.5T127 529q0-82 99-107l175-43q104-25 148.5-72T594 189q0-45-18.5-83T527 43q-36-30-89-44T324-15l-32-39q16 4 34 4 35 0 58.5-18t23.5-49q0-28-15.5-47.5t-41-29T298-203q-53 0-94 21l14 32q10-5 33-9.5t45-4.5q25 0 39.5 11t14.5 32q0 17-12 27.5T306-83q-32 0-50-8l-16 15 50 62Q168-6 102 53.5T36 218v17h68v-6q0-94 59-140t173-46q44 0 88 16t73 49 29 80q0 92-139 127l-167 41q-83 20-122 62T59 527q0 43 21.5 89t76.5 79.5T305 729q76 0 136-26.5z"/><glyph glyph-name="Thorn" unicode="Þ" horiz-adv-x="630" d="M140 597h247q66 0 114-24.5t74-70.5 26-109q0-65-26.5-111T500 212.5 389 189H140V0H72v714h68V597zm350-313q43 37 43 109 0 69-41 107.5T372 539H140V247h235q72 0 115 37z"/><glyph glyph-name="Ugrave" unicode="Ù" horiz-adv-x="685" d="M133 271q0-112 50-170t159-58q107 0 158.5 56.5T552 272v442h68V259q0-84-31.5-145.5t-94-95T342-15q-91 0-153 34.5t-93 96T65 259v455h68V271zm250 508h-51L200 920h78z"/><glyph glyph-name="Uacute" unicode="Ú" horiz-adv-x="685" d="M133 271q0-112 50-170t159-58q107 0 158.5 56.5T552 272v442h68V259q0-84-31.5-145.5t-94-95T342-15q-91 0-153 34.5t-93 96T65 259v455h68V271zm223 508h-51l105 141h78z"/><glyph glyph-name="Ucircumflex" unicode="Û" horiz-adv-x="685" d="M133 271q0-112 50-170t159-58q107 0 158.5 56.5T552 272v442h68V259q0-84-31.5-145.5t-94-95T342-15q-91 0-153 34.5t-93 96T65 259v455h68V271zm358 508h-65l-86 102-88-102h-58l114 141h69z"/><glyph glyph-name="Udieresis" unicode="Ü" horiz-adv-x="685" d="M133 271q0-112 50-170t159-58q107 0 158.5 56.5T552 272v442h68V259q0-84-31.5-145.5t-94-95T342-15q-91 0-153 34.5t-93 96T65 259v455h68V271zm153 529h-68v101h68V800zm177 0h-68v101h68V800z"/><glyph glyph-name="Yacute" unicode="Ý" horiz-adv-x="611" d="M306 352l234 362h81L339 294V0h-68v294L-10 714h81zm16 427h-51l105 141h78z"/><glyph glyph-name="Ydieresis" unicode="Ÿ" horiz-adv-x="611" d="M306 352l234 362h81L339 294V0h-68v294L-10 714h81zm-54 448h-68v101h68V800zm177 0h-68v101h68V800z"/><glyph glyph-name="Zcaron" unicode="Ž" horiz-adv-x="574" d="M551 654L81 58h480V0H5v60l470 596H37v58h514v-60zM289 818l88 102h58L321 779h-69L138 920h65z"/><glyph glyph-name="agrave" unicode="à" horiz-adv-x="519" d="M453 365V91q0-38 37-38 10 0 20 4V4q-20-4-40-4-41 0-58 20t-17 67v3h-2q-26-40-53-63T280.5-5.5 205-15q-52 0-91 17.5T53.5 54 32 136q0 74 51 111 27 19 69.5 31T283 299q45 5 65 10t31 19 11 44q0 56-34 81t-101 25q-64 0-100-30.5T117 358H54q5 85 59 129t151 44q189 0 189-166zm-86.5-98.5Q351 261 323 257l-31-5q-65-8-95-16-47-12-74.5-33T95 140q0-30 16-53.5t42-36T210 38q51 0 92 20.5t64.5 57T390 199v83h-2q-6-10-21.5-15.5zM300 589h-51L117 730h78z"/><glyph glyph-name="aacute" unicode="á" horiz-adv-x="519" d="M453 365V91q0-38 37-38 10 0 20 4V4q-20-4-40-4-41 0-58 20t-17 67v3h-2q-26-40-53-63T280.5-5.5 205-15q-52 0-91 17.5T53.5 54 32 136q0 74 51 111 27 19 69.5 31T283 299q45 5 65 10t31 19 11 44q0 56-34 81t-101 25q-64 0-100-30.5T117 358H54q5 85 59 129t151 44q189 0 189-166zm-86.5-98.5Q351 261 323 257l-31-5q-65-8-95-16-47-12-74.5-33T95 140q0-30 16-53.5t42-36T210 38q51 0 92 20.5t64.5 57T390 199v83h-2q-6-10-21.5-15.5zM273 589h-51l105 141h78z"/><glyph glyph-name="acircumflex" unicode="â" horiz-adv-x="519" d="M453 365V91q0-38 37-38 10 0 20 4V4q-20-4-40-4-41 0-58 20t-17 67v3h-2q-26-40-53-63T280.5-5.5 205-15q-52 0-91 17.5T53.5 54 32 136q0 74 51 111 27 19 69.5 31T283 299q45 5 65 10t31 19 11 44q0 56-34 81t-101 25q-64 0-100-30.5T117 358H54q5 85 59 129t151 44q189 0 189-166zm-86.5-98.5Q351 261 323 257l-31-5q-65-8-95-16-47-12-74.5-33T95 140q0-30 16-53.5t42-36T210 38q51 0 92 20.5t64.5 57T390 199v83h-2q-6-10-21.5-15.5zM408 589h-65l-86 102-88-102h-58l114 141h69z"/><glyph glyph-name="atilde" unicode="ã" horiz-adv-x="519" d="M453 365V91q0-38 37-38 10 0 20 4V4q-20-4-40-4-41 0-58 20t-17 67v3h-2q-26-40-53-63T280.5-5.5 205-15q-52 0-91 17.5T53.5 54 32 136q0 74 51 111 27 19 69.5 31T283 299q45 5 65 10t31 19 11 44q0 56-34 81t-101 25q-64 0-100-30.5T117 358H54q5 85 59 129t151 44q189 0 189-166zm-86.5-98.5Q351 261 323 257l-31-5q-65-8-95-16-47-12-74.5-33T95 140q0-30 16-53.5t42-36T210 38q51 0 92 20.5t64.5 57T390 199v83h-2q-6-10-21.5-15.5zM117 658q12 22 31 35t43 13q17 0 35-5.5t42-17.5q3-2 15.5-8t23-9.5T326 662q19 0 32 11t20 37h38q-8-45-31-70t-56-25q-18 0-35 5.5T256 637l-17.5 9-25.5 11-22 4q-19 0-31-12t-19-39h-39q3 26 15 48z"/><glyph glyph-name="adieresis" unicode="ä" horiz-adv-x="519" d="M453 365V91q0-38 37-38 10 0 20 4V4q-20-4-40-4-41 0-58 20t-17 67v3h-2q-26-40-53-63T280.5-5.5 205-15q-52 0-91 17.5T53.5 54 32 136q0 74 51 111 27 19 69.5 31T283 299q45 5 65 10t31 19 11 44q0 56-34 81t-101 25q-64 0-100-30.5T117 358H54q5 85 59 129t151 44q189 0 189-166zm-86.5-98.5Q351 261 323 257l-31-5q-65-8-95-16-47-12-74.5-33T95 140q0-30 16-53.5t42-36T210 38q51 0 92 20.5t64.5 57T390 199v83h-2q-6-10-21.5-15.5zM203 610h-68v101h68V610zm177 0h-68v101h68V610z"/><glyph glyph-name="aring" unicode="å" horiz-adv-x="519" d="M453 365V91q0-38 37-38 10 0 20 4V4q-20-4-40-4-41 0-58 20t-17 67v3h-2q-26-40-53-63T280.5-5.5 205-15q-52 0-91 17.5T53.5 54 32 136q0 74 51 111 27 19 69.5 31T283 299q45 5 65 10t31 19 11 44q0 56-34 81t-101 25q-64 0-100-30.5T117 358H54q5 85 59 129t151 44q189 0 189-166zm-86.5-98.5Q351 261 323 257l-31-5q-65-8-95-16-47-12-74.5-33T95 140q0-30 16-53.5t42-36T210 38q51 0 92 20.5t64.5 57T390 199v83h-2q-6-10-21.5-15.5zm-56 506q24.5-14.5 39-39T364 680t-14.5-53.5-39-39T257 573q-30 0-54.5 15T164 627.5 150 680q0 29 14.5 53.5t39 39T257 787t53.5-14.5zM208 631.5q19-19.5 49-19.5 29 0 48.5 19.5T325 680q0 18-8.5 33.5t-24 25T256 748q-18 0-33.5-8.5t-24.5-24-9-35.5q0-29 19-48.5z"/><glyph glyph-name="ae" unicode="æ" horiz-adv-x="870" d="M383.5 503q43.5-28 51.5-79h2q13 34 40.5 58t64.5 36.5 77 12.5q108 0 165-75t57-215H453v-21q0-55 20.5-96T532 60.5 621 38q61 0 99.5 33t53.5 96h63q-20-88-78.5-135T612-15q-70 0-118 33t-71 97h-2q-8-42-42.5-71.5t-81-44T205-15q-51 0-90 17T54 53t-22 83q0 78 54 113 22 15 48.5 24t66.5 15.5T310 302q28 3 44.5 8.5t26 19.5 9.5 41q0 54-32 80.5T255 478q-65 0-100.5-31T117 358H54q4 84 58 128.5T263 531q77 0 120.5-28zM758 384q-20 42-57.5 68T614 478q-47 0-83.5-23t-57-63.5T453 300v-6h325q0 48-20 90zM371.5 268.5Q360 263 335 259l-27-4-25-4q-49-7-63-10-63-12-94-35.5T95 140q0-30 16-53.5t42.5-36T210 38q52 0 93 21t64 57.5 23 81.5v84h-2q-5-8-16.5-13.5z"/><glyph glyph-name="ccedilla" unicode="ç" horiz-adv-x="519" d="M382.5 509.5q44.5-21.5 71-61T487 354h-63q-13 61-50 92.5T278 478q-58 0-99-31.5t-61.5-82T97 258t20.5-106.5 61.5-82T278 38q37 0 70 18.5t54.5 52T428 185h63q-8-61-36-106t-72-69-100-25l-32-39q16 4 34 4 33 0 57.5-17.5T367-117q0-28-15.5-47.5t-41-29T257-203q-53 0-94 21l14 32q10-5 33-9.5t45-4.5q26 0 40 11.5t14 31.5q0 17-12.5 27.5T265-83q-33 0-50-8l-16 15 50 63q-66 6-114.5 43T60 126.5 34 258q0 74 28.5 136.5T146 494t132 37q60 0 104.5-21.5z"/><glyph glyph-name="eth" unicode="ð" horiz-adv-x="556" d="M205.5 726.5q20.5-11.5 38.5-23l38-25.5 114 64 33-32-109-61q96-78 146-177t50-214q0-77-27-138.5t-82-98T271-15q-76 0-129.5 33.5t-80.5 93T34 249q0 71 28.5 129.5t82 93T271 506q47 0 81-10.5t52-29.5h2q-45 87-133 157l-105-59-33 32 100 56q-57 37-93 55l36 35zm-89-585Q136 94 175.5 66T274 38t99 27.5 60 75.5 20 109q0 53-18.5 99T376 424t-101 29q-57 0-97-25t-60.5-71.5T97 248q0-59 19.5-106.5z"/><glyph glyph-name="egrave" unicode="è" horiz-adv-x="519" d="M389 496q51-35 78-97.5T494 256v-15H97q1-53 20-99.5t57-75T267 38q63 0 104.5 33.5T429 170h63q-22-94-77.5-139.5T267-15q-76 0-128 34.5T60.5 116 34 258q0 73 25.5 135.5t78 100T267 531q71 0 122-35zm20-111q-20 42-57 67.5T266 478q-45 0-80.5-22.5t-58.5-64T97 294h334q-2 49-22 91zM309 589h-51L126 730h78z"/><glyph glyph-name="eacute" unicode="é" horiz-adv-x="519" d="M389 496q51-35 78-97.5T494 256v-15H97q1-53 20-99.5t57-75T267 38q63 0 104.5 33.5T429 170h63q-22-94-77.5-139.5T267-15q-76 0-128 34.5T60.5 116 34 258q0 73 25.5 135.5t78 100T267 531q71 0 122-35zm20-111q-20 42-57 67.5T266 478q-45 0-80.5-22.5t-58.5-64T97 294h334q-2 49-22 91zM282 589h-51l105 141h78z"/><glyph glyph-name="ecircumflex" unicode="ê" horiz-adv-x="519" d="M389 496q51-35 78-97.5T494 256v-15H97q1-53 20-99.5t57-75T267 38q63 0 104.5 33.5T429 170h63q-22-94-77.5-139.5T267-15q-76 0-128 34.5T60.5 116 34 258q0 73 25.5 135.5t78 100T267 531q71 0 122-35zm20-111q-20 42-57 67.5T266 478q-45 0-80.5-22.5t-58.5-64T97 294h334q-2 49-22 91zm8 204h-65l-86 102-88-102h-58l114 141h69z"/><glyph glyph-name="edieresis" unicode="ë" horiz-adv-x="519" d="M389 496q51-35 78-97.5T494 256v-15H97q1-53 20-99.5t57-75T267 38q63 0 104.5 33.5T429 170h63q-22-94-77.5-139.5T267-15q-76 0-128 34.5T60.5 116 34 258q0 73 25.5 135.5t78 100T267 531q71 0 122-35zm20-111q-20 42-57 67.5T266 478q-45 0-80.5-22.5t-58.5-64T97 294h334q-2 49-22 91zM212 610h-68v101h68V610zm177 0h-68v101h68V610z"/><glyph glyph-name="gbreve" unicode="ğ" horiz-adv-x="556" d="M335.5 517.5q32.5-13.5 57.5-37t38-53.5h2v89h63V40q0-123-56-184.5T268-206q-58 0-105.5 18t-77 53.5T53-50h63q8-49 48-76t103-27q86 0 126 49t40 144v72h-2q-22-50-66-78T267 6q-76 0-128.5 32.5t-78.5 92T34 271q0 74 28.5 133.5t81.5 93T267 531q36 0 68.5-13.5zM116 162.5q19-46.5 57.5-75T267 59q50 0 87.5 27.5t58 74.5T433 264t-17.5 104.5-55.5 79-94 30.5q-52 0-90.5-27.5t-58.5-76T97 264q0-55 19-101.5zm71.5 518Q202 662 225 652t50-10 49.5 10 38 29 18.5 43h39q-8-59-46.5-93T275 597q-62 0-99.5 34.5T133 724h39q1-25 15.5-43.5z"/><glyph glyph-name="igrave" unicode="ì" d="M124 0H61v516h63V0zm10 589H83L-49 730h78z"/><glyph glyph-name="iacute" unicode="í" d="M124 0H61v516h63V0zm-17 589H56l105 141h78z"/><glyph glyph-name="icircumflex" unicode="î" d="M124 0H61v516h63V0zm118 589h-65L91 691 3 589h-58L59 730h69z"/><glyph glyph-name="idieresis" unicode="ï" d="M124 0H61v516h63V0zM38 610h-68v101h68V610zm177 0h-68v101h68V610z"/><glyph glyph-name="lslash" unicode="ł" d="M124 447l67 55v-55l-67-55V0H61v340l-67-55v55l67 55v319h63V447z"/><glyph glyph-name="ntilde" unicode="ñ" horiz-adv-x="537" d="M433 483q45-48 45-148V0h-63v323q0 77-32 116t-99 39q-53 0-89.5-25.5t-54.5-67-18-89.5V0H59v516h63v-89h2q12 31 37 54.5t58.5 36.5 70.5 13q98 0 143-48zM127 658q12 22 31 35t43 13q17 0 35-5.5t42-17.5q3-2 15.5-8t23-9.5T336 662q19 0 32 11t20 37h38q-8-45-31-70t-56-25q-18 0-35 5.5T266 637l-17.5 9-25.5 11-22 4q-19 0-31-12t-19-39h-39q3 26 15 48z"/><glyph glyph-name="ograve" unicode="ò" horiz-adv-x="556" d="M409 494.5q55-36.5 84-99T522 258q0-76-29-138.5T408.5 21 278-15 147.5 21.5 63 120 34 258t29 138 84.5 98.5T278 531q76 0 131-36.5zm-290.5-345Q140 99 181 68.5T278 38q57 0 98 31t62 81.5T459 258q0 56-20.5 106.5t-62 82T277 478q-56 0-96.5-30.5t-62-81T97 258t21.5-108.5zM321 589h-51L138 730h78z"/><glyph glyph-name="oacute" unicode="ó" horiz-adv-x="556" d="M409 494.5q55-36.5 84-99T522 258q0-76-29-138.5T408.5 21 278-15 147.5 21.5 63 120 34 258t29 138 84.5 98.5T278 531q76 0 131-36.5zm-290.5-345Q140 99 181 68.5T278 38q57 0 98 31t62 81.5T459 258q0 56-20.5 106.5t-62 82T277 478q-56 0-96.5-30.5t-62-81T97 258t21.5-108.5zM294 589h-51l105 141h78z"/><glyph glyph-name="ocircumflex" unicode="ô" horiz-adv-x="556" d="M409 494.5q55-36.5 84-99T522 258q0-76-29-138.5T408.5 21 278-15 147.5 21.5 63 120 34 258t29 138 84.5 98.5T278 531q76 0 131-36.5zm-290.5-345Q140 99 181 68.5T278 38q57 0 98 31t62 81.5T459 258q0 56-20.5 106.5t-62 82T277 478q-56 0-96.5-30.5t-62-81T97 258t21.5-108.5zM429 589h-65l-86 102-88-102h-58l114 141h69z"/><glyph glyph-name="otilde" unicode="õ" horiz-adv-x="556" d="M409 494.5q55-36.5 84-99T522 258q0-76-29-138.5T408.5 21 278-15 147.5 21.5 63 120 34 258t29 138 84.5 98.5T278 531q76 0 131-36.5zm-290.5-345Q140 99 181 68.5T278 38q57 0 98 31t62 81.5T459 258q0 56-20.5 106.5t-62 82T277 478q-56 0-96.5-30.5t-62-81T97 258t21.5-108.5zM138 658q12 22 31 35t43 13q17 0 35-5.5t42-17.5q3-2 15.5-8t23-9.5T347 662q19 0 32 11t20 37h38q-8-45-31-70t-56-25q-18 0-35 5.5T277 637l-17.5 9-25.5 11-22 4q-19 0-31-12t-19-39h-39q3 26 15 48z"/><glyph glyph-name="odieresis" unicode="ö" horiz-adv-x="556" d="M409 494.5q55-36.5 84-99T522 258q0-76-29-138.5T408.5 21 278-15 147.5 21.5 63 120 34 258t29 138 84.5 98.5T278 531q76 0 131-36.5zm-290.5-345Q140 99 181 68.5T278 38q57 0 98 31t62 81.5T459 258q0 56-20.5 106.5t-62 82T277 478q-56 0-96.5-30.5t-62-81T97 258t21.5-108.5zM224 610h-68v101h68V610zm177 0h-68v101h68V610z"/><glyph glyph-name="oslash" unicode="ø" horiz-adv-x="556" d="M373.5 514q43.5-17 74.5-51l52 56 22-20-54-59q27-38 40.5-84.5T522 258q0-75-28.5-137t-84-99T278-15q-105 0-168 68L51-11 29 9l61 67q-27 35-41.5 82T34 258q0 76 29 138t84 98.5T278 531q52 0 95.5-17zM133 123l273 295q-49 60-129 60-56 0-96.5-31t-62-81.5T97 258q0-76 36-135zm73-69.5Q238 38 278 38q58 0 99 32t61.5 82.5T459 258q0 38-9 72t-26 62L151 97q23-28 55-43.5z"/><glyph glyph-name="oe" unicode="œ" horiz-adv-x="889" d="M384 498q47-33 66-94h2q21 58 71.5 92.5T643 531q110 0 165-71.5T863 241H479q1-57 19-103t54.5-73T641 38q121 0 158 128h63q-21-87-80-134T634-15q-45 0-83.5 16.5t-65 46T450 116h-2q-18-63-67-97T263-15q-76 0-127 36t-75.5 97.5T36 258q0 71 24.5 133.5t76.5 101T266 531q71 0 118-33zM117.5 140.5Q136 93 173 65.5T264 38q75 0 113.5 56T416 262q0 216-152 216-56 0-93-30t-54.5-82T99 247q0-59 18.5-106.5zm664 244.5q-18.5 42-55 67.5T639 478q-46 0-82.5-22.5t-57-64T479 294h321q0 49-18.5 91z"/><glyph glyph-name="scaron" unicode="š" horiz-adv-x="481" d="M340 511.5q42-19.5 66-57t26-89.5h-63q-1 53-37.5 83T234 478q-50 0-86-21.5T112 389q0-33 29-54.5t87-34.5l66-15q40-9 73-22.5t58-43.5 25-79q0-53-30.5-88T342 1t-99-16q-96 0-150 45.5T31 167h63q4-61 44.5-95T246 38q35 0 67.5 10.5t53 32.5 20.5 54q0 39-29 61t-93 36l-67 15q-77 18-113 50t-36 89q0 50 28.5 82.5T150 516t93 15q55 0 97-19.5zM247 628l88 102h58L279 589h-69L96 730h65z"/><glyph glyph-name="scedilla" unicode="ş" horiz-adv-x="481" d="M340 511.5q42-19.5 66-56.5t26-90h-63q-1 53-38 83t-97 30q-32 0-59.5-9t-45-29-17.5-51 28-53.5 88-35.5l89-20q58-13 95.5-47t37.5-93q0-49-26.5-83T352 5 252-15l-32-39q18 4 34 4 33 0 57.5-17.5T336-117q0-28-16-47.5t-41.5-29T226-203q-53 0-94 21l14 32q13-5 35-9.5t44-4.5q24 0 38.5 11t14.5 32q0 17-12 27.5T234-83q-32 0-50-8l-16 15 49 62Q133-8 85.5 38T31 167h63q2-40 21-69t53-44.5T246 38q35 0 67 10.5T366 81t21 55q0 37-28 59t-90 36l-67 15q-56 13-89.5 31T64 321.5 49 386q0 49 28 81.5t72 48 94 15.5q55 0 97-19.5z"/><glyph glyph-name="germandbls" unicode="ß" horiz-adv-x="537" d="M360.5 708q44.5-21 70-61t25.5-94q0-37-13.5-68t-39-52.5T343 403v-2q44-3 78-28.5t52.5-66.5 18.5-91q0-69-28-119t-80-77T261-8q-25 0-41 2v55q21-4 47-4 48 0 84.5 18.5t57 54T429 203q0 59-20 95t-64 53-119 17h-6v53q87 0 130 33.5t43 96.5q0 36-17.5 64.5T328 660t-67 16q-74 0-105.5-36.5T124 531V0H61v536q0 57 21.5 100.5t66 68T260 729q56 0 100.5-21z"/><glyph glyph-name="thorn" unicode="þ" horiz-adv-x="574" d="M123 418h2q12 34 38.5 60t63.5 39.5 78 13.5q73 0 125.5-35.5t79-97.5T536 258t-27-140-79-97.5T305-15q-41 0-77.5 13.5t-63.5 39T125 98h-2v-289H60v905h63V418zm79.5 30q-40.5-30-60-80T123 258q0-59 19-108.5T201.5 69 304 38q57 0 95 31.5t56 81.5 18 107-18 107-56 81.5-96 31.5q-60 0-100.5-30z"/><glyph glyph-name="ugrave" unicode="ù" horiz-adv-x="537" d="M122 193q0-49 11.5-83T175 57t84-19q52 0 87 28.5t52 76T415 246v270h63V0h-58v93h-2q-25-51-72-79.5T240-15q-94 0-137.5 50.5T59 181v335h63V193zm188 396h-51L127 730h78z"/><glyph glyph-name="uacute" unicode="ú" horiz-adv-x="537" d="M122 193q0-49 11.5-83T175 57t84-19q52 0 87 28.5t52 76T415 246v270h63V0h-58v93h-2q-25-51-72-79.5T240-15q-94 0-137.5 50.5T59 181v335h63V193zm161 396h-51l105 141h78z"/><glyph glyph-name="ucircumflex" unicode="û" horiz-adv-x="537" d="M122 193q0-49 11.5-83T175 57t84-19q52 0 87 28.5t52 76T415 246v270h63V0h-58v93h-2q-25-51-72-79.5T240-15q-94 0-137.5 50.5T59 181v335h63V193zm296 396h-65l-86 102-88-102h-58l114 141h69z"/><glyph glyph-name="udieresis" unicode="ü" horiz-adv-x="537" d="M122 193q0-49 11.5-83T175 57t84-19q52 0 87 28.5t52 76T415 246v270h63V0h-58v93h-2q-25-51-72-79.5T240-15q-94 0-137.5 50.5T59 181v335h63V193zm91 417h-68v101h68V610zm177 0h-68v101h68V610z"/><glyph glyph-name="yacute" unicode="ý" horiz-adv-x="463" d="M239 76l159 440h63L237-79q-25-63-48-85-15-14-35-20.5t-50-6.5q-36 0-51 5v53q25-5 43-5 21 0 35.5 6.5T156-113q11 15 21 36.5T208 2L2 516h67zm13 513h-51l105 141h78z"/><glyph glyph-name="ydieresis" unicode="ÿ" horiz-adv-x="463" d="M239 76l159 440h63L237-79q-25-63-48-85-15-14-35-20.5t-50-6.5q-36 0-51 5v53q25-5 43-5 21 0 35.5 6.5T156-113q11 15 21 36.5T208 2L2 516h67zm-57 534h-68v101h68V610zm177 0h-68v101h68V610z"/><glyph glyph-name="zcaron" unicode="ž" horiz-adv-x="463" d="M432 471L91 53h355V0H15v51l337 412H38v53h394v-45zM234 628l88 102h58L266 589h-69L83 730h65z"/><glyph glyph-name="fi" unicode="ﬁ" horiz-adv-x="444" d="M94 463H6v53h88v50q0 76 28.5 112t97.5 36q26 0 52-4v-54q-27 5-46 5-28 0-43-9.5T162.5 624t-5.5-49v-59h102v-53H157V0H94v463zm289 150h-63v101h63V613zm0-613h-63v516h63V0z"/><glyph glyph-name="fl" unicode="ﬂ" horiz-adv-x="444" d="M94 463H6v53h88v50q0 76 28.5 112t97.5 36q26 0 52-4v-54q-27 5-46 5-28 0-43-9.5T162.5 624t-5.5-49v-59h102v-53H157V0H94v463zM383 0h-63v714h63V0z"/><glyph glyph-name="grave.cap" d="M152 779h-51L-31 920h78z"/><glyph glyph-name="acute" unicode="´" d="M84 589H33l105 141h78z"/><glyph glyph-name="acute.cap" d="M84 779H33l105 141h78z"/><glyph glyph-name="circumflex" unicode="ˆ" d="M244 589h-65L93 691 5 589h-58L61 730h69z"/><glyph glyph-name="circumflex.cap" d="M244 779h-65L93 881 5 779h-58L61 920h69z"/><glyph glyph-name="caron" unicode="ˇ" d="M91 628l88 102h58L123 589H54L-60 730H5z"/><glyph glyph-name="caron.cap" d="M91 818l88 102h58L123 779H54L-60 920H5z"/><glyph glyph-name="caron.alt" d="M135 573H88l55 141h78z"/><glyph glyph-name="tilde" unicode="˜" d="M-50 658q12 22 31 35t43 13q17 0 35-5.5t42-17.5q3-2 15.5-8t23-9.5T159 662q19 0 32 11t20 37h38q-8-45-31-70t-56-25q-18 0-35 5.5T89 637l-17.5 9L46 657l-22 4q-19 0-31-12t-19-39h-39q3 26 15 48z"/><glyph glyph-name="tilde.cap" d="M217 829.5Q194 805 162 805q-17 0-34 5.5T87 828t-37 17.5-26 5.5q-38 0-50-51h-39q3 27 15.5 49t31.5 34.5T24 896q18 0 35-5.5T99 874q22-11 35.5-16.5T159 852q20 0 32 11.5t20 36.5h38q-9-46-32-70.5z"/><glyph glyph-name="dieresis" unicode="¨" d="M38 610h-68v101h68V610zm177 0h-68v101h68V610z"/><glyph glyph-name="dieresis.cap" d="M38 800h-68v101h68V800zm177 0h-68v101h68V800z"/><glyph glyph-name="macron" unicode="¯" d="M257 638H-72v45h329v-45z"/><glyph glyph-name="macron.cap" d="M257 828H-72v45h329v-45z"/><glyph glyph-name="breve" unicode="˘" d="M3.5 680.5Q18 662 41 652t50-10 49.5 10 38 29 18.5 43h39q-8-59-46.5-93T91 597q-62 0-99.5 34.5T-51 724h39q1-25 15.5-43.5z"/><glyph glyph-name="breve.cap" d="M3.5 870.5Q18 852 41 842t50-10q40 0 70 22.5t36 59.5h39q-8-59-46.5-93T91 787q-62 0-99.5 34T-51 914h39q1-25 15.5-43.5z"/><glyph glyph-name="ring" unicode="˚" d="M146.5 772.5q24.5-14.5 39-39T200 680t-14.5-53.5-39-39T93 573q-30 0-54.5 15T0 627.5-14 680q0 29 14.5 53.5t39 39T93 787t53.5-14.5zM44 631.5Q63 612 93 612q29 0 48.5 19.5T161 680q0 18-8.5 33.5t-24 25T92 748q-18 0-33.5-8.5t-24.5-24-9-35.5q0-29 19-48.5z"/><glyph glyph-name="ring.cap" d="M147.5 952.5Q172 938 186 913t14-53q0-29-14.5-53.5t-39-39T93 753t-53.5 14.5-39 39T-14 860 .5 913.5t39 39T93 967q30 0 54.5-14.5zM44 811.5Q63 792 93 792t49 19.5 19 48.5-19 48.5T92 928q-18 0-33.5-8.5t-24.5-24-9-35.5q0-29 19-48.5z"/><glyph glyph-name="hungarumlaut" unicode="˝" d="M18 589h-51L68 730h76zm156 0h-51l101 141h76z"/><glyph glyph-name="hungarumlaut.cap" d="M18 779h-51L68 920h76zm156 0h-51l101 141h76z"/><glyph glyph-name="dotaccent" unicode="˙" d="M127 610H59v101h68V610z"/><glyph glyph-name="dotaccent.cap" d="M127 800H59v101h68V800z"/><glyph glyph-name="cedilla" unicode="¸" d="M126 0L82-54q16 4 34 4 35 0 58.5-18t23.5-49q0-28-15.5-47.5t-41-29T88-203q-53 0-94 21l14 32q12-5 34.5-9.5T86-164q26 0 40 11.5t14 31.5q0 17-12.5 27.5T97-83q-34 0-51-8L30-76 91 0h35z"/><glyph glyph-name="ogonek" unicode="˛" d="M136.5-48.5Q119-68 113-83.5t-6-33.5q0-22 12.5-34.5T151-164q15 0 29.5 10.5T206-123l29-13q-16-35-39-51t-59-16q-43 0-67 22.5T46-120q0 29 24 57t81 63h38q-35-29-52.5-48.5z"/><glyph glyph-name="ellipsis" unicode="…" horiz-adv-x="1000" d="M209 0h-84v106h84V0zm333 0h-84v106h84V0zm333 0h-84v106h84V0z"/><glyph glyph-name="exclamdown" unicode="¡" horiz-adv-x="241" d="M163 410H79v106h84V410zm-23-72l15-323v-206H87V15l15 323h38z"/><glyph glyph-name="questiondown" unicode="¿" horiz-adv-x="537" d="M307 410h-84v106h84V410zm-10-83q0-36-5-62t-16-47q-10-20-28.5-42T193 121q-42-37-59-71t-17-68q0-39 19.5-69.5t52-48T260-153q50 0 86.5 22T402-70t19 90v9h63q0-73-28-126t-79-81-120-28q-57 0-103 22.5T81-119 54-21q0 39 12 69.5t32.5 55T152 160l19 18q17 16 26.5 26.5T216 229q8 14 12.5 38t5.5 77h63v-17z"/><glyph glyph-name="quoteleft" unicode="‘" horiz-adv-x="278" d="M150.5 639.5Q137 615 137 586v-9h42V471H95v108q0 29 10 57.5t30.5 49.5 48.5 28v-43q-20-7-33.5-31.5z"/><glyph glyph-name="quoteright" unicode="’" horiz-adv-x="278" d="M183 607q0-30-10-58.5t-30-49T94 471v43q20 6 33.5 31.5T141 600v8H99v106h84V607z"/><glyph glyph-name="quotedblleft" unicode="“" horiz-adv-x="370" d="M64 579q0 30 10 58t30 48.5 49 28.5v-43q-23-9-35-34t-12-51v-9h42V471H64v108zm154 0q0 30 10 58t30 48.5 49 28.5v-43q-20-7-33.5-31.5T260 586v-9h42V471h-84v108z"/><glyph glyph-name="quotedblright" unicode="”" horiz-adv-x="370" d="M152 606q0-29-10-57.5T111.5 499 63 471v43q20 5 33.5 30.5T110 602v6H68v106h84V606zm154 0q0-29-10-57.5T265.5 499 217 471v43q20 5 33.5 30.5T264 602v6h-42v106h84V606z"/><glyph glyph-name="quotesinglbase" unicode="‚" horiz-adv-x="278" d="M183-1q0-48-24-86.5T94-137v43q20 6 33.5 31T141-6v6H99v106h84V-1z"/><glyph glyph-name="quotedblbase" unicode="„" horiz-adv-x="370" d="M152-1q0-48-24-86.5T63-137v43q20 6 33.5 31.5T110-7v7H68v106h84V-1zm154 0q0-48-24-86.5T217-137v43q20 6 33.5 31.5T264-7v7h-42v106h84V-1z"/><glyph glyph-name="guilsinglleft" unicode="‹" horiz-adv-x="259" d="M186 364l-94-89 94-89v-67L53 244v62l133 125v-67z"/><glyph glyph-name="guilsinglright" unicode="›" horiz-adv-x="259" d="M206 244L73 119v67l94 89-94 89v67l133-125v-62z"/><glyph glyph-name="endash" unicode="–" horiz-adv-x="500" d="M500 246H0v58h500v-58z"/><glyph glyph-name="emdash" unicode="—" horiz-adv-x="1000" d="M870 246H130v58h740v-58z"/><glyph glyph-name="bullet" unicode="•" horiz-adv-x="500" d="M340.5 511q41.5-24 65-65t23.5-89q0-49-24-90t-65.5-65-89.5-24-89 24-65 65-24 90q0 47 23 88t64 65.5 91 24.5q49 0 90.5-24z"/><glyph glyph-name="periodcentered" unicode="·" horiz-adv-x="278" d="M168 367q14-8 22-22t8-30q0-15-8-28.5T168.5 265t-29.5-8-29.5 8.5T88 288t-8 29 8.5 28.5 22 21.5 28.5 8 29-8z"/><glyph glyph-name="dagger" unicode="†" horiz-adv-x="556" d="M309 493h199v-53H309v-591h-63v591H48v53h198v221h63V493z"/><glyph glyph-name="daggerdbl" unicode="‡" horiz-adv-x="556" d="M309 516h199v-53H309V100h199V47H309v-198h-63V47H48v53h198v363H48v53h198v198h63V516z"/><glyph glyph-name="section" unicode="§" horiz-adv-x="556" d="M372.5 708q41.5-21 63.5-60.5t22-95.5h-63v7q0 31-14.5 58t-41 43-60.5 16q-49 0-80.5-23.5T167 587q0-39 31-71 18-19 47-37.5t85-47.5q59-31 96.5-57t61-61.5T511 230q0-43-28.5-80.5T402 91q50-44 50-109 0-44-24-76.5T365-144t-82-17q-56 0-97.5 20T121-81 98 16h63V9q0-32 15-58.5T217.5-92t59.5-16q29 0 54.5 9.5T373-69t16 50q0 40-33 73-19 19-49 38t-92 51q-59 30-95.5 59T64 263.5 45 337q0 46 30 83t79 57q-50 44-50 109 0 44 24 76.5t63 49.5 82 17q58 0 99.5-21zM139 267.5Q170 232 249 188l34-19 46-25.5 35-21.5q84 35 84 108 0 40-35 77.5T297 387l-65.5 35.5L190 447q-41-17-61.5-43.5T108 340t31-72.5z"/><glyph glyph-name="paragraph" unicode="¶" horiz-adv-x="600" d="M456-177v838H336v-838h-63v505q-56 0-103.5 25T94 422t-28 97q0 62 26 105.5t75.5 66.5T287 714h232v-891h-63z"/><glyph glyph-name="brokenbar" unicode="¦" horiz-adv-x="222" d="M138 661V411H85v250h53zm0-500V-89H85v250h53z"/><glyph glyph-name="copyright" unicode="©" horiz-adv-x="800" d="M588 680q85-49 134.5-134T772 357q0-102-48.5-187.5T590 34.5 400-15q-104 0-189 49.5T77 169 28 357q0 104 49.5 189T212 680t188 49 188-49zM126 197.5Q166 124 237.5 81T400 38q88 0 160 42.5T673 196t41 161q0 89-41.5 162t-114 115T399 676q-88 0-159.5-42.5T127 518 86 357q0-86 40-159.5zM494.5 569q39.5-17 66-51t33.5-83h-51q-10 50-46.5 78T409 541q-50 0-87-23t-57-64.5-20-96.5 20-96.5 57-64.5 88-23 87 28.5 46 77.5h51q-6-47-31.5-81t-65-52-88.5-18q-66 0-115 29t-75.5 81T192 357t26.5 119 76 81T409 586q46 0 85.5-17z"/><glyph glyph-name="registered" unicode="®" horiz-adv-x="800" d="M588 680q85-49 134.5-134T772 357q0-102-48.5-187.5T590 34.5 400-15q-104 0-189 49.5T77 169 28 357q0 104 49.5 189T212 680t188 49 188-49zM126.5 196.5q40.5-73.5 112-116T400 38q89 0 160.5 43T673 197t41 160q0 89-41.5 162T559 634t-160 42-159.5-42.5T127 518 86 357q0-87 40.5-160.5zm408 346.5q35.5-29 35.5-90 0-49-27-79.5T462 333l128-191h-62L407 333h-89V142h-53v430h165q69 0 104.5-29zM456 382q25 4 43 20.5t18 50.5q0 37-25.5 55.5T418 527H318V378h75q38 0 63 4z"/><glyph glyph-name="trademark" unicode="™" horiz-adv-x="990" d="M403 669H269V302h-53v367H82v45h321v-45zm291-289l129 334h85V302h-53v364h-2L707 302h-30L531 666h-2V302h-53v412h85z"/><glyph glyph-name="currency" unicode="¤" horiz-adv-x="556" d="M193.5 579q40.5 15 84.5 15 87 0 154-55l55 55 38-38-54-54q56-70 56-156 0-43-14-82.5T471 190l54-54-38-38-55 55q-32-27-71-41t-83-14q-41 0-80.5 14T123 154L67 98l-38 38 57 57q-55 67-55 153 0 88 54 154l-56 56 38 38 56-56q30 26 70.5 41zM119 249.5q25-43.5 67-68.5t92-25q52 0 94.5 25.5t67 69T464 346t-24.5 95.5-67 69T278 536q-49 0-91-24.5t-67.5-68T94 346q0-53 25-96.5z"/><glyph glyph-name="cent" unicode="¢" horiz-adv-x="556" d="M309 618v-87q55-1 97.5-23t68.5-61.5 32-92.5h-63q-26 120-135 124V38q35 1 65.5 21t50 53 23.5 73h63q-8-60-35-104.5t-70-69T309-15v-101h-39v102q-66 6-115 43.5t-75 97T54 258q0 73 26 132.5t75 96T270 529v89h39zM135.5 155.5Q154 108 189 77t81-38v437q-47-7-81.5-37.5t-53-77.5T117 258q0-55 18.5-102.5z"/><glyph glyph-name="sterling" unicode="£" horiz-adv-x="556" d="M405.5 702q52.5-27 80.5-79t28-125v-6h-63q0 58-20.5 99.5t-58.5 63-90 21.5q-43 0-80.5-17t-61-52.5T117 519q0-25 5.5-45.5T142 428q12-21 20.5-37.5T176 362h160v-32H194q9-14 16.5-43.5T218 233q0-47-28-93.5T108 51l2-2q30 16 53 23t45 7q52 0 101-20 29-11 47.5-16t38.5-5q30 0 61 15t54 41l32-48Q506 14 472-.5T396-15q-26 0-50.5 5T292 5q-32 11-55 16t-45 5-37-3-31-11.5T79-15L43 39q58 48 85 92.5t27 93.5q0 23-7.5 52.5T127 330H46v32h63q-28 45-41.5 84T54 523q0 66 31 112.5t83 70T282 729q71 0 123.5-27z"/><glyph glyph-name="florin" unicode="ƒ" horiz-adv-x="556" d="M490 709l-12-52q-21 4-41 4-38 0-59.5-18.5t-33-49.5-22.5-87l-14-67h113l-9-53H299L229 16q-11-60-25-94.5T169-134q-39-39-110-39-24 0-52 5l9 54q27-6 49-6 38 0 62 31t35 92l73 383H135l9 53h101l11 58q15 79 31.5 123t49.5 69 92 25q26 0 61-5z"/><glyph glyph-name="yen" unicode="¥" horiz-adv-x="556" d="M277 349l201 365h69L336 349h109v-45H314l-6-10v-73h137v-45H308V0h-63v176H110v45h135v73l-6 10H110v45h106L6 714h72z"/><glyph glyph-name="ordfeminine" unicode="ª" horiz-adv-x="311" d="M240 684.5q35-21.5 35-78.5V437q0-12 6.5-19t18.5-7q7 0 13 3v-34q-2 0-10.5-1.5T286 377q-26 0-37 11.5T238 430v3h-2q-41-65-123-65-56 0-87 24.5T-5 464q0 36 17.5 57t49 31 80.5 14q39 3 55 6t23.5 9 7.5 19q0 67-87 67-40 0-63-18.5T54 597H7q3 54 38.5 81.5T147 706q58 0 93-21.5zm-35-147q-18-4.5-54-9.5l-41-6q-37-7-52.5-20T42 466q0-17 10.5-30.5t26.5-21 32-7.5q31 0 58 11.5t43 33 16 50.5v47h-2q-3-7-21-11.5z"/><glyph glyph-name="ordmasculine" unicode="º" horiz-adv-x="334" d="M254.5 684q38.5-22 57.5-60.5t19-86.5-19-86.5-57-60.5-93-22q-50 0-86 22.5T21.5 451 3 537t18.5 86T76 683.5t86 22.5q54 0 92.5-22zm-191-210q13.5-30 40-48.5T167 407t63.5 18.5 40 48.5 13.5 63q0 32-13 62t-40 49-65 19q-36 0-62.5-18.5t-40-48.5T50 537t13.5-63z"/><glyph glyph-name="onesuperior" unicode="¹" horiz-adv-x="370" d="M230 397h-47v312H67v35l34 2q35 2 51.5 7.5t25 20.5 13.5 46h39V397z"/><glyph glyph-name="twosuperior" unicode="²" horiz-adv-x="370" d="M289.5 796.5Q324 764 324 704q0-44-22-76.5T235 566l-55-35q-41-26-61.5-48.5T93 436h230v-39H39q1 28 7.5 50T67 489q13 18 33.5 36t55.5 40l53 34q34 22 51 47.5t17 61.5q0 38-23.5 59.5T191 789q-46 0-71-30.5T95 676H48q0 74 37.5 113.5T191 829q64 0 98.5-32.5z"/><glyph glyph-name="threesuperior" unicode="³" horiz-adv-x="370" d="M282.5 800q35.5-29 35.5-82 0-34-19.5-59T241 623q44-6 69-33t25-70q0-42-20-71.5t-54.5-45T184 388q-70 0-109.5 35T35 520l1 15h47v-4q0-50 27.5-77t72.5-27q29 0 53 10.5t38 31 14 48.5q0 39-29 61.5T177 601h-24v39h25q23 0 44.5 8t35 25 13.5 41q0 37-22 56.5T188 790q-46 0-70.5-28T93 687H46q0 44 18 76t50.5 49 75.5 17q57 0 92.5-29z"/><glyph glyph-name="fraction" unicode="⁄" horiz-adv-x="167" d="M334 725L-118-34h-48l453 759h47z"/><glyph glyph-name="onehalf" unicode="½" horiz-adv-x="834" d="M216 274h-47v312H53v35l34 2q35 2 51.5 7.5t25 20.5 13.5 46h39V274zm417 451L181-34h-48l453 759h47zm107.5-325.5Q775 367 775 307q0-44-22-76.5T686 169l-55-35q-41-26-61.5-48.5T544 39h230V0H490q1 28 7.5 50T518 92q13 18 33.5 36t55.5 40l53 34q34 22 51 47.5t17 61.5q0 38-23.5 59.5T642 392q-46 0-71-30.5T546 279h-47q0 74 37.5 113.5T642 432q64 0 98.5-32.5z"/><glyph glyph-name="onequarter" unicode="¼" horiz-adv-x="834" d="M633 725L181-34h-48l453 759h47zM216 274h-47v312H53v35l34 2q35 2 51.5 7.5t25 20.5 13.5 46h39V274zm473 149V139h68v-39h-68V0h-47v100H432v39l213 284h44zm-47-284v217L478 139h164z"/><glyph glyph-name="threequarters" unicode="¾" horiz-adv-x="834" d="M708 725L256-34h-48l453 759h47zm-388.5-48q35.5-29 35.5-82 0-34-19.5-59T278 500q44-6 69-33t25-70q0-42-20-71.5t-54.5-45T221 265q-70 0-109.5 35T72 397l1 15h47v-4q0-50 27.5-77t72.5-27q29 0 53 10.5t38 31 14 48.5q0 39-29 61.5T214 478h-24v39h25q23 0 44.5 8t35 25 13.5 41q0 37-22 56.5T225 667q-46 0-70.5-28T130 564H83q0 44 18 76t50.5 49 75.5 17q57 0 92.5-29zM709 423V139h68v-39h-68V0h-47v100H452v39l213 284h44zm-47-284v217L498 139h164z"/><glyph glyph-name="perthousand" unicode="‰" horiz-adv-x="1111" d="M629 725L177-34h-48l453 759h47zm-304-62.5Q363 619 363 537q0-80-37.5-124.5T214 368q-73 0-111 43.5T65 537q0 78 36.5 123.5T214 706q73 0 111-43.5zM142 443q24-30 72-30 49 0 72.5 32t23.5 92-23.5 92-73.5 32q-95 0-95-124 0-64 24-94zm515.5-163.5Q696 236 696 154T658 28.5 547-15q-74 0-111.5 44T398 154q0 80 37.5 124.5T547 323q72 0 110.5-43.5zm355-.5q37.5-44 37.5-125 0-82-38-125.5T901-15q-75 0-112 45t-37 124q0 81 38 125t111 44q74 0 111.5-44zM547 30q48 0 72 31.5t24 92.5q0 124-97 124-95 0-95-124t96-124zm282 30.5Q853 30 901 30t72 31.5 24 92.5q0 124-97 124-95 0-95-124 0-63 24-93.5z"/><glyph glyph-name="minus" unicode="−" horiz-adv-x="600" d="M552 225H49v53h503v-53z"/><glyph glyph-name="plusminus" unicode="±" horiz-adv-x="600" d="M327 503V323h225v-53H327V90h-53v180H50v53h224v180h53zM552 0H49v53h503V0z"/><glyph glyph-name="multiply" unicode="×" horiz-adv-x="600" d="M300 288l189 189 37-37-189-189L526 62l-37-37-189 188L111 25 74 62l188 189L74 440l37 37z"/><glyph glyph-name="divide" unicode="÷" horiz-adv-x="600" d="M339.5 492.5Q356 476 356 453q0-14-8-27t-20.5-21-26.5-8q-23 0-40 16.5T244 453t16.5 39.5T300 509t39.5-16.5zM552 225H49v53h503v-53zM339.5 89.5Q356 73 356 50q0-14-8-27T327.5 2 301-6q-24 0-40.5 16.5T244 50q0 24 16.5 40t39.5 16 39.5-16.5z"/><glyph glyph-name="notequal" unicode="≠" horiz-adv-x="600" d="M477 503l-72-125h147v-53H374l-83-144h261v-53H260L170-28 124-3l75 131H49v53h181l83 144H49v53h295l87 150z"/><glyph glyph-name="approxequal" unicode="≈" horiz-adv-x="600" d="M524 324q-33-35-88-35-27 0-59.5 8.5T294 325q-49 19-78.5 27t-52.5 8q-30 0-50-20t-27-55H35q8 60 42 94t87 34q26 0 58.5-8t83.5-28q50-19 79-27t53-8q28 0 48.5 20t27.5 55h51q-8-58-41-93zm-2.5-199Q487 92 436 92q-26 0-59 8.5T289 130q-52 20-79.5 26.5T162 163q-28 0-48.5-20T86 88H35q8 58 41 93t88 35q26 0 58-8t87-29q51-20 79.5-27t48.5-7q29 0 49.5 19t27.5 56h51q-9-62-43.5-95z"/><glyph glyph-name="lessequal" unicode="≤" horiz-adv-x="600" d="M108 307l443-166V86L48 280v54l503 194v-55zM551 0H48v53h503V0z"/><glyph glyph-name="greaterequal" unicode="≥" horiz-adv-x="600" d="M552 334v-54L49 86v55l443 166L49 473v55zm0-334H49v53h503V0z"/><glyph glyph-name="logicalnot" unicode="¬" horiz-adv-x="600" d="M552 111h-53v214H49v53h503V111z"/><glyph glyph-name="uni0394" unicode="Δ" horiz-adv-x="630" d="M637 0H-7l288 714h76zm-96 58L316 646 88 58h453z"/><glyph glyph-name="uni03A9" unicode="Ω" horiz-adv-x="759" d="M555 682q76-47 117.5-124.5T714 392q0-102-43-186.5T543 62v-4h182V0H461v60q94 66 139 146.5T645 392q0 78-32.5 141.5T520 634t-139 37q-81 0-141.5-34.5t-94-97.5T112 393q0-102 46.5-185T300 60V0H34v58h178v4q-82 57-125.5 141.5T43 392q0 96 43 173t120 120.5T381 729t174-47z"/><glyph glyph-name="uni03BC" unicode="μ" horiz-adv-x="537" d="M122 190q0-77 31-114.5T259 38q49 0 84 26.5t53.5 74T415 249v267h63V0h-58v93h-2q-24-51-72-79.5T240-15q-34 0-65 9t-53 26v-211H59v707h63V190z"/><glyph glyph-name="pi" unicode="π" horiz-adv-x="591" d="M564 463h-82V92q0-18 10-28.5T524 53q8 0 15.5 1t11.5 3V4q-19-4-51-4-43 0-62 21.5T419 88v375H161V0H98v463H23v53h541v-53z"/><glyph glyph-name="degree" unicode="°" horiz-adv-x="400" d="M272 686.5q33-19.5 52.5-53T344 562q0-39-19-72t-52-52.5-73-19.5q-39 0-72 18.5T75.5 488 56 562q0 40 19.5 73t52.5 52 72 19 72-19.5zM109 509q14-24 38-38t53-14 53 14.5 38 38.5 14 52-14 52.5-38 38.5-54 14q-28 0-52-14t-38-38-14-53 14-53z"/><glyph glyph-name="infinity" unicode="∞" horiz-adv-x="759" d="M647 389.5q34-20.5 52-56t18-78.5q0-44-18-80t-51-56.5T570 98q-43 0-89 25t-101 84q-42-39-68.5-60T255 112.5 191 99q-48 0-81.5 21T59 176t-17 76q0 44 18 79.5t51 56 76 20.5q45 0 89-25.5T380 294q41 41 65.5 63t56 37.5T569 410q44 0 78-20.5zm-140.5-205Q541 166 573 166q37 0 58 24.5t21 61.5q0 39-21.5 64.5T569 342q-31 0-64-22t-82-69q49-48 83.5-66.5zm-377.5 5q22-23.5 61-23.5 62 0 147 85-47 45-83.5 67.5T187 341q-25 0-43-12.5t-27.5-33T107 252q0-39 22-62.5z"/><glyph glyph-name="partialdiff" unicode="∂" horiz-adv-x="511" d="M363.5 670q56.5-51 81-132.5T469 361q0-172-56.5-272.5T237-12q-61 0-107.5 30.5t-71.5 82T33 213q0 60 25 109t70 77 104 28q46 0 88-19.5t73-56.5l1 45q0 61-17 121t-56 100.5T221 658q-29 0-56-11t-58-36l-42 50q67 60 153 60 89 0 145.5-51zM122 132.5q15-37.5 44.5-61T239 48q52 0 85.5 37t49 91T389 280q-31 41-70 63t-79 22q-41 0-71-21t-46-56.5-16-77.5q0-40 15-77.5z"/><glyph glyph-name="integral" unicode="∫" horiz-adv-x="554" d="M397 771.5q23-14.5 23-41.5 0-17-12-27.5T378 692q-11 0-19 6t-17 18q-6 9-11 14t-9 5q-15 0-23-23t-8-68l1-51q1-16 1-45V6q0-108-29-163.5T167-213q-28 0-48.5 14.5T98-161q0 15 11.5 25.5T135-125q20 0 35-25 6-10 10-13.5t7-3.5q15 0 22 31.5t7 79.5l-1 51v607q0 44 9 82t26 60q32 42 90 42 34 0 57-14.5z"/><glyph glyph-name="radical" unicode="√" horiz-adv-x="504" d="M303-214h-75L66 120 19 98l-28 60 112 52 151-317 184 893h76z"/><glyph glyph-name="summation" unicode="∑" horiz-adv-x="615" d="M577 714H140l301-424-319-432h467v-72H25v64l322 440L39 722v64h538v-72z"/><glyph glyph-name="product" unicode="∏" horiz-adv-x="719" d="M650-214h-78v928H146v-928H68V786h582V-214z"/><glyph glyph-name="uni20BE" unicode="₾" horiz-adv-x="737" d="M369 705q22 0 54-4v99h40V691q70-20 121.5-69t79-119.5T691 349h-66q0 107-40.5 184T463 638V349h-40v299q-28 5-54 5-29 0-49-4V349h-39v289q-83-27-123-104t-40-185q0-81 35-148t99.5-106.5T400 55h208V0H114v53h120v4q-58 21-99 67.5T73 232 52 358q0 74 27 143.5t78.5 120T281 692v108h39v-99q30 4 49 4z"/><glyph glyph-name="Schwa" unicode="Ə" horiz-adv-x="718" d="M185 32Q112 79 73 163.5T34 358v15h583q-1 89-32 156t-89.5 104T356 670q-71 0-125-27.5t-86.5-78T104 448H36q10 81 53 145t112 100 155 36q99 0 173.5-47.5t114.5-132T684 356t-40-193T529.5 32 356-15q-98 0-171 47zm-49 142.5q30-62.5 86.5-97T357 43q76 0 133 34.5t89 97T617 320H104q2-83 32-145.5z"/><glyph glyph-name="dotlessi" unicode="ı" d="M124 0H61v516h63V0z"/><glyph glyph-name="schwa" unicode="ə" horiz-adv-x="519" d="M131 17.5Q79 52 52 114T25 258v15h398q-1 53-19.5 99.5t-56 75T256 476q-66 0-107.5-33.5T90 344H27q22 94 78.5 139.5T256 529q73 0 124.5-35t78-97T485 256q0-73-25.5-135.5T382 20.5 256-17q-73 0-125 34.5zM112.5 129q20.5-42 58-67.5T257 36q43 0 78 22.5t58 64.5 30 97H90q2-49 22.5-91z"/><glyph glyph-name="uni10D0" unicode="ა" horiz-adv-x="501" d="M137 12Q90 39 65.5 84.5T41 186q0 43 18 85h60q-15-39-15-79 0-41 17-76t50-56.5T250 38q45 0 78.5 21.5T379 116t17 74q0 43-12.5 74.5t-32.5 54-51 47.5q-30 24-49.5 43.5t-33 46T204 515h63q2-24 14-44.5t27.5-36T348 400q35-28 58.5-55.5t38-65T459 192q0-54-25-101.5T361.5 14 250-15q-66 0-113 27z"/><glyph glyph-name="uni10D1" unicode="ბ" horiz-adv-x="550" d="M151 19.5Q98 54 70 114T42 250q0 72 25 129.5t74.5 93T262 512v53q0 24-8.5 40.5t-20 25.5-31.5 22q-19 11-31.5 24t-21 34.5T141 765h62q0-29 12.5-47t36.5-33 38-26.5 24.5-32.5 10.5-52v-65q56-11 97.5-47t63.5-91 22-121q0-74-27-134.5T401 20 275-15q-71 0-124 34.5zm216.5 48q38.5 29.5 58 78T445 250q0 57-19.5 105t-58 76.5T275 460q-53 0-91.5-29T125 354t-20-104q0-57 19.5-105.5t58-77.5T275 38t92.5 29.5z"/><glyph glyph-name="uni10D2" unicode="გ" horiz-adv-x="512" d="M140.5-186.5q-51.5 28.5-81 83T30 25q0 67 27 116.5t73 79.5 104 42q54 11 82.5 37.5T345 367q0 29-13 51.5t-35 35-49 12.5q-26 0-48.5-13.5t-36-38T150 357H89q0 49 22 85t58 54.5 77 18.5q45 0 81.5-18.5t57-51T405 372q0-44-25.5-75.5T310 249v-4q50-6 89-35.5t61-77T482 25q0-72-29-126.5t-80.5-84T256-215q-64 0-115.5 28.5zm201 48.5q36.5 24 57 66.5T419 25q0 55-20.5 96.5T341 186t-85 23q-47 0-84.5-23.5t-58-65.5T93 25q0-55 20.5-97.5t58-66T257-162t84.5 24z"/><glyph glyph-name="uni10D3" unicode="დ" horiz-adv-x="811" d="M452-141.5q-27 25.5-71.5 39T280-89H124v48h100v3q-52 15-93 53.5T66 115 42 256q0 79 21 137.5t61 90 94 31.5q57 0 97.5-31.5T368 392h4q23 60 71.5 91.5T556 515q62 0 110.5-33t75.5-90.5T769 263q0-70-26.5-126.5t-76-89T550 15 434 46.5t-75 88T333 263v62q0 40-14 71.5T280.5 445 224 462q-58 0-88.5-55T105 256q0-90 33.5-152.5T226 6t116-46q195-35 202-160h-62q-3 33-30 58.5zM635.5 95q35.5 27 53 71.5T706 263q0 54-18 99.5T635 435t-85 27q-48 0-83-26t-53.5-71.5T395 263q0-53 18-97.5t53-71T551 68q49 0 84.5 27z"/><glyph glyph-name="uni10D4" unicode="ე" horiz-adv-x="520" d="M135.5-188q-48.5 27-74 76T36 2q0 26 6.5 52T59 101h59q-8-21-13.5-47T99 8q0-51 17.5-89t52-59 82.5-21q73 0 112 49.5T402 30v253q0 81-34.5 130T263 462q-44 0-75-17.5T140.5 397 124 331q0-31 6-57H68q-3 8-5 25.5T61 333q0 47 24.5 89t70 67.5T263 515q66 0 111.5-30.5t68-83T465 285V25q0-77-25.5-130.5T366-187t-115-28-115.5 27z"/><glyph glyph-name="uni10D5" unicode="ვ" horiz-adv-x="516" d="M143-187.5q-51 27.5-79 76T36-3q0 46 19 93h61q-8-20-12.5-44T99 3q0-48 20.5-85.5t57-58.5 84.5-21q46 0 82 21t55.5 58.5T418 1q0 50-18.5 85T349 139t-73 18h-47v54h47q37 0 63.5 17t40 44.5T393 332q0 34-16 64t-45.5 48-69.5 18q-43 0-74-17.5t-47.5-48T124 329q0-11 1.5-23t3.5-21H66q-5 18-5 46 0 50 24 92t70 67 107 25q59 0 103-25.5t67.5-67T456 335q0-56-25-94.5T359 186v-4q55-16 88.5-61.5T481 0q0-59-27-108t-77-78-116-29q-67 0-118 27.5z"/><glyph glyph-name="uni10D6" unicode="ზ" horiz-adv-x="597" d="M197.5 18.5Q145 52 117 111.5T89 247q0 115 73 183v3q-43 1-76.5 23t-52 59T15 598q0 47 21.5 85t59 60 84.5 22q46 0 84-21.5t59.5-58.5 21.5-81q0-29-11.5-56T301 503v-3q5 2 17 4t21 2q61 0 110-34t77.5-93T555 247q0-74-27.5-133.5t-80-94T322-15q-72 0-124.5 33.5zm37 475q24.5 15.5 38.5 43t14 61.5q0 31-13 58t-37.5 43.5T179 716q-32 0-56.5-16.5T85 656t-13-58q0-33 13-60.5t37-43.5 57-16q31 0 55.5 15.5zM414.5 67q38.5 29 58 76.5T492 247q0 57-20 104t-58.5 74.5T321 453q-53 0-91-28t-58-75-20-103q0-57 19.5-104.5t58-76T322 38t92.5 29z"/><glyph glyph-name="uni10D7" unicode="თ" horiz-adv-x="838" d="M714.5 122Q733 185 733 256q0 65-15 111.5t-43.5 71T607 463q-34 0-59.5-18t-40-51.5T493 314v-64q0-75-25.5-135T391 20 267-15q-71 0-122 34t-77 94.5T42 250q0 73 26.5 133.5t76.5 96T263 515q65 0 114-30.5t77-95.5h3q17 64 58.5 95t97.5 31q55 0 96.5-31.5t64-90T796 256q0-74-17-136.5T726 0h-66q36 59 54.5 122zm-357-55.5q36.5 28.5 55 77T431 250q0 62-19.5 110T355 435t-88 27q-53 0-89.5-28.5T123 357t-18-107 18.5-107 55-76.5T268 38t89.5 28.5z"/><glyph glyph-name="uni10D8" unicode="ი" horiz-adv-x="515" d="M393.5 120.5Q410 181 410 254q0 60-17.5 107T341 434.5 258 461q-50 0-84-26.5T122.5 361 105 254q0-72 16.5-132.5T170 0h-63Q75 56 58.5 117T42 254q0 80 26.5 139t75.5 90.5T258 515t113.5-31.5 75-90.5T473 254q0-76-16.5-137T408 0h-63q32 60 48.5 120.5z"/><glyph glyph-name="uni10D9" unicode="კ" horiz-adv-x="504" d="M138.5-187q-50.5 28-78 76.5T33-3q0 49 18 93h60q-7-19-11-42.5T96 3q0-48 19.5-85.5T171-141t84-21q46 0 81 21.5T389.5-80 408 8q0 50-18.5 88.5T338 156t-77 21h-55v54h56q37 0 62.5 15.5t38 41T375 343q0 45-22 74t-65 39v52q49-6 83-29.5t50.5-57.5 16.5-73q0-52-23.5-88T347 208v-4q37-10 65-36.5t43.5-67.5T471 7q0-63-26.5-113.5T369-186t-114-29q-66 0-116.5 28z"/><glyph glyph-name="uni10DA" unicode="ლ" horiz-adv-x="946" d="M560.5-133Q523-107 469-95T354-83H140v48h101v3q-54 15-99 53.5t-72 99T43 256q0 122 43 190.5T212 515q48 0 82-28t48-83h4q11 55 45.5 83t82.5 28q101 0 126-111h4q13 55 49 83t83 28q55 0 92.5-32t56-89.5T903 258q0-61-11.5-114T857 44h-65q48 93 48 212 0 99-28 152.5T730 462q-29 0-51-17.5t-34-48-12-69.5V144h-62v183q0 62-25.5 98.5T474 462q-47 0-73-37.5T375 327V144h-62v183q0 40-12 70.5T267.5 445 216 462q-55 0-82.5-54T106 256q0-88 39-149.5t96-94T355-28l29-4q51-6 89-12.5T540-62q122-43 131-138h-65q-8 41-45.5 67z"/><glyph glyph-name="uni10DB" unicode="მ" horiz-adv-x="555" d="M473 111.5q-27-59.5-78-93T274-15q-71 0-123.5 33.5T70 112 42 250q0 79 28 137.5t78.5 90T263 509q122 0 172-97h2v121q0 56-19 96.5t-53 61-80 20.5q-45 0-80-17t-54-46-19-64H69q0 47 27 89t76 67 112 25q66 0 115-28.5t75-80T500 538V249q0-78-27-137.5zm-112.5-47Q397 91 417 139t20 109q0 101-43 154.5T270 456q-50 0-87.5-26T125 357t-20-109q0-60 20.5-108T184 65t90-27q50 0 86.5 26.5z"/><glyph glyph-name="uni10DC" unicode="ნ" horiz-adv-x="555" d="M120 419q22 44 65.5 70T291 515q64 0 114.5-32.5t79-92.5T513 251t-28-139-80.5-93.5T282-15 160.5 18.5t-78.5 93T55 250v323q0 92 46.5 134.5T245 750h215v-53H248q-47 0-75-12t-41.5-39.5T118 571V419h2zM371 65q38 27 58 75t20 109q0 62-20 110.5T372 435t-87 27q-80 0-123.5-55.5T118 249q0-62 20-110t56.5-74.5T281 38q52 0 90 27z"/><glyph glyph-name="uni10DD" unicode="ო" horiz-adv-x="719" d="M595.5 122Q614 185 614 256q0 65-15 111t-42.5 70-65.5 24q-29 0-52.5-18.5t-36.5-50-13-69.5V144h-62v179q0 40-13 71.5t-35.5 49T227 461q-58 0-90-54t-32-151q0-68 18.5-134T176 0h-64Q77 58 59.5 122T42 260q0 78 20.5 135.5T123 484t95 31q51 0 86.5-29t51.5-85h4q17 55 54 84.5t85 29.5q55 0 95-32t61.5-90T677 258q0-75-18-138.5T605 0h-65q37 59 55.5 122z"/><glyph glyph-name="uni10DE" unicode="პ" horiz-adv-x="516" d="M141 12.5Q90 40 61.5 87T33 189q0 41 14 78h61q-12-38-12-71 0-44 20-80t56.5-57T257 38q46 0 81 22t54 60 19 84q0 50-19.5 88T338 351t-76 21h-44v53h52q53 0 79.5 23t26.5 62q0 27-13 47t-33 33-50 27q-108 50-108 133h64q0-32 23.5-53.5T323 655q53-26 84.5-59t31.5-86q0-41-21.5-69.5T350 399v-3q31-9 59-33.5t46.5-65T474 203q0-59-27-109t-76-79.5T257-15 141 12.5z"/><glyph glyph-name="uni10DF" unicode="ჟ" horiz-adv-x="538" d="M153-187.5q-49 27.5-75.5 76T51-1q0 16 3.5 34T63 65h61q-4-12-6.5-31.5T115 2q0-50 18.5-87t52.5-56.5 81-19.5q72 0 112.5 50T420 34v425l-228-35v-3q37-15 58.5-46.5T272 307q0-37-21-67t-57.5-46.5T113 177H42v51h64q50 0 78 22.5t28 64.5q0 26-14 47.5t-36.5 34T113 409v50l306 48h64V31q0-77-26.5-132.5T381-186t-114-29-114 27.5z"/><glyph glyph-name="uni10E0" unicode="რ" horiz-adv-x="718" d="M595 121q18 63 18 135 0 98-32 151t-89 53q-29 0-52.5-18T403 392.5 390 323V144h-63v179q0 40-12.5 71T279 442.5 227 460q-35 0-62-22.5t-43-68T106 256t18.5-134T177 0h-66Q75 59 59 128.5T43 306q0 120 31.5 199.5t92 124.5T319 694l84 17q60 12 72 39h64q-6-40-40-61t-100-34l-77-15q-93-18-148-72.5T98 412h3q17 49 51 75t75 26q50 0 81.5-28t48.5-85h3q18 56 54.5 84.5T500 513q55 0 94.5-31.5t60.5-89T676 258q0-76-16.5-138.5T608 0h-67q36 58 54 121z"/><glyph glyph-name="uni10E1" unicode="ს" horiz-adv-x="538" d="M159 14q-50 29-77 83T55 225v525h63V228q0-56 19-99t54.5-66.5T277 39q49 0 84 21.5t53.5 57.5 18.5 78q0 50-16.5 83.5T369 346q-26 28-41.5 48t-27 46.5T288 500h64q1-30 19-60t49-62q24-26 39.5-50t26-58 10.5-79q0-56-28-103.5t-78-75T277-15q-68 0-118 29z"/><glyph glyph-name="uni10E2" unicode="ტ" horiz-adv-x="644" d="M173.5-170Q110-125 76-43T42 147q0 102 30 180.5T158 453t132 55h6q-4 33-4 102h60q0-69-4-102h6q76-7 132-54t86-126 30-181q0-109-34-191t-97.5-126.5T322-215t-148.5 45zm267 49Q489-82 514-12.5T539 147q0 83-21.5 150T454 406.5 353 457l-8 3q8-76 8-121V144h-61v196q0 55 7 120l-8-2q-59-9-101-51.5t-63.5-110T105 147q0-90 25-159t74-108.5T322-160q70 0 118.5 39z"/><glyph glyph-name="uni10E3" unicode="უ" horiz-adv-x="543" d="M149-188.5Q98-162 70-114T42-3q0 26 6 51.5T63 95h61q-8-19-13.5-45T105 3q0-50 20-87.5t56.5-57.5 85.5-20q47 0 82.5 23T405-74t20 99v308q0 60-24 94.5T329 462q-44 0-67-33t-23-86v-90h-63v89q0 50-25 80.5T78 453H30v56h44q54 0 84-18t45-64h3q31 88 132 88 43 0 77-20t53.5-60.5T488 336V25q0-73-27-127.5T384-186t-117-29-118 26.5z"/><glyph glyph-name="uni10E4" unicode="ფ" horiz-adv-x="786" d="M289-173q-70 42-79 129h65q11-65 64-91.5T468-162q53 0 97 13.5t72 45T665-21q0 34-13.5 62.5T611 87t-66 17h-19v54h31q60 1 92 38.5T681 303q0 76-30.5 118T564 463q-33 0-58-16t-38.5-45-13.5-68v-49q0-68-24.5-119.5t-71-79.5T248 58q-63 0-110 28.5t-71.5 80T42 285q0 68 26 120.5t72 81T243 515q62 0 109.5-29t65.5-85h3q13 57 52 85.5t95 28.5q53 0 93-25.5t61.5-72T744 308q0-70-29-115.5T635 130v-4q49-22 71-60t22-92q0-60-32-102.5T605-193t-139-22q-107 0-177 42zm38 304q33 22 50 62t17 92q0 55-17.5 95t-50 62-77.5 22q-46 0-79.5-23T119 377.5 102 285q0-51 17-90.5t49.5-62.5 79.5-23q46 0 79 22z"/><glyph glyph-name="uni10E5" unicode="ქ" horiz-adv-x="520" d="M439.5-102.5q-25.5-55.5-74-84T249-215q-67 0-115.5 27t-74 76T34 2q0 26 6 52.5T55 101h61q-8-20-13.5-46T97 8q0-51 18-89t52-59.5 82-21.5q49 0 83.5 23t52 65.5T402 27v233q0 58-18.5 104t-53 72-81.5 26q-41 0-70-17.5T135.5 397 121 329q0-14 1.5-29t4.5-26H65q-3 11-5 27t-2 31q0 50 21.5 91.5t63 66.5 98.5 25q56 0 96.5-26.5T400 418h2v332h63V33q0-80-25.5-135.5z"/><glyph glyph-name="uni10E6" unicode="ღ" horiz-adv-x="717" d="M441.5-141q-23.5 25-65 38.5T280-89H124v48h99v4q-54 17-95 57T64.5 120 42 256q0 79 20.5 137.5t60.5 90 95 31.5q51 0 86-27.5t51-83.5h4q17 55 54 83t86 28q55 0 94.5-32t60.5-90 21-135q0-62-11-114.5T630 44h-66q48 96 48 212 0 64-14 110t-41.5 70.5T491 461q-29 0-52-17.5t-36-48-13-68.5V144h-64v183q0 40-12.5 70.5t-35.5 47-53 16.5q-38 0-65-25t-41-71.5T105 256q0-89 34.5-152T228 5.5 342-40q90-16 138-56t51-104h-63q-3 34-26.5 59z"/><glyph glyph-name="uni10E7" unicode="ყ" horiz-adv-x="532" d="M154-195q-49 20-78 61T47-34q0 25 8 47h60q-5-22-5-41 0-63 40.5-98.5T263-162t111.5 46.5T414 12v169h-2q-29-48-70-70.5T241 88q-58 0-103 27t-70.5 79.5T42 320q0 52 17 101.5T98 500h59q-21-37-36.5-84.5T105 318q0-55 18-95t51.5-61 80.5-21q78 0 118.5 54T414 350v150h63V15q0-75-26-126.5T377-189t-114-26q-60 0-109 20z"/><glyph glyph-name="uni10E8" unicode="შ" horiz-adv-x="556" d="M183 742q32-23 44-61h4q16 42 48.5 63t78.5 21q43 0 75-20.5t50-60.5 18-99V246q0-78-27-136t-78-89.5T275-11q-71 0-123.5 31.5t-80.5 90T43 248t28 137 78 88.5T264 504q62 0 104-24t68-70h2v175q0 60-23 93.5T347 712q-28 0-47.5-13t-30-35-10.5-49v-31h-63v32q0 26-11.5 48T151 698.5 100 711q-13 0-28-1.5T46 705v54q13 3 28.5 4.5T104 765q47 0 79-23zM362 67q37 25 56.5 70.5T438 245q0 100-43 153t-124 53q-50 0-87.5-26T126 352.5 106 245q0-60 20-106t58.5-71.5T275 42q50 0 87 25z"/><glyph glyph-name="uni10E9" unicode="ჩ" horiz-adv-x="544" d="M423.5 119.5Q440 177 440 248q0 63-19.5 110T364 431t-86 26q-45 0-81-25.5t-56.5-72T120 250V0H56v575q0 55 20.5 98t59.5 67.5 90 24.5q52 0 91-24.5t60-67.5 21-98h-63q0 59-27.5 97.5T226 711q-53 0-79.5-37T120 575V414h2q54 96 172 96 63 0 110.5-31.5t73.5-91T504 248q0-76-16-133.5T439 0h-64q32 62 48.5 119.5z"/><glyph glyph-name="uni10EA" unicode="ც" horiz-adv-x="570" d="M166-174q-60 41-92 125T42 160q0 93 26.5 184.5T133 500h61q-38-63-63.5-156T105 160q0-108 25.5-180t71-107T309-162q53 0 89.5 22t55 60T472 6q0 45-19.5 80.5T400 142t-72 20h-45v53h50q35 0 61.5 11.5t40.5 31 14 45.5q0 31-14 52t-39 41q-21 17-33 29t-21.5 30.5T329 500h64q3-22 17.5-39t39.5-39q20-17 32.5-31t21-35.5T512 304q0-40-25-70t-72-44v-4q32-10 59.5-34.5t44-62.5T535 2q0-61-26.5-110.5t-78-78T309-215q-83 0-143 41z"/><glyph glyph-name="uni10EB" unicode="ძ" horiz-adv-x="554" d="M150 18q-52 33-80 93.5T42 251t28 139 78 92.5T262 515q122 0 172-96h2v331h63V249q0-78-27-138t-78-93-121-33q-71 0-123 33zm210 47q37 26 56.5 73.5T436 248q0 102-43 157.5T270 461q-50 0-87-27t-57.5-75.5T105 248q0-61 20.5-108.5t58.5-74T274 39q49 0 86 26z"/><glyph glyph-name="uni10EC" unicode="წ" horiz-adv-x="556" d="M481.5 763.5Q497 762 510 759v-54q-11 3-26 4.5t-28 1.5q-29 0-51-12.5T371.5 664 360 616v-32h-63v31q0 27-10.5 49t-30 35-47.5 13q-45 0-68-33.5T118 585V410h2q26 46 68 70t104 24q65 0 115-30.5t78-88.5 28-137-28-137.5-80.5-90T281-11q-70 0-121 31.5T82 110 55 246v339q0 59 18 99t50 60.5 75 20.5q46 0 78.5-21t48.5-63h4q12 38 44 61t79 23q14 0 29.5-1.5zm-110-696Q410 93 430 139t20 106q0 61-20 107.5T372.5 425 285 451q-81 0-124-53t-43-153q0-62 19.5-107.5T194 67t87-25q52 0 90.5 25.5z"/><glyph glyph-name="uni10ED" unicode="ჭ" horiz-adv-x="592" d="M132-188.5q-48 26.5-73.5 74T33-3q0 17 3.5 36T46 66h60q-4-14-7-32T96 3q0-49 17.5-86t51.5-57.5 82-20.5q49 0 83.5 23.5t52 66T400 28v226h-2q-19-39-60-62t-96-23q-48 0-90 19t-67 56-25 89q0 54 27 92t72 56.5 99 18.5h142v250h63V500h114v-53H463V32q0-79-26-134.5t-74.5-84T247-215t-115 26.5zM328 239q33 17 52.5 49.5T400 365v82H262q-62 0-100.5-28.5T123 333q0-55 37-83t96-28q39 0 72 17z"/><glyph glyph-name="uni10EE" unicode="ხ" horiz-adv-x="554" d="M160 18q-51 33-78 93T55 249v501h63V419h2q50 96 172 96 64 0 114-32.5t78-92.5 28-139-28-139.5T404 18 281-15q-70 0-121 33zm210 47.5q38 26.5 58.5 74T449 248q0 62-20.5 110.5T371 434t-87 27q-80 0-123-55.5T118 248q0-62 19.5-109.5T194 65t86-26q52 0 90 26.5z"/><glyph glyph-name="uni10EF" unicode="ჯ" horiz-adv-x="493" d="M133.5-187.5Q85-160 59-111.5T33-2q0 16 3.5 32.5T44 58h59q-3-11-5-26T96 4q0-49 18.5-86.5t53-58.5 79.5-21q47 0 80.5 22T379-80.5 397 3q0 48-17.5 86.5t-52 61T243 173h-35v165H35v51h173v126h61V389h180v-51H269V223q60-5 103-34.5t65.5-77T460 3q0-59-26.5-109T359-185.5 247-215q-65 0-113.5 27.5z"/><glyph glyph-name="uni10F0" unicode="ჰ" horiz-adv-x="512" d="M137 6Q87 27 60 65t-27 87q0 27 12 58h60q-4-12-6.5-27T96 155q0-34 20-60.5T172 53t82-15q47 0 81.5 14.5t53 42T407 159q0 38-17.5 63.5T342 261t-66 13h-78v53h86q47 0 74 17t27 51q0 36-27.5 54.5T284 468h-86v52h88q47 0 67.5 16.5T374 579q0 21-12.5 35.5t-31 23T283 655q-106 33-115 95h64q5-18 24.5-29t42-18.5T328 692q47-17 78-43t31-68q0-30-20-52.5T353 496v-3q40-7 67.5-32.5T448 395q0-39-23-60t-66-32v-3q30-8 55-26.5t40.5-48T470 158q0-53-26.5-92t-75-60T254-15q-67 0-117 21z"/><glyph glyph-name="uni10F1" unicode="ჱ" horiz-adv-x="576" d="M112.5 83.5Q42 182 42 382q0 65 12.5 135.5t33 132T132 750h62q-23-39-43.5-102t-33-133.5T105 382q0-174 56.5-259.5T321 37q47 0 80.5 15T453 95t18 65q0 38-17.5 64T406 262.5 339 275h-57v52h65q48 0 75 17t27 51q0 36-28 54.5T347 468h-65v52h68q47 0 67.5 16.5T438 579q0 19-7 32t-18.5 22-29.5 20q-20 12-33 23t-24 29-16 45h64q5-22 21-38t41-31q21-14 34-26t22-30.5 9-44.5q0-28-19.5-51T417 496v-3q40-7 67.5-32.5T512 395q0-39-22.5-60.5T424 303v-3q47-13 78.5-49t31.5-94q0-52-26-91T433.5 6 319-15q-136 0-206.5 98.5z"/><glyph glyph-name="uni10F2" unicode="ჲ" horiz-adv-x="516" d="M157 7.5Q104-3 37-3v53q45 0 85 4t84 14v2q-51 14-88.5 49.5t-57 82T41 296q0 60 26 110t75.5 79.5T258 515t115.5-29.5T449 406t26-110q0-48-19.5-94.5t-57-82T310 70v-2q44-10 84-14t85-4V-3Q412-3 359 7.5T258 37Q210 18 157 7.5zM345.5 141q34.5 35 50.5 75t16 80q0 45-18.5 83T340 439.5 258 462t-82-22.5-53.5-60.5-18.5-83q0-40 16-80t50.5-75T258 84q53 22 87.5 57z"/><glyph glyph-name="uni10F3" unicode="ჳ" horiz-adv-x="514" d="M141-187.5q-51 27.5-79.5 76T33-3q0 46 19 93h61q-8-19-12.5-43T96 3q0-48 20.5-85.5T174-141t85-21q46 0 81.5 23.5t55.5 63T416 11q0 48-19.5 86t-53 59-72.5 21h-52v54h52q37 0 62.5 16t38 42.5T384 348v99H86v53h361V355q0-56-25.5-94.5T349 206v-4q37-12 66.5-38T462 98.5 479 10q0-60-27-112t-77.5-82.5T259-215q-67 0-118 27.5z"/><glyph glyph-name="uni10F4" unicode="ჴ" horiz-adv-x="515" d="M141-187.5q-51 27.5-79.5 76T33-3q0 22 5 48t13 45h61q-7-20-11.5-44T96 3q0-48 20.5-85.5T174-141t85-21q46 0 82 22.5T397-78t20 89q0 48-19.5 86t-53 59.5T269 178h-42v53h47q35 0 62 14t41.5 39.5T392 342v105H248q-52 0-91 18.5t-61 55T74 610h63q0-54 33.5-82t96.5-28h188V342q0-48-24-83t-75-53v-4q35-11 63-37t44.5-66T480 10q0-63-27.5-114.5t-77.5-81T259-215q-67 0-118 27.5z"/><glyph glyph-name="uni10F5" unicode="ჵ" horiz-adv-x="576" d="M141 3.5Q96 22 69 58.5T42 146q0 52 26 87.5t72 53T244 304h140v153H244q-90 0-143.5 38T47 610q0 52 25.5 86.5t69 51.5 98.5 17q90 0 148-42t58-136v-78h115v-52H446V304h115v-51H446v-86q0-64-28-105T343.5 3 240-15q-54 0-99 18.5zM384 588q0 65-39.5 95T241 713q-59 0-95.5-26T109 610q0-52 36-76.5t94-24.5h145v79zM344 68.5q40 31.5 40 97.5v87H239q-37 0-67.5-12t-49-35.5T104 147t18.5-60T172 49.5 241 37q63 0 103 31.5z"/><glyph glyph-name="uni10F6" unicode="ჶ" horiz-adv-x="717" d="M230-152h27q28 0 42.5 7t21 23.5T327-72v71q-86 3-150 33.5t-99.5 88T42 258q0 81 38 138t102.5 86T327 513v110q0 68 30 97.5t98 29.5h30v-52h-26q-28 0-43-6.5T395 668t-6-50V513q83-2 147.5-33T638 392t37-134q0-82-36.5-139.5T537 31 388-1v-76q0-46-13-73.5T334-191t-73-14h-31v53zm-16.5 589Q163 413 134 367t-29-109q0-66 29-112.5T213.5 76 327 53v409q-63-1-113.5-25zm289-361.5q50.5 22.5 80 69T612 258q0 65-30 110.5t-81 69T388 462V52q64 1 114.5 23.5z"/><glyph glyph-name="uni10F7" unicode="ჷ" horiz-adv-x="516" d="M143.5-187.5Q92-160 62-111T32 0q0 66 24.5 111t62 71.5T209 233q47 21 74 37t45 39.5 18 57.5q0 29-13 51t-35 34-49 12q-26 0-48.5-13t-36-37-13.5-57H90q0 49 22.5 85t58.5 54.5 77 18.5q45 0 81.5-18.5t57-51T407 372q0-52-23-86t-56-54-89-45q-44-20-74.5-42t-50-57.5T95 0q0-44 21-81.5t58-59 84-21.5q49 0 86 23t57 61.5T421 6q0 51-18 94h61q7-14 13.5-41.5T484 6q0-65-29-115t-80.5-78T258-215q-63 0-114.5 27.5z"/><glyph glyph-name="uni10F8" unicode="ჸ" horiz-adv-x="532" d="M155-189q-48 26-74 77.5T55 15v485h63V350q0-101 40.5-155T277 141q47 0 80.5 21t51.5 61 18 95q0 50-15.5 97.5T375 500h59q22-29 39-78.5T490 320q0-73-25.5-125.5T394 115 291 88q-60 0-101 22.5T120 181h-2V12q0-81 39.5-127.5T269-162t112.5 35.5T422-28q0 19-5 41h60q8-22 8-47 0-59-29-100t-78-61-109-20q-66 0-114 26z"/><glyph glyph-name="uni10F9" unicode="ჹ" horiz-adv-x="536" d="M383.5 486.5q51.5-28.5 81-83T494 275q0-67-27-116.5T394 79 290 37Q236 26 207.5-.5T179-67q0-29 13-50.5t35-33.5 49-12q26 0 48.5 12.5t36 36.5T374-57h61q0-49-22-85t-58-54.5-77-18.5q-45 0-81.5 18.5t-57 51T119-72q0 44 25.5 75.5T214 51v4q-50 6-89 35.5t-61 77T42 275q0 72 29 126.5t80.5 84T268 515q64 0 115.5-28.5zm-201-48.5q-36.5-24-57-66.5T105 275q0-55 20.5-96.5T183 114t85-23q47 0 84.5 23.5t58 65.5 20.5 95q0 55-20.5 97.5t-58 66T267 462t-84.5-24z"/><glyph glyph-name="uni10FA" unicode="ჺ" horiz-adv-x="495" d="M286 56.5Q245 76 182 76H89v45h80v3q-63 22-95.5 70.5T41 314q0 55 24.5 101t71 73T248 515q66 0 112.5-27t70.5-72.5T455 314q0-39-15-78h-61q13 35 13 72 0 42-16.5 77.5t-49 56T248 462t-78.5-21-49-55.5T104 310q0-69 40-116.5T263 124q57-16 92-46t42-78h-61q-9 37-50 56.5z"/><glyph glyph-name="uni10FD" unicode="ჽ" horiz-adv-x="574" d="M156.5 15q-57.5 30-87 87.5T40 240h63q0-97 51.5-149.5T298 38q53 0 92 18t60 51 21 77q0 47-20 79t-60.5 54T283 358q-72 20-119.5 46.5t-74 65.5T63 565q0 63 28.5 108.5t79 68.5T285 765q73 0 125-27t79.5-77.5T517 539h-63q0 83-43 127.5T284 711q-47 0-82.5-18t-55-50-19.5-74q0-55 41-94.5T304 409q83-23 133-50.5t74-67.5 24-100q0-64-29.5-110.5T422 9.5 297-15q-83 0-140.5 30z"/><glyph glyph-name="uni10D0.case" horiz-adv-x="549" d="M146 15.5Q92 46 62 101T32 225q0 37 9.5 74T63 360h64q-13-24-21.5-60.5T97 226q0-52 22-94t60.5-66.5T268 41t89 25 61 67.5 22 93.5-14.5 91.5T390 389t-57 72q-37 44-59 76t-37.5 76.5T221 714h65q0-48 14-86.5t35-68.5 56-71q38-46 60.5-78.5T490 331t16-104q0-69-31-124t-85.5-86.5T268-15q-68 0-122 30.5z"/><glyph glyph-name="uni10D1.case" horiz-adv-x="572" d="M161.5 16q-55.5 31-88 88.5T41 237q0 69 29 124.5t80.5 88T267 486v28q0 25-7 41.5T243 581t-29 22q-17 11-28 23.5T167.5 660t-7.5 54h63q0-28 11.5-46t33.5-34q21-15 33.5-28t21.5-33.5 9-50.5v-39q56-10 101-42.5t71-85T530 237q0-74-32-131t-88-89-126-32q-67 0-122.5 31zM378 66q41 25 64.5 69.5T466 237t-23.5 101-65 68.5T284 431q-51 0-91-24.5T130 338t-23-101q0-58 23-102.5t63.5-69T285 41q52 0 93 25z"/><glyph glyph-name="uni10D2.case" horiz-adv-x="576" d="M164 15q-56 30-89.5 85.5T41 229q0 66 27 116t72.5 81T243 471q73 17 106 46t33 68q0 27-14.5 48T328 665.5 274 677q-28 0-53-12.5T180.5 629 165 575h-64q0 49 25 83.5t64.5 52.5 82.5 18q46 0 85-17.5t62.5-49.5 23.5-75q0-49-28.5-78.5T337 463v-2q57-7 102-39t70-82.5T534 229q0-72-33-127.5t-90-86T286-15q-66 0-122 30zm214.5 49.5Q420 88 445 131t25 98q0 58-25 101.5t-67 67-92 23.5q-48 0-89-23.5T131.5 330 107 229q0-56 24.5-98.5t65.5-66T287 41q50 0 91.5 23.5z"/><glyph glyph-name="uni10D3.case" horiz-adv-x="864" d="M487.5 60.5Q453 86 400 98.5T287 111H134v53h100v3q-50 16-95.5 54T64 321 35 465q0 80 26.5 140t73 92T238 729t99-29 60-89h4q26 58 78.5 88T596 729q63 0 116.5-32.5t85-89T829 481q0-69-31-126t-85.5-90T590 232q-67 0-120.5 32t-83 89T357 481v62q0 39-15.5 68t-41 44.5T244 671q-42 0-73.5-24.5t-49-71T104 465q0-88 39-151.5t99.5-100T370 164q99-20 159-58.5T593 0h-67q-4 35-38.5 60.5zm191 255.5q39.5 26 61.5 70t22 95q0 53-22 96.5T678.5 646 590 671q-48 0-86-24t-59.5-67.5T423 481q0-53 21-97t59.5-69 86.5-25q49 0 88.5 26z"/><glyph glyph-name="uni10D4.case" horiz-adv-x="561" d="M148 11Q95 37 65 85.5T35 200q0 26 5.5 51.5T55 298h63q-17-48-17-91 0-50 21.5-87.5t59.5-58T268 41q49 0 87.5 21.5T415 124t21 93v287q0 46-19 85t-54.5 61.5T280 673t-82-20-53.5-52.5T126 531q0-23 7-53H69q-8 30-8 59 0 52 27.5 96t77.5 70 115 26q66 0 116-29.5t77.5-80T502 508V217q0-71-30-123.5T389 13 268-15q-67 0-120 26z"/><glyph glyph-name="uni10D5.case" horiz-adv-x="557" d="M152 11Q97 37 66 84T35 192q0 26 5 52t13 44h62q-14-36-14-83 0-53 23.5-90T188 59.5 277 41q46 0 86 17.5t64 52 24 81.5q0 48-20 85.5T375 336t-81 21h-50v56h50q43 0 73 17t44.5 45.5T426 540q0 37-19 67.5t-53 48-75 17.5q-45 0-79.5-17.5t-54-48T126 540q0-27 6-45H68q-3 12-5 25.5T61 547q0 51 28.5 92.5T168 705t112 24q59 0 107.5-24t76.5-65.5 28-91.5q0-55-28.5-99T387 387v-3q36-11 65.5-36.5t47-65T517 192q0-61-31.5-108T399 11 277-15q-70 0-125 26z"/><glyph glyph-name="uni10D6.case" horiz-adv-x="599" d="M191 16q-56 31-88 86.5T71 227q0 54 21.5 105t68.5 84v3q-45 3-77.5 23.5t-50 53T16 567q0 49 22.5 85.5t62 56.5 89.5 20q49 0 89-20t63-54 23-75q0-33-11.5-61T318 474q68 0 123-30t87-84.5T560 233q0-71-32-127.5T440 17 314-15q-67 0-123 31zm56 457q26 14 42 39t16 57-15 56.5-41.5 38T191 677q-32 0-58.5-13.5t-42-38T75 569q0-33 14.5-58t40.5-38.5 60-13.5q31 0 57 14zM408 65.5Q449 90 472.5 134t23.5 99q0 56-23 99.5t-64 67-94 23.5q-50 0-90.5-24t-64-67-23.5-99q0-57 23-100.5T223.5 65 315 41q52 0 93 24.5z"/><glyph glyph-name="uni10D7.case" horiz-adv-x="898" d="M752.5 149.5Q776 236 776 330v145q0 68-17.5 112T710 652t-70 21q-33 0-62-19t-47-56-18-87V253q0-84-28.5-144.5t-80-92T286-15q-68 0-120 31t-81.5 91T55 252v210q0 84 29 144.5t79.5 91.5T280 729q73 0 123.5-33.5T474 603h3q10 38 36 66.5t60.5 44T644 729q58 0 102-28.5t69.5-85T841 477V333q0-100-22.5-186.5T759 0h-67q37 63 60.5 149.5zM371.5 66Q408 91 428 140.5T448 260v194q0 109-41 164t-121 55q-50 0-87-25.5T141.5 573 121 454V260q0-70 20.5-119T199 66.5 286 41q49 0 85.5 25z"/><glyph glyph-name="uni10D8.case" horiz-adv-x="578" d="M431.5 156Q456 249 456 341v123q0 59-19.5 106.5t-57.5 75-90 27.5q-53 0-91-27.5t-57.5-75T121 464V341q0-93 24-186T202 0h-67q-33 58-56.5 151.5T55 341v131q0 76 29.5 134.5T167 697t122 32q68 0 120.5-32.5t82-90.5T521 472V341q0-96-23-189T442 0h-68q33 63 57.5 156z"/><glyph glyph-name="uni10D9.case" horiz-adv-x="547" d="M148.5 12Q94 39 62 87T30 195q0 26 4.5 50.5T48 288h62q-15-43-15-86 0-48 24-84.5T183 61t87-20 86.5 21 62.5 60 23 91q0 51-23 91t-62 62.5-85 22.5h-51v56h66q38 0 66 15.5t43 41 15 55.5q0 42-26.5 73T313 670v55q52-7 88.5-30.5t55.5-58 19-73.5q0-56-28.5-93.5T371 418v-3q63-23 100.5-75.5T509 210q0-64-31.5-115.5t-86-80.5T270-15 148.5 12z"/><glyph glyph-name="uni10DA.case" horiz-adv-x="1011" d="M626.5 68.5Q582 95 521 106.5T399 118H139v50h114v3q-54 17-102.5 56.5T70.5 329 39 472q0 78 23 136t65 89.5 98 31.5q31 0 59-13t49-38 30-60h4q8 35 29 60t50 38 59 13q31 0 60-13t50-38 28-60h4q16 52 53 81.5t85 29.5q56 0 97-33t63.5-92.5T968 466q0-57-11.5-111.5T924 253h-67q22 50 34.5 104T904 464q0 65-14.5 112T848 648t-64 25q-31 0-55.5-17.5t-38-48.5-13.5-68V351h-64v188q0 41-14 71t-38.5 46.5T505 673t-55.5-17-38.5-47.5-14-69.5V351h-66v188q0 39-13.5 69.5t-37 47.5-53.5 17q-38 0-65.5-23.5t-42-67.5T105 477q0-93 42.5-158t107-99.5T387 178q68-5 121.5-12.5T615 140q59-20 92-57t37-83h-65q-8 42-52.5 68.5z"/><glyph glyph-name="uni10DB.case" horiz-adv-x="586" d="M161 16.5q-55 31.5-87.5 90T41 243q0 70 31 126.5t83.5 88.5T271 490q40 0 77.5-12.5T415 443t44-51h2v109q0 59-23 97.5T376.5 655 291 673q-40 0-73.5-15t-55-40.5T136 560H69q3 44 33 83t79.5 62.5T291 729q67 0 120.5-25.5t84-75T526 510V242q0-78-32-136.5T407 16 283-15q-67 0-122 31.5zm214.5 49Q416 90 439 135.5T462 240t-23 103-64.5 67.5T281 434q-51 0-90.5-25T129 339.5 107 240q0-59 22.5-104.5t62.5-70T283 41q52 0 92.5 24.5z"/><glyph glyph-name="uni10DC.case" horiz-adv-x="586" d="M125 389q15 28 44 50.5t66 35.5 74 13q65 0 118.5-32t84.5-89 31-127q0-78-32.5-135.5T423 16 301-15q-69 0-124.5 30.5T89 104 57 240v302q0 90 48.5 131T251 714h229v-59H253q-66 0-98-28t-32-89V389h2zM391 65q40 24 63 68.5T477 237q0 55-22.5 99t-62 69-90.5 25q-52 0-93-23.5t-64.5-67T121 237t23-103.5T208 65t93-24q50 0 90 24z"/><glyph glyph-name="uni10DD.case" horiz-adv-x="798" d="M653.5 150.5Q677 241 677 337v135q0 101-35.5 151T547 673q-33 0-59-18t-41.5-50.5T431 529V209h-66v320q0 43-15 76t-41 50.5-58 17.5q-39 0-69-22.5t-46.5-68T119 470V337q0-93 24-185.5T202 0h-67Q98 60 75.5 148.5T53 337v138q0 81 24.5 138t67.5 86.5 99 29.5q35 0 66.5-13t54.5-38.5 32-61.5h3q10 36 33.5 61.5t55 38.5 64.5 13q57 0 100-28.5t66.5-85.5T743 476V337q0-101-22.5-189.5T661 0h-69q38 60 61.5 150.5z"/><glyph glyph-name="uni10DE.case" horiz-adv-x="536" d="M146.5 10.5Q93 36 61.5 80.5T30 178q0 38 13 73h64q-11-33-11-65 0-41 21.5-74.5t60-52T263 41q46 0 83.5 19.5t59 53.5 21.5 75q0 48-21 83t-58 54-83 19h-42v55h72q33 0 56 10.5t34.5 28.5 11.5 39q0 26-12.5 44t-31 29.5T304 577q-36 17-61 33t-42 42-17 62h65q4-32 29-53.5t68-42.5q38-19 61-33.5t39-39.5 16-63-26-68.5-71-43.5v-3q29-8 58.5-30t49.5-60.5 20-90.5q0-57-30.5-102.5t-83-72T263-15q-63 0-116.5 25.5z"/><glyph glyph-name="uni10DF.case" horiz-adv-x="569" d="M154 11q-53 26-84 74T39 196q0 16 3 34.5t9 31.5h64q-4-13-7-31t-3-33q0-45 22.5-81t61-56T272 41q46 0 84.5 21t61.5 62 23 100v445l-227-35v-2q38-13 58.5-46t20.5-71q0-39-19.5-70t-57-48.5T126 379H44v52h72q53 0 85.5 25t32.5 69q0 31-18 53t-46 33.5-57 11.5v49l316 49h78V219q0-76-31-129t-84.5-79T272-15q-65 0-118 26z"/><glyph glyph-name="uni10E0.case" horiz-adv-x="738" d="M628 244q0 60-15.5 101.5t-43 63T506 430q-30 0-54-16.5T414 366t-14-73V139h-65v154q0 42-13.5 73T285 413.5 232 430q-33 0-61.5-19.5t-45.5-61T108 244t18.5-126T178 0h-67Q74 62 57.5 126.5T41 288q0 119 33 195.5T167 601t146 57l97 19q28 5 46.5 13.5T482 714h66q-6-40-40.5-61.5T407 619l-88-16q-93-17-149-68T97 392h2q11 31 33.5 52.5t50 32T236 487q46 0 80.5-28t49.5-78h3q17 50 55.5 78t86.5 28q53 0 94.5-30t65-85T694 246q0-70-17.5-130T624 0h-68q72 117 72 244z"/><glyph glyph-name="uni10E1.case" horiz-adv-x="570" d="M177.5 12q-53.5 27-85 81T61 223v491h66V228q0-59 22.5-101.5t61-64T297 41q46 0 84 19t60 52 22 72q0 45-15 76t-44 62q-5 6-28 30.5t-36 54-16 64.5h64q4-30 17-51.5t28.5-39.5 21.5-24q24-27 38.5-49t24.5-54 10-76q0-57-32-100.5T411 9 297-15q-66 0-119.5 27z"/><glyph glyph-name="uni10E2.case" horiz-adv-x="701" d="M192 27.5Q122 70 81.5 151T41 344q0 106 36.5 184.5t100 123.5T319 705h6q-4 20-4 37h56q0-10-1.5-21.5T374 705h6q78-7 141-51.5t99.5-124T657 344q0-112-40.5-193.5T506.5 27 350-15q-88 0-158 42.5zM475.5 78q54.5 37 85 106T591 344q0 88-26.5 154.5t-74 106T382 653l-6 2q7-65 7-121V320h-67v216q0 61 8 119l-7-2q-62-9-109.5-48.5t-74-106.5T107 344q0-91 30.5-159.5t85.5-106T350 41q71 0 125.5 37z"/><glyph glyph-name="uni10E3.case" horiz-adv-x="594" d="M172 11.5Q116 38 83 86T50 196q0 26 6 51.5T71 291h62q-7-19-12-44.5t-5-46.5q0-47 24-83.5t65-56T296 41q48 0 87.5 21t63.5 62.5 24 99.5v320q0 38-12.5 67t-36 45.5T367 673q-30 0-52.5-15.5t-34.5-43-12-61.5V437h-65v123q0 47-24.5 75T107 663H44v58h56q55 0 88-19.5t45-63.5h4q14 44 51 67.5t88 23.5q46 0 82.5-21t57.5-61 21-94V219q0-71-32-124t-87-81.5T296-15q-68 0-124 26.5z"/><glyph glyph-name="uni10E4.case" horiz-adv-x="799" d="M326 3q-59 18-96.5 57T187 160h65q12-66 69.5-92.5T458 41q51 0 99 14.5t79.5 46.5 31.5 82q0 39-15.5 68.5t-44.5 46-68 16.5h-25v56h48q60 0 93.5 40.5T690 521q0 73-33.5 112.5T566 673q-34 0-61.5-16.5t-43-46.5-15.5-70v-37q0-67-25.5-118T348 305.5 238 277t-110 28.5T56.5 385 32 503q0 68 25.5 119.5t71.5 79T233 729q63 0 109.5-28.5T410 613h3q10 37 33 63t55.5 39.5T571 729q54 0 96-25t65.5-71T756 525q0-73-30-120t-85-66v-3q44-18 68-60.5T733 175q0-60-37-103T596.5 7 458-15q-73 0-132 18zm-10 349.5q33 21.5 50.5 60T384 503q0 55-18 94t-51 58.5-77 19.5q-45 0-77.5-21t-50-60T93 503q0-51 17-90t49.5-60.5T237 331q46 0 79 21.5z"/><glyph glyph-name="uni10E5.case" horiz-adv-x="560" d="M146 9Q94 35 64.5 82.5T35 192q0 14 3 30.5t8 29.5h61q-3-14-5-28t-2-25q0-47 21-83.5T179.5 59 263 39q50 0 88.5 21t60 61 21.5 94v148q0 57-22 100t-59.5 65.5T269 551q-42 0-73.5-17.5t-48.5-47-17-65.5q0-18 4-38H70q-6 24-6 44 0 50 24.5 91.5t67.5 65 97 23.5q62 0 106.5-26.5T429 510h2v204h65V212q0-74-29.5-125.5T384 9 263-17q-65 0-117 26z"/><glyph glyph-name="uni10E6.case" horiz-adv-x="751" d="M453 59q-23 25-63 39t-94 14H129v51h104v3q-53 16-98 57T62.5 326.5 35 467t24 137.5 67 92 98 32.5 95-26.5 55-81.5h3q18 55 57 81.5t92 26.5q56 0 98.5-31.5t66-89T714 474q0-118-42-211h-67q22 46 33 99.5T649 472q0 63-16.5 108.5t-46 69T518 673q-32 0-57.5-16.5t-39.5-48-14-76.5V349h-65v183q0 45-14 76.5t-39 48-57 16.5q-40 0-69.5-25T117 576t-16-109q0-91 40-156t99.5-101.5T361 163q88-15 133.5-56.5T545 0h-65q-4 34-27 59z"/><glyph glyph-name="uni10E7.case" horiz-adv-x="579" d="M170.5 4.5Q117 24 83 64t-34 98q0 28 9 53h61q-6-19-6-42 0-41 23.5-71t62-45.5T283 41q49 0 87 20.5t59.5 60T451 216v180h-2q-23-45-72-71t-113-26q-58 0-109.5 27.5T72 405 41 522q0 59 17 108.5T98 714h62q-22-36-37.5-85T107 529q0-54 23.5-93.5T193 375t85-21q49 0 89.5 24.5t64 67.5 23.5 96v172h62V209q0-70-30.5-121t-84-77T283-15q-59 0-112.5 19.5z"/><glyph glyph-name="uni10E8.case" horiz-adv-x="586" d="M161 15q-55 30-87.5 87T41 236q0 69 30.5 124t83 86.5T269 478q61 0 113-25.5t77-68.5h2v163q0 58-26 92.5T362 674q-27 0-48.5-13T280 627t-12-45v-29h-65v30q0 37-24 59.5T111 665H50v56h68q42 0 73.5-18.5T234 646h3q16 41 52 62t81 21 80.5-19.5T506 651t20-96V235q0-77-32-133.5T407 15 283-15q-67 0-122 30zm215 49.5q41 23.5 64 67T463 233q0 57-23.5 100T375 399t-93 23q-51 0-91-24.5T129 330t-22-97q0-58 22.5-101.5t62.5-67T283 41q52 0 93 23.5z"/><glyph glyph-name="uni10E9.case" horiz-adv-x="574" d="M182.5 655.5Q155 639 139 608.5T123 539V385h2q15 27 42.5 50t64.5 37 79 14q59 0 109-29.5t80-85T530 241q0-133-67-241h-65q33 62 49.5 116.5T464 238q0 60-22.5 103T381 406.5 297 429q-49 0-89-24.5t-63-69T122 232V0H57v544q0 54 25 96.5t68 65.5 95 23q56 0 100.5-24.5T415 638t25-93h-63q0 35-17 64t-47 46-68 17q-35 0-62.5-16.5z"/><glyph glyph-name="uni10EA.case" horiz-adv-x="629" d="M189 28Q121 71 81 156.5T41 365q0 102 32.5 190T157 714h66q-49-72-82.5-164T107 365q0-106 32.5-179t86-109T341 41q52 0 93 20.5t63.5 57T520 202q0 48-20 85.5t-58 58-92 20.5h-44v55h70q58 0 89.5 22t31.5 65q0 20-8 36t-19.5 28-32.5 30q-22 18-36 32.5t-23.5 34T368 714h61q2-17 11-31.5t22.5-28T490 629q23-19 38-34.5t25-37 10-49.5q0-40-28-71.5T459 390v-3q33-9 62-35.5t47-66.5 18-87q0-60-30-108.5T470.5 13 341-15q-84 0-152 43z"/><glyph glyph-name="uni10EB.case" horiz-adv-x="590" d="M161 16q-55 31-87.5 89T41 241q0 70 30.5 126.5T154 456t115 32q40 0 78-12.5t67.5-34.5 44.5-51h2v324h65V240q0-78-32-136t-87-88.5T283-15q-67 0-122 31zm215 49q41 24 64 69t23 104-23.5 103-65 67.5T281 432q-51 0-90.5-25T129 338t-22-100q0-59 22.5-104T192 65t91-24q52 0 93 24z"/><glyph glyph-name="uni10EC.case" horiz-adv-x="590" d="M180 15q-55 30-87 86.5T61 235v320q0 57 20 96t55.5 58.5T217 729t81-21 52-62h4q10 38 41.5 56.5T470 721h67v-56h-61q-44 0-67.5-22.5T385 583v-30h-66v29q0 24-12 45t-33.5 34-48.5 13q-47 0-72.5-34.5T127 547V384h2q25 43 76.5 68.5T318 478q62 0 114.5-31.5t83-86.5T546 236q0-77-32.5-134T426 15 304-15q-69 0-124 30zm215 49.5q40 23.5 62.5 67T480 233q0 54-22 97t-62 67.5-91 24.5q-52 0-93-23t-64-66-23-100q0-58 23-101.5t63.5-67T304 41q51 0 91 23.5z"/><glyph glyph-name="uni10ED.case" horiz-adv-x="619" d="M152.5 10q-52.5 25-83 71.5T39 190q0 12 3 26.5t7 25.5h63q-3-10-4.5-23.5T106 194q0-46 21.5-80.5T186 60t84-19q48 0 86 20t59 58 21 91v195h-2q-12-26-39-47.5t-65.5-34T249 311q-47 0-91 17.5T86 380t-28 82q0 50 28 83.5t72.5 49.5 96.5 16h181v105h66V611h100v-52H502V216q0-73-30-125.5t-82.5-79T270-15q-65 0-117.5 25zm193 372.5q39.5 16.5 65 49.5t25.5 79v48H264q-61 0-100.5-23T124 466q0-31 19-54t51-34.5 70-11.5q42 0 81.5 16.5z"/><glyph glyph-name="uni10EE.case" horiz-adv-x="590" d="M180 15.5Q125 46 93 104T61 240v474h66V390h2q15 29 44.5 51t67.5 34.5 78 12.5q63 0 114.5-32t82-88T546 241q0-78-32-136t-87-89-123-31q-69 0-124 30.5zM395 65q40 24 62.5 69T480 238q0 56-22 100t-61.5 69-90.5 25q-52 0-93-23.5T148.5 341 125 238t23-104 64-69 92-24 91 24z"/><glyph glyph-name="uni10EF.case" horiz-adv-x="551" d="M153.5 9.5Q99 36 67 84T35 192q0 17 3 36t8 32h62q-8-32-8-62 0-47 24-83t63.5-56T273 39q45 0 84 20t62.5 57.5T443 206q0 53-22 93t-59.5 62-84.5 22h-41v176H46v52h190v111h63V611h191v-52H299V438q59-5 106.5-33t76-79.5T510 203q0-63-32-113.5T392 11 273-17 153.5 9.5z"/><glyph glyph-name="uni10F0.case" horiz-adv-x="547" d="M151 3Q97 21 63.5 57T30 144q0 25 10 54h61q-7-26-7-42 0-39 24.5-65T183 53t86-12q47 0 85.5 12T416 89.5t23 61.5q0 52-34.5 80.5T310 260H208v51h113q98 0 98 64 0 33-26.5 50.5T321 443H208v52h113q46 0 66.5 14t20.5 40q0 19-13 31.5T362 601t-51 17q-37 10-62.5 20.5t-43 29T186 714h58q7-18 32-29.5t73-25.5q41-13 65.5-24t41.5-31.5 17-53.5q0-63-76-80v-2q24-4 44-16.5t32-32 12-44.5q0-37-21-58.5T403 286v-2q45-12 73.5-45t28.5-88q0-52-32.5-90t-87-57T266-15q-61 0-115 18z"/><glyph glyph-name="uni10F1.case" horiz-adv-x="617" d="M190.5 26.5Q121 68 79.5 153.5T38 363q0 98 27.5 186T142 714h64q-47-76-74.5-166.5T104 363q0-109 34-181t88.5-106.5T345 41q47 0 84 13t58 38 21 58q0 52-34.5 79.5T384 257h-86v54h97q92 0 92 62 0 33-24.5 50.5T395 441h-97v54h97q43 0 62 14t19 38q0 19-6.5 32t-16 21.5T428 620q-19 13-31 23.5t-22 28-15 42.5h64q7-22 20.5-35.5T483 647q20-14 32.5-25.5T536 592t8-43q0-27-19-49t-61-30v-3q38-6 64-31t26-62q0-38-21.5-58.5T470 285v-3q45-12 74.5-46.5T574 145q0-47-30.5-83.5T460.5 5 343-15q-83 0-152.5 41.5z"/><glyph glyph-name="uni10F2.case" horiz-adv-x="576" d="M395 13.5Q340 29 287 57 172-2 71-2v56q40 0 86.5 9.5T240 90v3q-58 31-103 83.5t-70.5 123T41 450t32.5 143.5T162 693t125 36 125.5-36 88.5-99.5T533 450t-25.5-150.5-70-123T335 93v-3q36-17 82-26.5t86-9.5V-2q-53 0-108 15.5zm24.5 240Q468 339 468 445q0 65-23 117t-64.5 81.5T287 673t-93-29.5-64-81.5-23-117q0-106 48.5-191.5T287 118q84 50 132.5 135.5z"/><glyph glyph-name="uni10F3.case" horiz-adv-x="557" d="M156 11.5q-56 26.5-88.5 74T35 193q0 24 5.5 49.5T54 286h64q-8-18-12-42t-4-44q0-46 23.5-82t64-56.5T279 41q47 0 86 23t62 61.5 23 83.5q0 50-21 88.5t-58.5 59T286 377h-45v56h67q38 0 63.5 16t38 42.5T422 550v107H78v56h410V557q0-55-27-95.5T387 405v-2q37-12 66.5-40t46-69 16.5-90q0-61-31-111t-85.5-79T279-15q-67 0-123 26.5z"/><glyph glyph-name="uni10F4.case" horiz-adv-x="557" d="M156 11.5Q100 38 67.5 85T35 193q0 22 4.5 45.5T51 279h64q-6-17-9.5-39t-3.5-41q0-45 24-81.5T190.5 61 279 41q47 0 86 19t62 54 23 80-21.5 78.5-58.5 51-81 17.5h-43v56h62q37 0 63 15.5t38.5 42T422 513v52H231q-52 0-89 19t-55.5 53.5T68 717h64q0-44 27-70t85-26h244V520q0-55-26-95t-73-55v-4q57-15 92-61t35-117q0-57-31-103.5t-85.5-73T279-15q-67 0-123 26.5z"/><glyph glyph-name="uni10F5.case" horiz-adv-x="604" d="M147.5 2.5Q99 20 70 55t-29 85 25.5 85 70 52.5T238 295h180v136H238q-88 0-140 37T46 581q0 50 29 83t77 49 106 16q57 0 107.5-17t83-56T481 554v-70h107v-53H481V295h107v-54H481v-77q0-63-33.5-103T362 3 253-15 147.5 2.5zM418 552q0 44-22.5 71.5t-57.5 40-76 12.5q-66 0-109-24t-43-72 36-72 93-24h179v68zM336 51q36 12 59 39.5t23 71.5v79H237q-36 0-65.5-11.5t-47-34T107 140q0-32 20.5-55t55-34.5T259 39q41 0 77 12z"/><glyph glyph-name="uni10F6.case" horiz-adv-x="738" d="M241 50h25q29 0 43.5 7t20 24 5.5 51v69q-90 5-156 35T77 322.5 41 460q0 80 39 136t106.5 85T338 714l-3 30h64l-1-30q87-4 154.5-34.5T658 593t38-133q0-82-37.5-138.5t-104-86.5T399 201v-74q0-46-13.5-73.5t-42-40T270 0h-29v50zm-25.5 585.5q-51.5-23.5-80-68T107 460q0-100 61.5-151T335 254v408q-68-3-119.5-26.5zm352.5-327Q630 359 630 460q0 65-29.5 109.5t-81.5 67T399 662V254q107 4 169 54.5z"/><glyph glyph-name="uni10F7.case" horiz-adv-x="564" d="M358.5 711.5q39.5-17.5 63-49.5t23.5-75q0-49-22-82t-54-52.5-88-45.5q-58-26-94-48.5T126 297t-25-99q0-43 24-79t65-57 92-21q52 0 93 21.5t64 57.5 23 78q0 28-5 51.5T443 300h64q8-16 14.5-45t6.5-57q0-63-33-111.5t-89.5-75T281-15q-65 0-121.5 25.5T69 84.5 35 198q0 74 30 122.5t72 75.5 108 56q48 22 74.5 37.5T364 528t18 55q0 46-30 70t-78 24q-30 0-54.5-11.5T180 631t-15-56h-64q0 49 25 83.5t64.5 52.5 82.5 18q46 0 85.5-17.5z"/><glyph glyph-name="uni10F8.case" horiz-adv-x="576" d="M173 11q-53 26-84 77T58 209v505h62V542q0-54 23-96.5t63.5-67T296 354q46 0 85.5 21t63 60.5T468 529q0 51-16 100t-38 85h62q23-34 40-83.5T533 522q0-66-31-117t-82-78.5T311 299q-65 0-114 26t-71 71h-2V216q0-55 21.5-94.5t59.5-60T292 41q46 0 84.5 15.5t62 45.5 23.5 71q0 19-7 42h62q8-22 8-53 0-58-33.5-98t-87-59.5T292-15q-66 0-119 26z"/><glyph glyph-name="uni10F9.case" horiz-adv-x="567" d="M406.5 699q56.5-30 90-85.5T530 485q0-66-27-116t-72.5-81T328 243q-73-17-106-46t-33-68q0-27 14.5-48t39-32.5T296 37t54 12.5T390.5 85t15.5 54h64q0-49-25-83.5T380 3t-83-18q-45 0-84 17.5T150.5 52 127 127q0 49 28.5 78.5T234 251v2q-57 7-102 39t-70 82.5T37 485q0 72 33 127.5t89.5 86T284 729q66 0 122.5-30zM192 649.5Q150 626 125.5 583T101 485q0-58 24.5-101.5t66.5-67 92-23.5q49 0 90 23.5t65.5 67.5T464 485q0 56-24.5 98.5t-66 66T283 673t-91-23.5z"/><glyph glyph-name="uni10FA.case" horiz-adv-x="565" d="M334 81q-37 29-110 29H111v51h112v3q-78 36-130.5 107.5T40 455q0 88 32 150t86.5 93T281 729q69 0 123-31t85.5-93T521 454q0-38-8.5-79.5T495 315h-65q11 26 18.5 62.5T456 454q0 69-23 118t-63 74.5-89 25.5q-50 0-89.5-25.5T129 572t-23-117q0-81 26.5-134.5t64.5-84 99-64.5q48-27 76-47t47.5-50.5T441 0h-65q-5 52-42 81z"/><glyph glyph-name="uni10FD.case" horiz-adv-x="629" d="M448.5 705q57.5-26 89-76T570 508h-65q-13 164-197 164-85 0-134-35.5T125 535q0-31 12.5-53.5t46-40.5 96.5-32l88-20q79-16 128.5-41t73.5-64 24-96q0-64-36.5-110.5T459.5 7 325-17q-88 0-153 29T71.5 98 36 235h65q0-62 27.5-105.5t78-66T327 41q61 0 105.5 17t69 49.5T526 186q0 44-23 72t-69 46-125 34q-108 21-162.5 48t-72 60.5T57 531q0 63 32.5 108t90 68.5T311 731q80 0 137.5-26z"/><glyph glyph-name="uni10FC" unicode="ჼ" horiz-adv-x="365" d="M124.5 406q-29.5 18-45 52T64 538v174q0 58 28.5 82.5T182 819h112v-41H186q-39 0-57-15.5T111 711v-85h2q11 25 34 41t57 16q36 0 63-18t42-51 15-76q0-70-34.5-110T194 388q-40 0-69.5 18zm129 55q21.5 29 21.5 76 0 44-21 73.5T195 640q-40 0-62-27.5T111 537q0-47 22.5-76t60.5-29 59.5 29z"/><glyph glyph-name="uni10FE" unicode="ჾ" horiz-adv-x="523" d="M145.5 14.5Q96 44 70 94T44 204q0 48 19.5 94.5t57 82T209 430v2q-44 10-84 14t-85 4v53q67 0 120-10.5T261 463q48 19 101 29.5T482 503v-53q-45 0-85-4t-84-14v-2q51-14 88.5-49.5t57-82T478 204q0-60-26-110t-75.5-79.5T261-15 145.5 14.5zm197.5 46Q378 83 396.5 121t18.5 83q0 40-16 80t-50.5 75-87.5 57q-53-22-87.5-57T123 284t-16-80q0-45 18.5-83T179 60.5 261 38t82 22.5z"/><glyph glyph-name="uni10FF" unicode="ჿ" horiz-adv-x="551" d="M151 19q-53 34-81 94.5T42 250q0 74 27.5 134t80 95.5T275 515q71 0 124-34.5t81.5-94.5T509 250q0-74-27.5-134.5T401 20 275-15q-71 0-124 34zm216.5 48.5q38.5 29.5 58 78T445 250q0 57-20 105.5T366.5 433 274 462q-53 0-91.5-29.5t-58-77.5T105 250t19.5-105.5 58-77.5T275 38t92.5 29.5z"/><glyph glyph-name="uni10FE.case" horiz-adv-x="576" d="M417 650.5q-46-9.5-82-26.5v-3q58-31 102.5-83.5t70-123T533 264t-32-143.5T412.5 21 287-15 162 21t-88.5 99.5T41 264t25.5 150.5 70.5 123T240 621v3q-36 17-82.5 26.5T71 660v56q101 0 216-59 53 28 108 43.5T503 716v-56q-40 0-86-9.5zm-261.5-190Q107 375 107 269q0-65 23-117t64-81.5T287 41t93.5 29.5T445 152t23 117q0 106-48.5 191.5T287 596q-83-50-131.5-135.5z"/><glyph glyph-name="uni10FF.case" horiz-adv-x="691" d="M187 31.5Q118 78 79.5 162.5T41 357q0 107 37.5 191.5T185 681t160 48q89 0 157.5-45.5t107-129.5T648 357t-39.5-197.5T500 30 345-15q-89 0-158 46.5zm282.5 49q53.5 39.5 83 111T582 357q0 92-28.5 163.5t-82.5 112T344 673q-72 0-125.5-40.5t-82-112T108 357q0-91 28-162.5T217.5 82 345 41q71 0 124.5 39.5z"/><glyph glyph-name="uni00AD" unicode="­" horiz-adv-x="370" d="M310 246H60v58h250v-58z"/><glyph glyph-name="guillemotleft" unicode="«" horiz-adv-x="426" d="M193 364l-94-89 94-89v-67L60 244v62l133 125v-67zm161 0l-94-89 94-89v-67L221 244v62l133 125v-67z"/><glyph glyph-name="guillemotright" unicode="»" horiz-adv-x="426" d="M205 244L72 119v67l94 89-94 89v67l133-125v-62zm161 0L233 119v67l94 89-94 89v67l133-125v-62z"/><glyph glyph-name="uni10FB" unicode="჻" horiz-adv-x="502" d="M181 394H97v106h84V394zm264-197h-84v106h84V197zM181 0H97v106h84V0z"/><glyph glyph-name="uni10FB.case" horiz-adv-x="501" d="M176 561V445h-75v116h75zm262-197V249h-75v115h75zM176 165V50h-75v115h75z"/><glyph glyph-name="uni00A0" horiz-adv-x="278"/><glyph glyph-name="uniFEFF" horiz-adv-x="0"/><glyph glyph-name="Euro" unicode="€" horiz-adv-x="556" d="M557 635l-27-59q-65 79-160 79-87 0-143-58.5T151 434h333l-18-45H145q-3-25-3-36 0-17 1-23h304l-19-45H146q16-117 73.5-180.5T367 41q52 0 91 21t83 65V50q-77-65-176-65-78 0-138.5 35.5t-98 103T81 285H15l19 45h44q-1 8-1 23l2 36H15l18 45h51q15 83 52.5 145.5t97 97.5T370 712q125 0 187-77z"/><glyph glyph-name="Delta" unicode="∆" horiz-adv-x="630" d="M637 0H-7l288 714h76zm-96 58L316 646 88 58h453z"/><glyph glyph-name="Omega" unicode="Ω" horiz-adv-x="759" d="M555 682q76-47 117.5-124.5T714 392q0-102-43-186.5T543 62v-4h182V0H461v60q94 66 139 146.5T645 392q0 78-32.5 141.5T520 634t-139 37q-81 0-141.5-34.5t-94-97.5T112 393q0-102 46.5-185T300 60V0H34v58h178v4q-82 57-125.5 141.5T43 392q0 96 43 173t120 120.5T381 729t174-47z"/><glyph glyph-name="uni2219" unicode="∙" horiz-adv-x="278" d="M168 367q14-8 22-22t8-30q0-15-8-28.5T168.5 265t-29.5-8-29.5 8.5T88 288t-8 29 8.5 28.5 22 21.5 28.5 8 29-8z"/><glyph glyph-name="uni2215" unicode="∕" horiz-adv-x="167" d="M334 725L-118-34h-48l453 759h47z"/><glyph glyph-name="mu" unicode="µ" horiz-adv-x="537" d="M122 190q0-77 31-114.5T259 38q49 0 84 26.5t53.5 74T415 249v267h63V0h-58v93h-2q-24-51-72-79.5T240-15q-34 0-65 9t-53 26v-211H59v707h63V190z"/><glyph glyph-name="uni2113" unicode="ℓ" horiz-adv-x="500" d="M336.5 706.5q22.5-14.5 35-42T384 598q0-141-166-321V118q0-45 21-68.5T296 26q23 0 46 10.5T385 66l21-28Q380 13 349.5-.5T286-14q-56 0-87.5 32.5T167 109v131l-60-65-22 28 82 84v266q0 48 14.5 86.5t41 60T285 721q29 0 51.5-14.5zM309 465q32 70 32 128 0 26-7.5 47t-21 32.5T284 684q-31 0-48.5-34.5T218 561V325q59 70 91 140z"/><glyph glyph-name="uni2116" unicode="№" horiz-adv-x="969" d="M524 110h2v581h68V0h-76L142 581h-2V0H72v691h76zm346 294q32-18 48.5-51t16.5-76-17.5-76-49.5-51-74-18q-43 0-75 18t-49 50.5-17 76.5q0 43 17.5 76t49.5 51 74 18q44 0 76-18zM731 205q24-27 63-27 40 0 63.5 26t23.5 73q0 45-24 72t-64 27q-39 0-62.5-26T707 277q0-45 24-72zM935 0H655v53h280V0z"/></font>
</defs>
</svg>
