<svg><defs><font id="HelveticaNeueLTGEO-35Thin" horiz-adv-x="556"><font-face font-family="Helvetica Neue LT GEO 35 Thin" font-weight="250" panose-1="2 11 4 3 2 2 2 2 2 4" ascent="765" descent="-235" x-height="514" cap-height="714" bbox="-169 -217 1041 949" underline-thickness="50" underline-position="-75" unicode-range="U+000D-U+FEFF"/><glyph glyph-name=".notdef" horiz-adv-x="512" d="M512 0H0v718h512V0zm-50 667H50V50h412v617zm-139.5-74.5Q351 576 367 546t16-68q0-37-15-63.5T319 357q-19-17-27.5-27T278 308q-7-17-7-74h-46q-1 7-1.5 17.5T223 271q0 26 7 46t20 37.5 36 40.5q4 5 17.5 18t21 28 7.5 33q0 23-10 42.5t-27.5 31T256 559q-34 0-55-24t-27-71l-50 8q7 67 41.5 102t93.5 35q35 0 63.5-16.5zM278 184v-67h-56v67h56z"/><glyph glyph-name="NULL" horiz-adv-x="0"/><glyph glyph-name="NULL" horiz-adv-x="0"/><glyph glyph-name="CR" horiz-adv-x="278"/><glyph glyph-name="space" horiz-adv-x="278"/><glyph glyph-name="exclam" unicode="!" horiz-adv-x="259" d="M154 714V473l-12-290h-24l-12 290v241h48zm1-611V0h-51v103h51z"/><glyph glyph-name="quotedbl" unicode="&quot;" horiz-adv-x="315" d="M118 714V485H80v229h38zm117 0V485h-38v229h38z"/><glyph glyph-name="numbersign" unicode="#" d="M245 690l-31-220h169l31 220h33l-31-220h110v-33H411l-24-173h111v-33H382L350 0h-33l32 231H180L148 0h-33l32 231H30v33h122l24 173H58v33h123l31 220h33zm109-426l24 173H209l-24-173h169z"/><glyph glyph-name="dollar" unicode="$" d="M290 780v-49q223-5 232-220h-38q-5 91-52.5 136T290 694V384l73-18q91-22 133.5-66T539 183q0-94-65-145T290-17v-88h-32v88Q133-6 72.5 56T12 235h38q1-98 54-153t154-61v333l-70 17q-74 18-114 58.5T34 541q0 87 58 136.5T258 731v49h32zM105 451q33-35 153-58v300q-92-4-139-43T72 541q0-55 33-90zM403.5 40Q451 59 476 95.5t25 87.5q0 58-38 94t-112 55l-61 15V21q66 0 113.5 19z"/><glyph glyph-name="percent" unicode="%" horiz-adv-x="778" d="M643 714L178-24h-40l465 738h40zm-348.5-34.5Q332 657 352 616t20-93q0-49-21-89.5t-59-64-86-23.5-85.5 23-59 63.5T40 523q0 51 21 92t59 64 87 23q50 0 87.5-22.5zM95 451q17-33 46-52.5t64-19.5q37 0 66.5 19.5t46 52.5 16.5 72q0 41-15.5 74T274 649.5 205 669q-37 0-66-19t-45-52.5T78 523q0-39 17-72zm564.5-129.5q37.5-22.5 58-63T738 165q0-50-21.5-90t-59-63.5T572-12t-86 23.5-59 64-21 89.5q0 50 20.5 91t58.5 64.5 88 23.5q49 0 86.5-22.5zM460.5 94Q477 61 506 41t65-20q38 0 67.5 20.5T684 95t16 70q0 42-15.5 75T640 292t-69 19q-37 0-66-19t-45-52.5-16-74.5q0-38 16.5-71z"/><glyph glyph-name="ampersand" unicode="&amp;" horiz-adv-x="593" d="M458 106q-35-58-87.5-88T254-12q-62 0-109.5 21.5T70 72t-27 98q0 52 25 91t60.5 66T229 394q-61 73-81 114-16 36-16 71 0 34 21 62.5t56 44.5 73 16q42 0 76-15t54-43 20-65q0-46-23-83t-67-70l-58-42 170-209q24 61 24 119h38q-2-38-10.5-74.5T480 143L596 0h-51zM327 458q28 23 47.5 53.5T394 579q0 24-15.5 44.5t-41.5 33-56 12.5q-28 0-53.5-12T186 624t-16-45q0-27 12.5-55t39.5-60q28-34 40-52 37 23 65 46zM161.5 308.5Q129 285 105 250t-24-79q0-43 23.5-77.5T168 40t87-19q38 0 73 15t62 41 43 60L249 366q-55-34-87.5-57.5z"/><glyph glyph-name="quotesingle" unicode="'" horiz-adv-x="204" d="M121 714V485H83v229h38z"/><glyph glyph-name="parenleft" unicode="(" horiz-adv-x="241" d="M135.5 505.5Q103 387 103 266q0-120 32-235.5T228-184h-34Q132-81 98.5 34.5T65 266q0 118 34 238t97 227h35q-63-107-95.5-225.5z"/><glyph glyph-name="parenright" unicode=")" horiz-adv-x="241" d="M142.5 513.5Q176 397 176 281q0-120-33.5-238.5T45-184H10Q72-82 105 39t33 242-31.5 235T13 731h34q62-101 95.5-217.5z"/><glyph glyph-name="asterisk" unicode="*" horiz-adv-x="352" d="M190 714V584l122 41 10-28-123-41 76-102-22-20-77 106-80-106-24 20 81 102-124 41 9 28 123-41v130h29z"/><glyph glyph-name="plus" unicode="+" horiz-adv-x="600" d="M319 504V271h233v-38H319V0h-38v233H48v38h233v233h38z"/><glyph glyph-name="comma" unicode="," horiz-adv-x="278" d="M164 103V-3q0-44-16-77t-48-46v33q16 7 25 32.5T134 0h-21v103h51z"/><glyph glyph-name="hyphen" unicode="-" horiz-adv-x="352" d="M283 253H69v38h214v-38z"/><glyph glyph-name="period" unicode="." horiz-adv-x="278" d="M164 103V0h-51v103h51z"/><glyph glyph-name="slash" unicode="/" horiz-adv-x="333" d="M346 731L28-17h-41l318 748h41z"/><glyph glyph-name="zero" unicode="0" d="M415 659.5Q471 617 499.5 537T528 345q0-111-28.5-191.5T415 30.5 278-12q-82 0-138 43T56 154 28 345t28 191 84 123 138 43q81 0 137-42.5zM90 173q24-73 71.5-112.5T278 21q68 0 116 39.5t72 112T490 345q0 81-19 154t-66.5 121.5T277 669q-68 0-115.5-40T90 516 66 345q0-99 24-172z"/><glyph glyph-name="one" unicode="1" d="M331 0h-38v616q-36-37-81.5-59T108 528v33q60 9 109 42t80 87h34V0z"/><glyph glyph-name="two" unicode="2" d="M393.5 679.5q48.5-22.5 75-65.5T495 513q0-68-41-127.5T319 262l-103-70Q101 113 94 38h412V0H46q3 59 33 106.5t73 83.5 111 81q63 42 100.5 71.5t65.5 73 28 98.5q0 44-23 79.5T372 649t-85 20q-57 0-98.5-25.5T124 570t-23-113H63q6 123 60.5 184T281 702q64 0 112.5-22.5z"/><glyph glyph-name="three" unicode="3" d="M389 681.5q50-20.5 78-59.5t28-94q0-42-17-76t-48-55.5-70-26.5v-2q47-5 81-30t52-63.5 18-83.5q0-62-29.5-108T398 12.5 274-12q-74 0-127.5 26.5T64.5 91 36 210v18h38v-13q0-59 24-102.5T167.5 45 274 21q56 0 101.5 21.5t71.5 60 26 88.5q0 79-54 119.5T262 351q-15 0-21-1v33q6-1 18-1 94 1 146 39t52 107q0 43-25 75t-67 49-91 17q-83 0-130.5-50.5T91 472H53q0 69 28 121.5t78.5 80.5T274 702q65 0 115-20.5z"/><glyph glyph-name="four" unicode="4" d="M403 690V209h116v-33H403V0h-38v176H29v38l336 476h38zM67 209h298v429h-2z"/><glyph glyph-name="five" unicode="5" d="M479 657H160l-59-275 2-2q30 41 74 62t97 21q67 0 120.5-30.5t83.5-84T508 228q0-70-30.5-124.5t-84-85T274-12 154 14 68.5 87.5 37 197v14h38v-9q0-53 27-94t72.5-64T274 21t99 27 71 74 26 106q0 55-25 101t-70 73.5T274 430q-57 0-100.5-24T97 333H58l72 357h349v-33z"/><glyph glyph-name="six" unicode="6" d="M399.5 680.5Q445 659 473 618t34-98h-38q-8 46-33 79.5T375 651t-79 18q-105 0-160.5-92.5T80 310l2-2q16 46 48 79.5t73.5 51T288 456q65 0 118-30t83-84 30-122q0-64-29.5-117t-82-84T288-12q-122 0-184 82.5T42 312q0 188 64.5 289T296 702q58 0 103.5-21.5zM119 119.5q26-45.5 70.5-72T288 21q53 0 97.5 26.5t70 72T481 220q0 53-25 100t-69.5 75-99.5 28-99.5-27.5-69.5-74T93 220t26-100.5z"/><glyph glyph-name="seven" unicode="7" d="M501 652Q394 535 340 445q-56-91-89.5-201T204 0h-44q10 130 43.5 238T300 447t163 210H56v33h445v-38z"/><glyph glyph-name="eight" unicode="8" d="M392 682q48-20 73.5-59t25.5-94q0-60-32.5-99.5T364 378v-2q49-6 83-30t52-62 18-86q0-66-29.5-113.5t-83.5-72T278-12 152 12.5t-83.5 72T39 198q0 74 40.5 121.5T192 376v2q-62 13-94.5 52.5T65 529q0 56 26 95t74 58.5T278 702q66 0 114-20zM125 454.5q22-30.5 61.5-46.5t91.5-16q53 0 92.5 16.5t61 47.5 21.5 73q0 67-45.5 103.5T277 669q-83 0-128.5-36.5T103 529q0-44 22-74.5zM102.5 102q25.5-40 71-60.5T278 21q60 0 105.5 21.5T454 104t25 94q0 51-24.5 87t-70 55T277 359q-61 0-106.5-19T101 285t-24-87q0-56 25.5-96z"/><glyph glyph-name="nine" unicode="9" d="M459.5 621Q520 540 520 379q0-190-64.5-290.5T266-12q-60 0-105.5 22T88 73t-33 97h38q9-47 33-80.5t60-51T266 21q103 0 159 89.5T482 372l-2 2q-26-66-78-103t-123-37q-68 0-121 30t-82.5 83.5T46 470q0 66 29.5 119t83 83T279 702q120 0 180.5-81zm-350-251q25.5-47 70.5-75t99-28q55 0 99.5 27t70 73.5T474 470q0 53-25 99t-70 73-101 27q-53 0-97.5-27T110 569.5 84 470q0-53 25.5-100z"/><glyph glyph-name="colon" unicode=":" horiz-adv-x="278" d="M164 514V411h-51v103h51zm0-411V0h-51v103h51z"/><glyph glyph-name="semicolon" unicode=";" horiz-adv-x="278" d="M164 514V411h-51v103h51zm0-411V-3q0-45-16-78t-48-45v33q16 7 25 31t9 62h-21v103h51z"/><glyph glyph-name="less" unicode="&lt;" horiz-adv-x="600" d="M554 472L79 254 554 34V-8L46 228v52l508 234v-42z"/><glyph glyph-name="equal" unicode="=" horiz-adv-x="600" d="M552 331H48v38h504v-38zm0-194H48v38h504v-38z"/><glyph glyph-name="greater" unicode="&gt;" horiz-adv-x="600" d="M554 278v-52L46-8v42l475 218L46 472v42z"/><glyph glyph-name="question" unicode="?" horiz-adv-x="519" d="M366.5 710q44.5-21 69.5-61t25-97q0-36-10-65t-31-56-58-58q-35-30-54-59.5t-26.5-61T274 181h-38v3q0 63 21.5 111.5T328 390q51 47 73 84t22 78q0 45-20.5 76.5t-57 48T262 693q-56 0-96.5-24T103 600 81 493H43q0 75 27 128.5t77 81.5 118 28q57 0 101.5-21zM282 103V0h-51v103h51z"/><glyph glyph-name="at" unicode="@" horiz-adv-x="800" d="M581 693q78-38 125.5-108.5T754 420q0-51-19.5-104.5T679 219q-37-43-76.5-65T525 132q-29 0-47 18.5T459 203h-2q-50-71-133-71-37 0-66 19.5t-46 54-17 77.5q0 66 29.5 135T308 533.5 431 580q44 0 74-25.5t38-65.5h2l23 71h41L505 241q-8-26-8-37 0-14 11.5-24t28.5-10q45 0 86.5 40t67 99.5T716 423q0 77-41.5 140T564 662t-147 36q-91 0-167.5-47.5t-121-127T84 353q0-69 26-129t75-109q46-46 107-72.5T419 16q80 0 153.5 40T694 168h44q-29-55-78.5-97t-112-65T419-17q-100 0-186 49T96.5 167 46 360q0 98 49.5 183.5t134 136.5T415 731q88 0 166-38zM246 223.5q13-27.5 36.5-43T335 165q45 0 87.5 44T491 316t26 113q0 56-23.5 87T424 547q-53 0-97-42t-69-103.5T233 287q0-36 13-63.5z"/><glyph glyph-name="A" unicode="A" horiz-adv-x="593" d="M323 714L605 0h-47l-90 229H126L35 0h-47l287 714h48zM140 267h314L301 671h-2z"/><glyph glyph-name="B" unicode="B" horiz-adv-x="630" d="M472 692q50-22 76-64t26-99q0-37-16.5-69.5t-48-54.5-74.5-28l2-2q49-6 85.5-30.5t56-62T598 200q0-63-30.5-108t-86-68.5T354 0H63v714h291q68 0 118-22zm-25-284.5q40 17.5 61.5 50.5t21.5 79q0 68-48 103.5T348 676H107V390h247q53 0 93 17.5zm53-328Q554 121 554 200q0 74-54 113t-146 39H107V38h247q92 0 146 41.5z"/><glyph glyph-name="C" unicode="C" horiz-adv-x="704" d="M511.5 704q60.5-27 99.5-79t53-124h-45q-9 58-44 101.5t-87 67T376 693q-90 0-157.5-45t-103-122T80 357q0-88 34-165T214.5 68 375 21q67 0 124 34.5t92 93.5 40 129h44q-7-79-46-146.5t-105-108T375-17q-104 0-181 49.5T76.5 167 36 357q0 102 39.5 187T192 680t184 51q75 0 135.5-27z"/><glyph glyph-name="D" unicode="D" horiz-adv-x="667" d="M477 674q73-40 111.5-119.5T627 358q0-112-39.5-192.5T474 42.5 299 0H63v714h238q103 0 176-40zM452.5 76.5Q517 115 550 187t33 171q0 157-72 237.5T290 676H107V38h190q91 0 155.5 38.5z"/><glyph glyph-name="E" unicode="E" horiz-adv-x="560" d="M543 676H107V390h410v-38H107V38h441V0H63v714h480v-38z"/><glyph glyph-name="F" unicode="F" horiz-adv-x="514" d="M511 676H107V390h364v-38H107V0H63v714h448v-38z"/><glyph glyph-name="G" unicode="G" horiz-adv-x="741" d="M510 703q63-28 105.5-81.5T671 493h-42q-26 95-92 147.5T375 693q-90 0-157-45.5t-102-123T81 353t34-169T215.5 65 375 21q80 0 141.5 33.5T612 150t34 144v18H382v38h301V0h-38v152h-2q-18-52-57.5-90t-95-58.5T373-17q-102 0-178 47.5T78 162 37 353q0 98 38.5 184.5t114.5 140T374 731q73 0 136-28z"/><glyph glyph-name="H" unicode="H" horiz-adv-x="670" d="M107 714V390h456v324h44V0h-44v352H107V0H63v714h44z"/><glyph glyph-name="I" unicode="I" horiz-adv-x="170" d="M107 714V0H63v714h44z"/><glyph glyph-name="J" unicode="J" horiz-adv-x="481" d="M418 714V196q0-109-48-161T222-17q-68 0-112.5 22.5T42.5 78 20 210v17h44q-1-10-1-32 0-83 34-128.5T217 21q57 0 91.5 18t50 57.5T374 201v513h44z"/><glyph glyph-name="K" unicode="K" horiz-adv-x="613" d="M107 714V303l449 411h57L287 417 633 0h-55L255 387 107 252V0H63v714h44z"/><glyph glyph-name="L" unicode="L" horiz-adv-x="500" d="M107 714V38h405V0H63v714h44z"/><glyph glyph-name="M" unicode="M" horiz-adv-x="809" d="M405 49h2l276 665h63V0h-44v660h-2L428 0h-44L109 660h-2V0H63v714h63z"/><glyph glyph-name="N" unicode="N" horiz-adv-x="678" d="M118 714L569 59h2v655h44V0h-52L109 660h-2V0H63v714h55z"/><glyph glyph-name="O" unicode="O" horiz-adv-x="741" d="M549 683q77-48 119-133t42-193q0-105-40-190T553 32.5 371-17q-103 0-180 48.5T72.5 165 31 357q0 103 39.5 188T187 680.5 371 731q101 0 178-48zM109.5 190q34.5-77 102-123T371 21q88 0 155 44t103.5 120.5T666 357q0 89-34 166T531 646.5 370 693q-87 0-154-43.5t-104-120T75 357q0-90 34.5-167z"/><glyph glyph-name="P" unicode="P" horiz-adv-x="591" d="M479 691.5q46-22.5 71-67T575 515q0-96-59-146.5T351 318H107V0H63v714h307q63 0 109-22.5zm-29-316q38 19.5 59.5 55.5t21.5 84q0 47-19 83.5t-57 57-93 20.5H107V356h255q50 0 88 19.5z"/><glyph glyph-name="Q" unicode="Q" horiz-adv-x="741" d="M549.5 683Q626 635 668 550t42-193q0-86-27-159T603 74L714-6l-23-31-118 85q-85-65-202-65-101 0-178 47.5T73.5 163 31 357q0 103 40 188.5T188 681t183 50q102 0 178.5-48zm-441-491Q142 115 209 68t162-47q99 0 167 53l-108 77 23 31 115-83q47 47 72.5 113.5T666 357q0 89-34 166T531 646.5 370 693q-88 0-155-44T111.5 528.5 75 357q0-88 33.5-165z"/><glyph glyph-name="R" unicode="R" horiz-adv-x="630" d="M529 667.5Q587 621 587 530q0-47-18.5-86t-53-64-81.5-33v-2q50-7 81-28.5t46-63T576 145v-34q0-90 21-111h-49q-8 14-13 40-4 24-4 91 0 57-3 76-9 58-48 88t-115 30H107V0H63v714h301q107 0 165-46.5zm-70-286q40 18.5 62 55.5t22 90q0 72-49 110.5T355 676H107V363h258q54 0 94 18.5z"/><glyph glyph-name="S" unicode="S" horiz-adv-x="630" d="M496.5 674Q568 617 573 510h-44q-2 58-30.5 99T419 671.5 300 693q-56 0-100.5-17.5t-70-52T104 541q0-32 11.5-54.5T150 445q23-18 69.5-33T342 383q140-25 195-73 54-46 54-126 0-67-36-112T461.5 5 339-17q-94 0-161 28T75 94.5 39 231v5h44v-14q0-65 31-110t88.5-68T339 21q52 0 99.5 17t78 53.5T547 184q0 65-50 103-51 38-187 63-75 14-124 31.5T111 422q-51 45-51 119 0 59 31.5 102t86 65.5T300 731q125 0 196.5-57z"/><glyph glyph-name="T" unicode="T" horiz-adv-x="519" d="M533 676H281V0h-44v676H-14v38h547v-38z"/><glyph glyph-name="U" unicode="U" horiz-adv-x="672" d="M107 714V281q0-124 57-192t168-68q119 0 176 64.5T565 281v433h44V281q0-146-69.5-222T331-17q-132 0-200 75T63 281v433h44z"/><glyph glyph-name="V" unicode="V" d="M32 714L277 38h2l247 676h44L303 0h-51L-14 714h46z"/><glyph glyph-name="W" unicode="W" horiz-adv-x="889" d="M225 47h2l189 667h55L663 47h2l183 667h47L690 0h-50L444 676h-2L249 0h-49L-6 714h45z"/><glyph glyph-name="X" unicode="X" d="M52 714l226-314 231 314h50L307 367 573 0h-53L278 334 35 0h-52l268 367L1 714h51z"/><glyph glyph-name="Y" unicode="Y" horiz-adv-x="574" d="M29 714l258-378 259 378h49L308 299V0h-44v299L-21 714h50z"/><glyph glyph-name="Z" unicode="Z" horiz-adv-x="537" d="M529 676L45 38h493V0H-1v38l482 638H28v38h501v-38z"/><glyph glyph-name="bracketleft" unicode="[" horiz-adv-x="241" d="M231 698h-99v-849h99v-33H94v915h137v-33z"/><glyph glyph-name="backslash" unicode="\" horiz-adv-x="333" d="M28 731L346-17h-41L-13 731h41z"/><glyph glyph-name="bracketright" unicode="]" horiz-adv-x="241" d="M147-184H10v33h99v849H10v33h137v-915z"/><glyph glyph-name="asciicircum" unicode="^" horiz-adv-x="600" d="M327 690l234-453h-42L301 657 81 237H39l236 453h52z"/><glyph glyph-name="underscore" unicode="_" horiz-adv-x="500" d="M500-125H0v50h500v-50z"/><glyph glyph-name="grave" unicode="`" horiz-adv-x="167" d="M21 730l120-140h-37L-30 730h51z"/><glyph glyph-name="a" unicode="a" horiz-adv-x="500" d="M391 490.5q44-35.5 44-94.5V79q0-46 34-46 9 0 28 3V4q-16-4-31-4-37 0-53 17t-16 52v33h-2q-21-53-73-83.5T204-12q-84 0-128 36.5T32 133q0 67 43 104 27 24 70.5 35.5T245 287q104 7 127 24 13 9 19.5 24.5T398 385q0 26-5.5 40.5T375 454q-17 20-48.5 29.5T255 493q-70 0-112-34.5T97 356H59q4 83 53.5 126.5T257 526q90 0 134-35.5zm-286-440Q140 21 205 21q94 0 144 55 24 27 36 61t12 69v86q-11-12-26-18t-41.5-9.5T247 256q-52-5-81.5-12T114 223q-22-13-33-36.5T70 133q0-53 35-82.5z"/><glyph glyph-name="b" unicode="b" d="M103 714V405h2q14 37 43 64.5t68 42 84 14.5q69 0 119.5-31.5t77-90T523 269q0-94-29-157t-80-93.5T299-12q-52 0-93 19.5t-66.5 49T105 115h-2V0H65v714h38zm24.5-575Q151 83 195 52t105-31q58 0 100 32t63.5 88T485 269q0 63-23 114t-65 80.5-99 29.5q-60 0-103.5-27t-67-77.5T104 269q0-74 23.5-130z"/><glyph glyph-name="c" unicode="c" horiz-adv-x="519" d="M373 506.5q46-19.5 74.5-58T481 355h-38q-4 43-27 74t-61 47.5-86 16.5q-58 0-103-30.5T96 379 71 262q0-73 23.5-127.5t68-84T269 21q46 0 84 20t63 56 32 84h38q-8-60-38-103.5T371.5 11 269-12q-74 0-127 33.5T61 117 33 262q0 75 29 135t82.5 94.5T269 526q58 0 104-19.5z"/><glyph glyph-name="d" unicode="d" d="M491 714V0h-38v110h-2q-34-63-82-92.5T254-12q-69 0-119 33t-76.5 94T32 256q0 82 27.5 143t79 94T261 526q45 0 83.5-16t66-44.5T451 399h2v315h38zM91 139.5q21-53.5 64.5-86T262 21q58 0 101 30.5t66 84T452 256q0 60-20 114t-63.5 88.5T260 493q-60 0-103-29.5t-65-83T70 256q0-63 21-116.5z"/><glyph glyph-name="e" unicode="e" horiz-adv-x="519" d="M381.5 494q50.5-32 78-90T487 268l-1-16H71q0-71 23.5-123t66-80T260 21q147 0 184 153h38q-19-92-76-139T259-12q-69 0-120 32t-79 91.5T32 253q0 79 28 141t80.5 97T265 526q66 0 116.5-32zm40-99q-23.5 47-64 72.5T264 493q-51 0-92.5-24T104 398 72 285h376q-3 63-26.5 110z"/><glyph glyph-name="f" unicode="f" horiz-adv-x="241" d="M250 717v-33q-6 1-20.5 3t-24.5 2q-39 0-57-18t-18-52V514h107v-33H130V0H92v481H0v33h92v107q0 48 30.5 74.5T205 722q15 0 45-5z"/><glyph glyph-name="g" unicode="g" horiz-adv-x="537" d="M334.5 511.5q37.5-14.5 65-41.5t41.5-63h2v107h38V23q0-105-55-162t-166-57q-96 0-147 40T58-36h38q6-62 49.5-94.5T260-163q60 0 101 22.5T422.5-78 443 15v121h-2Q385 19 255 19q-70 0-120 31t-76 88-26 135q0 73 27.5 130.5t78 90T255 526q42 0 79.5-14.5zM93.5 158q22.5-50 64-78T255 52t98.5 28.5T419 159t23 114q0 65-23 114.5T353.5 465 254 493q-54 0-95.5-29T94 384.5 71 273q0-65 22.5-115z"/><glyph glyph-name="h" unicode="h" horiz-adv-x="519" d="M94 714V404h2q13 37 40.5 64.5T201 511t79 15q91 0 137-48t46-153V0h-38v330q0 82-37 122.5T279 493q-56 0-98-27t-64.5-75T94 282V0H56v714h38z"/><glyph glyph-name="i" unicode="i" horiz-adv-x="168" d="M103 714V611H65v103h38zm0-200V0H65v514h38z"/><glyph glyph-name="j" unicode="j" horiz-adv-x="168" d="M103 714V611H65v103h38zm0-200V-57q0-61-23.5-94T-5-184q-22 0-29 1v33q14-2 27-2 24 1 39 7.5T56-117t9 61v570h38z"/><glyph glyph-name="k" unicode="k" horiz-adv-x="463" d="M96 714V241l317 273h55L243 322 484 0h-52L213 293 96 194V0H58v714h38z"/><glyph glyph-name="l" unicode="l" horiz-adv-x="168" d="M103 714V0H65v714h38z"/><glyph glyph-name="m" unicode="m" horiz-adv-x="796" d="M360.5 497.5Q401 469 413 417h2q25 57 64.5 83t98.5 26q50 0 86.5-21t55.5-59.5 19-91.5V0h-38v357q0 43-15.5 73.5T642 477t-64 16q-49 0-85.5-23t-56-65-19.5-97V0h-38v357q0 43-15.5 74t-43 46.5T258 493q-45 0-82.5-24t-59-66T95 310V0H57v514h38V409h2q9 35 33.5 61.5t58 41T258 526q62 0 102.5-28.5z"/><glyph glyph-name="n" unicode="n" horiz-adv-x="519" d="M416 478q47-48 47-152V0h-38v330q0 82-37 122.5T279 493q-56 0-98-27t-64.5-76T94 277V0H56v514h38V404h2q13 37 40.5 64.5t65 42.5 78.5 15q89 0 136-48z"/><glyph glyph-name="o" unicode="o" horiz-adv-x="537" d="M392.5 491q53.5-35 82.5-96t29-138-29-138.5-82.5-96T268-12q-72 0-125.5 35t-82 96T32 257t29 138 82.5 96T268 526t124.5-35zM92 143.5Q114 89 159 55t109-34q58 0 103 30.5t70 84.5 25 121q0 66-24.5 120t-70 85T267 493q-58 0-102.5-31T95 377 70 257q0-59 22-113.5z"/><glyph glyph-name="p" unicode="p" d="M416.5 491.5Q469 457 496 396t27-140q0-83-27-143.5T417 20 292-12q-67 0-115.5 29.5T105 107h-2v-291H65v698h38V396h2q13 39 40 68t65 45.5 82 16.5q72 0 124.5-34.5zm-265-410Q199 21 292 21q60 0 103.5 29t66.5 82 23 124q0 69-23 122.5t-66.5 84T291 493q-58 0-100.5-28.5t-64.5-82T104 256q0-114 47.5-174.5z"/><glyph glyph-name="q" unicode="q" d="M371.5 495.5Q420 465 451 404h2v110h38v-698h-38v299h-2q-14-40-42.5-68.5T341.5 3 261-12q-72 0-123.5 33T59 115 32 258q0 81 27 141.5t77 93.5 118 33q69 0 117.5-30.5zM92 134.5Q114 81 157 51t104-30q60 0 103 31t65.5 85T452 258t-23 120.5-66 84T261 493t-102-30.5-66-84T70 258q0-70 22-123.5z"/><glyph glyph-name="r" unicode="r" horiz-adv-x="278" d="M294 479l-17 1q-46 0-88-23.5T120.5 388 94 282V0H56v514h38V400h3q10 34 38 60.5t68.5 41.5 84.5 15h6v-38z"/><glyph glyph-name="s" unicode="s" horiz-adv-x="481" d="M380.5 483.5Q430 441 430 362h-38q0 63-40 97t-112 34q-42 0-76-11.5t-53-34T92 394q0-22 8-38.5t25-29.5q18-14 55-25t107-25q56-11 90.5-29t51-46.5T445 130q0-46-25-77.5t-70-48T244-12q-60 0-106.5 21.5T64 72t-28 99h38q2-45 24.5-79t60-52.5T244 21q76 0 119.5 28t43.5 81q0 23-8.5 40.5T373 202q-35 27-140 46-68 12-107 31.5t-55.5 47T54 394q0 43 23.5 72.5t65 44.5 97.5 15q91 0 140.5-42.5z"/><glyph glyph-name="t" unicode="t" horiz-adv-x="259" d="M133 674V514h112v-33H133V118q0-43 19-64t65-21h27V0q-9-1-28-1-62 0-91.5 27.5T95 111v370H0v33h95v160h38z"/><glyph glyph-name="u" unicode="u" horiz-adv-x="519" d="M94 514V184q0-82 37-122.5T240 21q56 0 98 27.5t64.5 75.5T425 233v281h38V0h-38v110h-2q-14-39-42-66.5T315.5 2 238-12q-89 0-135.5 48.5T56 185v329h38z"/><glyph glyph-name="v" unicode="v" horiz-adv-x="444" d="M42 514L228 44h2l174 470h42L252 0h-47L-2 514h44z"/><glyph glyph-name="w" unicode="w" horiz-adv-x="704" d="M39 514L184 44h2l140 470h51L518 44h2l144 470h42L541 0h-47L353 466h-2L209 0h-48L-2 514h41z"/><glyph glyph-name="x" unicode="x" horiz-adv-x="444" d="M61 514l161-215 162 215h49L247 270 450 0h-52L222 241 42 0H-6l202 270L8 514h53z"/><glyph glyph-name="y" unicode="y" horiz-adv-x="444" d="M39 514L230 45l176 469h43L230-52q-25-63-42-88-12-17-27-26.5T122.5-180 61-184H49v33h8q43 0 67.5 11t39.5 32q13 19 45 111L-6 514h45z"/><glyph glyph-name="z" unicode="z" horiz-adv-x="426" d="M401 478L55 33h362V0H9v36l345 445H36v33h365v-36z"/><glyph glyph-name="braceleft" unicode="{" horiz-adv-x="333" d="M293 698h-49q-19 0-30-9.5T198 658t-5-57V434q0-123-70-158 36-25 53-63t17-101V-54q0-35 4.5-56t15.5-31 30-10h50v-33h-53q-44 0-64.5 28T155-70V99q0 74-18 113.5T83 254v38q36 1 54 41t18 114v168q0 58 20 87t67 29h51v-33z"/><glyph glyph-name="bar" unicode="|" horiz-adv-x="222" d="M130 786V-214H92V786h38z"/><glyph glyph-name="braceright" unicode="}" horiz-adv-x="333" d="M92 731q46 0 66-28.5t20-85.5V452q0-157 72-160v-38q-36-2-54-41.5T178 94V-70q0-58-20.5-86T93-184H40v33h50q28 0 39 22t11 75v163q0 65 17 105t53 62q-38 18-54 59.5T140 437v164q0 36-5 57t-16 30.5-30 9.5H40v33h52z"/><glyph glyph-name="asciitilde" unicode="~" horiz-adv-x="600" d="M470 219q-29-20-63-20-26 0-50 9t-63 27q-31 16-52 24t-41 8q-33 0-57.5-18.5T102 192l-29 30q26 45 54 64t68 19q31 0 57.5-9.5T314 268q30-15 51-23t43-8q25 0 50 21.5t42 53.5l28-28q-29-45-58-65z"/><glyph glyph-name="Agrave" unicode="À" horiz-adv-x="593" d="M323 714L605 0h-47l-90 229H126L35 0h-47l287 714h48zM140 267h314L301 671h-2zm67 653l120-140h-37L156 920h51z"/><glyph glyph-name="Aacute" unicode="Á" horiz-adv-x="593" d="M323 714L605 0h-47l-90 229H126L35 0h-47l287 714h48zM140 267h314L301 671h-2zm305 653L311 780h-37l120 140h51z"/><glyph glyph-name="Acircumflex" unicode="Â" horiz-adv-x="593" d="M323 714L605 0h-47l-90 229H126L35 0h-47l287 714h48zM140 267h314L301 671h-2zm180 653l116-140h-38l-98 115-97-115h-38l115 140h40z"/><glyph glyph-name="Atilde" unicode="Ã" horiz-adv-x="593" d="M323 714L605 0h-47l-90 229H126L35 0h-47l287 714h48zM140 267h314L301 671h-2zm128.5 614.5Q285 874 310 858q21-13 34-19.5t26-6.5q17 0 29 15t16 42h29q-5-44-25-67t-51-23q-16 0-31.5 7.5T300 828q-24 14-38.5 21t-30.5 7q-36 0-47-57h-29q2 26 13 46.5t28 32 37 11.5q19 0 35.5-7.5z"/><glyph glyph-name="Adieresis" unicode="Ä" horiz-adv-x="593" d="M323 714L605 0h-47l-90 229H126L35 0h-47l287 714h48zM140 267h314L301 671h-2zm103 629V793h-44v103h44zm158 0V793h-44v103h44z"/><glyph glyph-name="Aring" unicode="Å" horiz-adv-x="593" d="M323 714L605 0h-47l-90 229H126L35 0h-47l287 714h48zM140 267h314L301 671h-2zm210.5 669q22.5-13 35.5-36t13-50q0-28-13-51t-36-35.5-50-12.5q-28 0-50.5 13T214 799.5 201 850t13 50.5 35.5 35.5 50.5 13 50.5-13zm-113-122.5q9.5-16.5 26-26T300 778t36.5 10 26 26.5T372 850q0 20-10 36.5t-26.5 26T300 922t-35.5-9.5-26.5-26-10-36.5 9.5-36.5z"/><glyph glyph-name="AE" unicode="Æ" horiz-adv-x="870" d="M854 676H475V390h350v-38H475V38h380V0H431v254H163L31 0H-9l373 714h490v-38zM183 292h248v384h-47z"/><glyph glyph-name="Ccedilla" unicode="Ç" horiz-adv-x="704" d="M512.5 703.5Q573 676 612 624t51-123h-44q-9 58-43.5 101.5t-87 67T376 693q-91 0-158.5-45.5T115 525 80 357q0-90 34.5-167T216 67t159-46q67 0 123.5 34.5t92 93.5T631 278h44q-8-82-47.5-149t-105-106T375-17l-33-39 1-1q9 3 19.5 5t18.5 2q34 0 54-17.5t20-49.5q0-37-26-58t-72-21q-52 0-92 25l11 24q25-13 43-17.5t37-4.5q29 0 45 14t16 36q0 19-14.5 31T365-76q-12 0-22.5-2.5T316-88l-16 13 44 59q-90 8-159.5 55.5T75.5 169 36 357q0 101 39 186t116 136.5T376 731q76 0 136.5-27.5z"/><glyph glyph-name="Eth" unicode="Ð" horiz-adv-x="667" d="M477.5 673.5q72.5-40.5 111-120T627 358q0-112-39.5-192.5t-113-123T300 0H63v355h-76v33h76v326h239q103 0 175.5-40.5zM353 355H107V38h191q91 0 155 39t97 111 33 170q0 158-72.5 238T290 676H107V388h246v-33z"/><glyph glyph-name="Egrave" unicode="È" horiz-adv-x="560" d="M543 676H107V390h410v-38H107V38h441V0H63v714h480v-38zM215 920l120-140h-37L164 920h51z"/><glyph glyph-name="Eacute" unicode="É" horiz-adv-x="560" d="M543 676H107V390h410v-38H107V38h441V0H63v714h480v-38zM433 920L299 780h-37l120 140h51z"/><glyph glyph-name="Ecircumflex" unicode="Ê" horiz-adv-x="560" d="M543 676H107V390h410v-38H107V38h441V0H63v714h480v-38zM318 920l116-140h-38l-98 115-97-115h-38l115 140h40z"/><glyph glyph-name="Edieresis" unicode="Ë" horiz-adv-x="560" d="M543 676H107V390h410v-38H107V38h441V0H63v714h480v-38zM241 896V793h-44v103h44zm158 0V793h-44v103h44z"/><glyph glyph-name="Gbreve" unicode="Ğ" horiz-adv-x="741" d="M510 703q63-28 105.5-81.5T671 493h-42q-26 95-92 147.5T375 693q-90 0-157-45.5t-102-123T81 353t34-169T215.5 65 375 21q80 0 141.5 33.5T612 150t34 144v18H382v38h301V0h-38v152h-2q-18-52-57.5-90t-95-58.5T373-17q-102 0-178 47.5T78 162 37 353q0 98 38.5 184.5t114.5 140T374 731q73 0 136-28zM307.5 845q27.5-22 68.5-22 38 0 64.5 23t34.5 64h33q-4-34-23.5-61.5t-48-43T376 790q-57 0-94.5 32T237 910h33q10-43 37.5-65z"/><glyph glyph-name="Igrave" unicode="Ì" horiz-adv-x="170" d="M107 714V0H63v714h44zM-7 920l120-140H76L-58 920h51z"/><glyph glyph-name="Iacute" unicode="Í" horiz-adv-x="170" d="M107 714V0H63v714h44zm123 206L96 780H59l120 140h51z"/><glyph glyph-name="Icircumflex" unicode="Î" horiz-adv-x="170" d="M107 714V0H63v714h44zm-2 206l116-140h-38L85 895l-97-115h-38L65 920h40z"/><glyph glyph-name="Idieresis" unicode="Ï" horiz-adv-x="170" d="M107 714V0H63v714h44zM28 896V793h-44v103h44zm158 0V793h-44v103h44z"/><glyph glyph-name="Idotaccent" unicode="İ" horiz-adv-x="170" d="M107 714V0H63v714h44zm0 182V793H63v103h44z"/><glyph glyph-name="Lslash" unicode="Ł" horiz-adv-x="500" d="M107 714V331l235 143v-36L107 296V38h405V0H63v269l-85-53v38l85 51v409h44z"/><glyph glyph-name="Ntilde" unicode="Ñ" horiz-adv-x="678" d="M118 714L569 59h2v655h44V0h-52L109 660h-2V0H63v714h55zm194.5 167.5Q329 874 354 858q21-13 34-19.5t26-6.5q17 0 29 15t16 42h29q-5-44-25-67t-51-23q-16 0-31.5 7.5T344 828q-24 14-38.5 21t-30.5 7q-36 0-47-57h-29q2 26 13 46.5t28 32 37 11.5q19 0 35.5-7.5z"/><glyph glyph-name="Ograve" unicode="Ò" horiz-adv-x="741" d="M549 683q77-48 119-133t42-193q0-105-40-190T553 32.5 371-17q-103 0-180 48.5T72.5 165 31 357q0 103 39.5 188T187 680.5 371 731q101 0 178-48zM109.5 190q34.5-77 102-123T371 21q88 0 155 44t103.5 120.5T666 357q0 89-34 166T531 646.5 370 693q-87 0-154-43.5t-104-120T75 357q0-90 34.5-167zM288 920l120-140h-37L237 920h51z"/><glyph glyph-name="Oacute" unicode="Ó" horiz-adv-x="741" d="M549 683q77-48 119-133t42-193q0-105-40-190T553 32.5 371-17q-103 0-180 48.5T72.5 165 31 357q0 103 39.5 188T187 680.5 371 731q101 0 178-48zM109.5 190q34.5-77 102-123T371 21q88 0 155 44t103.5 120.5T666 357q0 89-34 166T531 646.5 370 693q-87 0-154-43.5t-104-120T75 357q0-90 34.5-167zM506 920L372 780h-37l120 140h51z"/><glyph glyph-name="Ocircumflex" unicode="Ô" horiz-adv-x="741" d="M549 683q77-48 119-133t42-193q0-105-40-190T553 32.5 371-17q-103 0-180 48.5T72.5 165 31 357q0 103 39.5 188T187 680.5 371 731q101 0 178-48zM109.5 190q34.5-77 102-123T371 21q88 0 155 44t103.5 120.5T666 357q0 89-34 166T531 646.5 370 693q-87 0-154-43.5t-104-120T75 357q0-90 34.5-167zM391 920l116-140h-38l-98 115-97-115h-38l115 140h40z"/><glyph glyph-name="Otilde" unicode="Õ" horiz-adv-x="741" d="M549 683q77-48 119-133t42-193q0-105-40-190T553 32.5 371-17q-103 0-180 48.5T72.5 165 31 357q0 103 39.5 188T187 680.5 371 731q101 0 178-48zM109.5 190q34.5-77 102-123T371 21q88 0 155 44t103.5 120.5T666 357q0 89-34 166T531 646.5 370 693q-87 0-154-43.5t-104-120T75 357q0-90 34.5-167zm230 691.5Q356 874 381 858q21-13 34-19.5t26-6.5q17 0 29 15t16 42h29q-5-44-25-67t-51-23q-16 0-31.5 7.5T371 828q-24 14-38.5 21t-30.5 7q-36 0-47-57h-29q2 26 13 46.5t28 32 37 11.5q19 0 35.5-7.5z"/><glyph glyph-name="Odieresis" unicode="Ö" horiz-adv-x="741" d="M549 683q77-48 119-133t42-193q0-105-40-190T553 32.5 371-17q-103 0-180 48.5T72.5 165 31 357q0 103 39.5 188T187 680.5 371 731q101 0 178-48zM109.5 190q34.5-77 102-123T371 21q88 0 155 44t103.5 120.5T666 357q0 89-34 166T531 646.5 370 693q-87 0-154-43.5t-104-120T75 357q0-90 34.5-167zM314 896V793h-44v103h44zm158 0V793h-44v103h44z"/><glyph glyph-name="Oslash" unicode="Ø" horiz-adv-x="741" d="M603 640l68 74 26-24-70-76q41-50 62-115t21-142q0-104-40-189T553 33 371-17q-73 0-132.5 24T136 76L60-8 34 16l79 86q-40 51-61 116.5T31 357q0 103 40.5 188.5T189 681t182 50q138 0 232-91zM92.5 234.5Q110 178 143 134l432 475q-83 84-205 84-87 0-154-44T112 528.5 75 357q0-66 17.5-122.5zM371 21q87 0 154 43.5t104 120T666 357q0 66-18 124.5T598 582L165 108q81-87 206-87z"/><glyph glyph-name="OE" unicode="Œ" horiz-adv-x="1056" d="M482 709.5q54-21.5 91-61.5v66h466v-38H617V390h378v-38H617V38h424V0H573v66h-2q-30-38-86.5-60.5T360-17q-101 0-175.5 47.5t-114 132T31 354q0 103 40 189t116.5 137T368 731q60 0 114-21.5zM109.5 178q34.5-75 100-116T363 21q58 0 106 19t76 44.5 28 41.5v452q0 20-27 47.5T472.5 673 371 693q-91 0-158-44.5t-102.5-122T75 354q0-101 34.5-176z"/><glyph glyph-name="Scaron" unicode="Š" horiz-adv-x="630" d="M496.5 674Q568 617 573 510h-44q-2 58-30.5 99T419 671.5 300 693q-56 0-100.5-17.5t-70-52T104 541q0-32 11.5-54.5T150 445q23-18 69.5-33T342 383q140-25 195-73 54-46 54-126 0-67-36-112T461.5 5 339-17q-94 0-161 28T75 94.5 39 231v5h44v-14q0-65 31-110t88.5-68T339 21q52 0 99.5 17t78 53.5T547 184q0 65-50 103-51 38-187 63-75 14-124 31.5T111 422q-51 45-51 119 0 59 31.5 102t86 65.5T300 731q125 0 196.5-57zM222 920l97-115 98 115h38L339 780h-40L184 920h38z"/><glyph glyph-name="Scedilla" unicode="Ş" horiz-adv-x="630" d="M443 705.5q60-25.5 93.5-75T573 510h-44q-1 57-30 98.5t-80 63T300 693q-53 0-97.5-17T131 625t-27-84q0-60 46-96 24-19 70-33.5T342 383q140-25 194-72 55-47 55-127 0-66-35.5-111t-93-67.5T340-17h-23l-32-39 1-1q8 3 18.5 5t19.5 2q33 0 53-17.5t20-49.5q0-37-25.5-58T299-196q-51 0-91 25l11 24q22-12 41-17t38-5q29 0 45 14t16 36q0 19-14.5 31T308-76q-12 0-22.5-2.5T258-88l-15 13 44 61Q167-3 103 59T39 229v7h44v-15q0-64 31-109t89-68 136-23q52 0 99.5 17t78 53.5T547 184q0 65-48 102-24 19-70.5 34.5T311 350q-79 15-126 31.5T111 422q-51 45-51 119 0 59 31.5 102t86 65.5T300 731q83 0 143-25.5z"/><glyph glyph-name="Thorn" unicode="Þ" horiz-adv-x="593" d="M107 714V594h262q95 0 150.5-50T575 395q0-63-26.5-107.5t-76-67T354 198H107V0H63v714h44zm343-458.5q39 19.5 60 56t21 84.5-20 84.5-57 56-87 19.5H107V236h251q53 0 92 19.5z"/><glyph glyph-name="Ugrave" unicode="Ù" horiz-adv-x="672" d="M107 714V281q0-124 57-192t168-68q119 0 176 64.5T565 281v433h44V281q0-146-69.5-222T331-17q-132 0-200 75T63 281v433h44zm146 206l120-140h-37L202 920h51z"/><glyph glyph-name="Uacute" unicode="Ú" horiz-adv-x="672" d="M107 714V281q0-124 57-192t168-68q119 0 176 64.5T565 281v433h44V281q0-146-69.5-222T331-17q-132 0-200 75T63 281v433h44zm364 206L337 780h-37l120 140h51z"/><glyph glyph-name="Ucircumflex" unicode="Û" horiz-adv-x="672" d="M107 714V281q0-124 57-192t168-68q119 0 176 64.5T565 281v433h44V281q0-146-69.5-222T331-17q-132 0-200 75T63 281v433h44zm249 206l116-140h-38l-98 115-97-115h-38l115 140h40z"/><glyph glyph-name="Udieresis" unicode="Ü" horiz-adv-x="672" d="M107 714V281q0-124 57-192t168-68q119 0 176 64.5T565 281v433h44V281q0-146-69.5-222T331-17q-132 0-200 75T63 281v433h44zm172 182V793h-44v103h44zm158 0V793h-44v103h44z"/><glyph glyph-name="Yacute" unicode="Ý" horiz-adv-x="574" d="M29 714l258-378 259 378h49L308 299V0h-44v299L-21 714h50zm394 206L289 780h-37l120 140h51z"/><glyph glyph-name="Ydieresis" unicode="Ÿ" horiz-adv-x="574" d="M29 714l258-378 259 378h49L308 299V0h-44v299L-21 714h50zm202 182V793h-44v103h44zm158 0V793h-44v103h44z"/><glyph glyph-name="Zcaron" unicode="Ž" horiz-adv-x="537" d="M529 676L45 38h493V0H-1v38l482 638H28v38h501v-38zM176 920l97-115 98 115h38L293 780h-40L138 920h38z"/><glyph glyph-name="agrave" unicode="à" horiz-adv-x="500" d="M391 490.5q44-35.5 44-94.5V79q0-46 34-46 9 0 28 3V4q-16-4-31-4-37 0-53 17t-16 52v33h-2q-21-53-73-83.5T204-12q-84 0-128 36.5T32 133q0 67 43 104 27 24 70.5 35.5T245 287q104 7 127 24 13 9 19.5 24.5T398 385q0 26-5.5 40.5T375 454q-17 20-48.5 29.5T255 493q-70 0-112-34.5T97 356H59q4 83 53.5 126.5T257 526q90 0 134-35.5zm-286-440Q140 21 205 21q94 0 144 55 24 27 36 61t12 69v86q-11-12-26-18t-41.5-9.5T247 256q-52-5-81.5-12T114 223q-22-13-33-36.5T70 133q0-53 35-82.5zM174 730l120-140h-37L123 730h51z"/><glyph glyph-name="aacute" unicode="á" horiz-adv-x="500" d="M391 490.5q44-35.5 44-94.5V79q0-46 34-46 9 0 28 3V4q-16-4-31-4-37 0-53 17t-16 52v33h-2q-21-53-73-83.5T204-12q-84 0-128 36.5T32 133q0 67 43 104 27 24 70.5 35.5T245 287q104 7 127 24 13 9 19.5 24.5T398 385q0 26-5.5 40.5T375 454q-17 20-48.5 29.5T255 493q-70 0-112-34.5T97 356H59q4 83 53.5 126.5T257 526q90 0 134-35.5zm-286-440Q140 21 205 21q94 0 144 55 24 27 36 61t12 69v86q-11-12-26-18t-41.5-9.5T247 256q-52-5-81.5-12T114 223q-22-13-33-36.5T70 133q0-53 35-82.5zM392 730L258 590h-37l120 140h51z"/><glyph glyph-name="acircumflex" unicode="â" horiz-adv-x="500" d="M391 490.5q44-35.5 44-94.5V79q0-46 34-46 9 0 28 3V4q-16-4-31-4-37 0-53 17t-16 52v33h-2q-21-53-73-83.5T204-12q-84 0-128 36.5T32 133q0 67 43 104 27 24 70.5 35.5T245 287q104 7 127 24 13 9 19.5 24.5T398 385q0 26-5.5 40.5T375 454q-17 20-48.5 29.5T255 493q-70 0-112-34.5T97 356H59q4 83 53.5 126.5T257 526q90 0 134-35.5zm-286-440Q140 21 205 21q94 0 144 55 24 27 36 61t12 69v86q-11-12-26-18t-41.5-9.5T247 256q-52-5-81.5-12T114 223q-22-13-33-36.5T70 133q0-53 35-82.5zM277 730l116-140h-38l-98 115-97-115h-38l115 140h40z"/><glyph glyph-name="atilde" unicode="ã" horiz-adv-x="500" d="M391 490.5q44-35.5 44-94.5V79q0-46 34-46 9 0 28 3V4q-16-4-31-4-37 0-53 17t-16 52v33h-2q-21-53-73-83.5T204-12q-84 0-128 36.5T32 133q0 67 43 104 27 24 70.5 35.5T245 287q104 7 127 24 13 9 19.5 24.5T398 385q0 26-5.5 40.5T375 454q-17 20-48.5 29.5T255 493q-70 0-112-34.5T97 356H59q4 83 53.5 126.5T257 526q90 0 134-35.5zm-286-440Q140 21 205 21q94 0 144 55 24 27 36 61t12 69v86q-11-12-26-18t-41.5-9.5T247 256q-52-5-81.5-12T114 223q-22-13-33-36.5T70 133q0-53 35-82.5zm120.5 641Q242 684 267 668q21-13 34-19.5t26-6.5q18 0 30 15.5t15 41.5h29q-5-44-25-67t-51-23q-16 0-31.5 7.5T257 638q-24 14-38.5 21t-30.5 7q-36 0-47-57h-29q2 26 13 46.5t28 32 37 11.5q19 0 35.5-7.5z"/><glyph glyph-name="adieresis" unicode="ä" horiz-adv-x="500" d="M391 490.5q44-35.5 44-94.5V79q0-46 34-46 9 0 28 3V4q-16-4-31-4-37 0-53 17t-16 52v33h-2q-21-53-73-83.5T204-12q-84 0-128 36.5T32 133q0 67 43 104 27 24 70.5 35.5T245 287q104 7 127 24 13 9 19.5 24.5T398 385q0 26-5.5 40.5T375 454q-17 20-48.5 29.5T255 493q-70 0-112-34.5T97 356H59q4 83 53.5 126.5T257 526q90 0 134-35.5zm-286-440Q140 21 205 21q94 0 144 55 24 27 36 61t12 69v86q-11-12-26-18t-41.5-9.5T247 256q-52-5-81.5-12T114 223q-22-13-33-36.5T70 133q0-53 35-82.5zM200 706V603h-44v103h44zm158 0V603h-44v103h44z"/><glyph glyph-name="aring" unicode="å" horiz-adv-x="500" d="M391 490.5q44-35.5 44-94.5V79q0-46 34-46 9 0 28 3V4q-16-4-31-4-37 0-53 17t-16 52v33h-2q-21-53-73-83.5T204-12q-84 0-128 36.5T32 133q0 67 43 104 27 24 70.5 35.5T245 287q104 7 127 24 13 9 19.5 24.5T398 385q0 26-5.5 40.5T375 454q-17 20-48.5 29.5T255 493q-70 0-112-34.5T97 356H59q4 83 53.5 126.5T257 526q90 0 134-35.5zm-286-440Q140 21 205 21q94 0 144 55 24 27 36 61t12 69v86q-11-12-26-18t-41.5-9.5T247 256q-52-5-81.5-12T114 223q-22-13-33-36.5T70 133q0-53 35-82.5zM307.5 756q22.5-13 35.5-36t13-50q0-28-13-51t-36-35.5-50-12.5q-28 0-50.5 13T171 619.5 158 670t13 50.5 35.5 35.5 50.5 13 50.5-13zm-113-122.5q9.5-16.5 26-26T257 598t36.5 10 26 26.5T329 670q0 20-10 36.5t-26.5 26T257 742t-35.5-9.5-26.5-26-10-36.5 9.5-36.5z"/><glyph glyph-name="ae" unicode="æ" horiz-adv-x="889" d="M436 396v-1h2q49 131 195 131 67 0 117.5-30t78.5-85 28-128l-1-31H445l-1-26q2-61 25-107t65-72 99-26q73 0 120 38.5T812 171h38q-9-57-38.5-98.5t-75-63T633-12q-79 0-133 37.5T427 137h-2q-24-69-79.5-109T216-12q-54 0-95.5 16.5T55.5 53 32 131q0 65 37.5 101.5T172 278q27 4 61.5 6.5T280 288l22 1q40 3 62.5 11t32 24 9.5 44q0 70-38.5 97.5T256 493q-74 0-116.5-35T92 354v-1H54q6 84 57.5 128.5T256 526q171 0 180-130zm382-105q0 59-24.5 105T727 467.5 632 493q-52 0-92.5-23.5t-65.5-70T444 285h374v6zm-434-18q-15-6-46.5-10.5T252 256q-60-3-94.5-13T104 216q-34-30-34-85 0-34 18.5-59T140 34t76-13q78 0 134 55 27 27 41.5 59.5T406 203v86h-2q-5-10-20-16z"/><glyph glyph-name="ccedilla" unicode="ç" horiz-adv-x="519" d="M373.5 506.5q45.5-19.5 74-58T481 355h-38q-4 43-27 74t-61 47.5-86 16.5q-61 0-106-32.5T94.5 375 71 262q0-74 23.5-128.5T163 50t106-29q46 0 84 20t63 56 32 84h38q-7-55-34.5-98t-71-67.5T281-12l-38-44 1-1q8 3 19 5t19 2q33 0 53.5-17.5T356-117q0-37-25.5-58T258-196q-52 0-92 25l11 24q24-13 42-17.5t38-4.5q29 0 45 14t16 36q0 19-14.5 31T266-76q-12 0-22.5-2.5T217-88l-16 13 47 64q-72 5-120.5 42.5t-71.5 97T33 262q0 76 29 136t82.5 94T269 526q59 0 104.5-19.5z"/><glyph glyph-name="eth" unicode="ð" horiz-adv-x="537" d="M287 660l115 64 20-22-109-61q97-77 144-173.5T504 250q0-78-28-137.5t-81-92T269-12 142.5 19.5t-82 90T32 249q0 73 29 131.5t83 92T269 506q53 0 91.5-17.5T432 432l2 2q-20 48-60.5 97T279 622l-112-62-21 22 108 60q-25 19-56 38.5T151 707l28 24q65-35 108-71zM93 133.5q23-51.5 68-82T269 21q61 0 105.5 28t68 79.5T466 249q0 64-24 115t-69 80-105 29q-61 0-106-31t-68.5-82T70 249q0-64 23-115.5z"/><glyph glyph-name="egrave" unicode="è" horiz-adv-x="519" d="M381.5 494q50.5-32 78-90T487 268l-1-16H71q0-71 23.5-123t66-80T260 21q147 0 184 153h38q-19-92-76-139T259-12q-69 0-120 32t-79 91.5T32 253q0 79 28 141t80.5 97T265 526q66 0 116.5-32zm40-99q-23.5 47-64 72.5T264 493q-51 0-92.5-24T104 398 72 285h376q-3 63-26.5 110zM178 730l120-140h-37L127 730h51z"/><glyph glyph-name="eacute" unicode="é" horiz-adv-x="519" d="M381.5 494q50.5-32 78-90T487 268l-1-16H71q0-71 23.5-123t66-80T260 21q147 0 184 153h38q-19-92-76-139T259-12q-69 0-120 32t-79 91.5T32 253q0 79 28 141t80.5 97T265 526q66 0 116.5-32zm40-99q-23.5 47-64 72.5T264 493q-51 0-92.5-24T104 398 72 285h376q-3 63-26.5 110zM396 730L262 590h-37l120 140h51z"/><glyph glyph-name="ecircumflex" unicode="ê" horiz-adv-x="519" d="M381.5 494q50.5-32 78-90T487 268l-1-16H71q0-71 23.5-123t66-80T260 21q147 0 184 153h38q-19-92-76-139T259-12q-69 0-120 32t-79 91.5T32 253q0 79 28 141t80.5 97T265 526q66 0 116.5-32zm40-99q-23.5 47-64 72.5T264 493q-51 0-92.5-24T104 398 72 285h376q-3 63-26.5 110zM281 730l116-140h-38l-98 115-97-115h-38l115 140h40z"/><glyph glyph-name="edieresis" unicode="ë" horiz-adv-x="519" d="M381.5 494q50.5-32 78-90T487 268l-1-16H71q0-71 23.5-123t66-80T260 21q147 0 184 153h38q-19-92-76-139T259-12q-69 0-120 32t-79 91.5T32 253q0 79 28 141t80.5 97T265 526q66 0 116.5-32zm40-99q-23.5 47-64 72.5T264 493q-51 0-92.5-24T104 398 72 285h376q-3 63-26.5 110zM204 706V603h-44v103h44zm158 0V603h-44v103h44z"/><glyph glyph-name="gbreve" unicode="ğ" horiz-adv-x="537" d="M334.5 511.5q37.5-14.5 65-41.5t41.5-63h2v107h38V23q0-105-55-162t-166-57q-96 0-147 40T58-36h38q6-62 49.5-94.5T260-163q60 0 101 22.5T422.5-78 443 15v121h-2Q385 19 255 19q-70 0-120 31t-76 88-26 135q0 73 27.5 130.5t78 90T255 526q42 0 79.5-14.5zM93.5 158q22.5-50 64-78T255 52t98.5 28.5T419 159t23 114q0 65-23 114.5T353.5 465 254 493q-54 0-95.5-29T94 384.5 71 273q0-65 22.5-115zM204 654.5q28-21.5 68-21.5 37 0 64.5 23t34.5 64h33q-4-34-23-61.5t-48-43-61-15.5q-57 0-94.5 32T133 720h33q10-44 38-65.5z"/><glyph glyph-name="igrave" unicode="ì" horiz-adv-x="168" d="M103 514V0H65v514h38zM-9 730l120-140H74L-60 730h51z"/><glyph glyph-name="iacute" unicode="í" horiz-adv-x="168" d="M103 514V0H65v514h38zm127 216L96 590H59l120 140h51z"/><glyph glyph-name="icircumflex" unicode="î" horiz-adv-x="168" d="M103 514V0H65v514h38zm1 216l116-140h-38L84 705l-97-115h-38L64 730h40z"/><glyph glyph-name="idieresis" unicode="ï" horiz-adv-x="168" d="M103 514V0H65v514h38zM27 706V603h-44v103h44zm158 0V603h-44v103h44z"/><glyph glyph-name="lslash" unicode="ł" horiz-adv-x="168" d="M103 714V428l70 54v-35l-70-54V0H65v363l-70-54v35l70 54v316h38z"/><glyph glyph-name="ntilde" unicode="ñ" horiz-adv-x="519" d="M416 478q47-48 47-152V0h-38v330q0 82-37 122.5T279 493q-56 0-98-27t-64.5-76T94 277V0H56v514h38V404h2q13 37 40.5 64.5t65 42.5 78.5 15q89 0 136-48zM228.5 691.5Q245 684 270 668q21-13 34-19.5t26-6.5q18 0 30 15.5t15 41.5h29q-5-44-25-67t-51-23q-16 0-31.5 7.5T260 638q-24 14-38.5 21t-30.5 7q-36 0-47-57h-29q2 26 13 46.5t28 32 37 11.5q19 0 35.5-7.5z"/><glyph glyph-name="ograve" unicode="ò" horiz-adv-x="537" d="M392.5 491q53.5-35 82.5-96t29-138-29-138.5-82.5-96T268-12q-72 0-125.5 35t-82 96T32 257t29 138 82.5 96T268 526t124.5-35zM92 143.5Q114 89 159 55t109-34q58 0 103 30.5t70 84.5 25 121q0 66-24.5 120t-70 85T267 493q-58 0-102.5-31T95 377 70 257q0-59 22-113.5zM190 730l120-140h-37L139 730h51z"/><glyph glyph-name="oacute" unicode="ó" horiz-adv-x="537" d="M392.5 491q53.5-35 82.5-96t29-138-29-138.5-82.5-96T268-12q-72 0-125.5 35t-82 96T32 257t29 138 82.5 96T268 526t124.5-35zM92 143.5Q114 89 159 55t109-34q58 0 103 30.5t70 84.5 25 121q0 66-24.5 120t-70 85T267 493q-58 0-102.5-31T95 377 70 257q0-59 22-113.5zM398 730L264 590h-37l120 140h51z"/><glyph glyph-name="ocircumflex" unicode="ô" horiz-adv-x="537" d="M392.5 491q53.5-35 82.5-96t29-138-29-138.5-82.5-96T268-12q-72 0-125.5 35t-82 96T32 257t29 138 82.5 96T268 526t124.5-35zM92 143.5Q114 89 159 55t109-34q58 0 103 30.5t70 84.5 25 121q0 66-24.5 120t-70 85T267 493q-58 0-102.5-31T95 377 70 257q0-59 22-113.5zM288 730l116-140h-38l-98 115-97-115h-38l115 140h40z"/><glyph glyph-name="otilde" unicode="õ" horiz-adv-x="537" d="M392.5 491q53.5-35 82.5-96t29-138-29-138.5-82.5-96T268-12q-72 0-125.5 35t-82 96T32 257t29 138 82.5 96T268 526t124.5-35zM92 143.5Q114 89 159 55t109-34q58 0 103 30.5t70 84.5 25 121q0 66-24.5 120t-70 85T267 493q-58 0-102.5-31T95 377 70 257q0-59 22-113.5zm144.5 548Q253 684 278 668q21-13 34-19.5t26-6.5q18 0 30 15.5t15 41.5h29q-5-44-25-67t-51-23q-16 0-31.5 7.5T268 638q-24 14-38.5 21t-30.5 7q-36 0-47-57h-29q2 26 13 46.5t28 32 37 11.5q19 0 35.5-7.5z"/><glyph glyph-name="odieresis" unicode="ö" horiz-adv-x="537" d="M392.5 491q53.5-35 82.5-96t29-138-29-138.5-82.5-96T268-12q-72 0-125.5 35t-82 96T32 257t29 138 82.5 96T268 526t124.5-35zM92 143.5Q114 89 159 55t109-34q58 0 103 30.5t70 84.5 25 121q0 66-24.5 120t-70 85T267 493q-58 0-102.5-31T95 377 70 257q0-59 22-113.5zM211 706V603h-44v103h44zm158 0V603h-44v103h44z"/><glyph glyph-name="oslash" unicode="ø" horiz-adv-x="537" d="M434 455l55 58 24-23-58-62q26-39 37.5-81.5T504 257q0-77-29-138t-82.5-96T268-12q-49 0-91 17t-74 52L49 0 25 23l57 61q-50 73-50 173 0 78 29 139t82.5 95.5T268 526q104 0 166-71zM109 112l299 316q-25 32-61 48.5T267 493q-60 0-104.5-32T94 375 70 257q0-84 39-145zm82-75q35-16 77-16 59 0 104 31t69.5 85T466 257q0 44-9.5 78.5T428 400L129 84q27-31 62-47z"/><glyph glyph-name="oe" unicode="œ" horiz-adv-x="889" d="M378.5 486.5Q428 447 444 374h2q40 152 199 152 66 0 113.5-31.5T831 407t27-129q0-17-1-26H464l-1-23q0-63 22-110t63-72.5T645 21q65 0 108 37t62 111h38q-19-87-73-134T645-12q-80 0-132 38.5T445 139h-2Q402-12 251-12q-70 0-119 31.5T57.5 110 32 250q0 84 26.5 146.5t77 96T254 526q75 0 124.5-39.5zM91.5 131Q113 79 154 50t98-29q84 0 129 60t45 169q0 117-45 180t-129 63q-58 0-99-31t-62-86-21-126q0-67 21.5-119zM819 285q0 62-22 109t-61.5 73-91.5 26q-54 0-94.5-26t-63-71.5T464 292v-7h355z"/><glyph glyph-name="scaron" unicode="š" horiz-adv-x="481" d="M380.5 483.5Q430 441 430 362h-38q0 63-40 97t-112 34q-42 0-76-11.5t-53-34T92 394q0-22 8-38.5t25-29.5q18-14 55-25t107-25q56-11 90.5-29t51-46.5T445 130q0-46-25-77.5t-70-48T244-12q-60 0-106.5 21.5T64 72t-28 99h38q2-45 24.5-79t60-52.5T244 21q76 0 119.5 28t43.5 81q0 23-8.5 40.5T373 202q-35 27-140 46-68 12-107 31.5t-55.5 47T54 394q0 43 23.5 72.5t65 44.5 97.5 15q91 0 140.5-42.5zM146 730l97-115 98 115h38L263 590h-40L108 730h38z"/><glyph glyph-name="scedilla" unicode="ş" horiz-adv-x="481" d="M380.5 483.5Q430 441 430 362h-38q0 63-40 97t-112 34q-43 0-76.5-11.5t-52.5-34T92 394q0-22 7.5-37t24.5-30q16-14 54-25.5T287 276q56-11 90.5-29t51-46.5T445 130q0-66-50.5-102.5T251-12l-37-44 1-1q9 3 19.5 5t18.5 2q34 0 54-18t20-49q0-37-25.5-58T229-196q-51 0-92 25l11 24q25-13 43-17.5t37-4.5q29 0 45 14t16 36q0 19-14.5 31T237-76q-12 0-22-2.5T188-88l-16 13 47 64Q134-3 86 44.5T36 171h38q2-45 24.5-79t60-52.5T244 21q76 0 119.5 28.5T407 130q0 23-8.5 40.5T373 202q-18 14-48.5 24T231 248q-68 13-106.5 32.5t-54.5 47T54 394q0 42 23.5 72t65.5 45 97 15q91 0 140.5-42.5z"/><glyph glyph-name="germandbls" unicode="ß" horiz-adv-x="500" d="M339.5 706q42.5-20 65.5-57.5t23-88.5q0-129-119-157v-2q75-9 114.5-57T463 214q0-71-25-119t-69-71.5T266 0h-59v33h17q62 0 90 9 111 35 111 172 0 57-22.5 93T332 360.5 207 378v34q89 1 136 39.5T390 560q0 41-19 71t-53 46-78 16q-72 0-108-40T96 536V0H58v537q0 93 45.5 141T240 726q57 0 99.5-20z"/><glyph glyph-name="thorn" unicode="þ" d="M103 714V396h2q13 38 40 67.5t64.5 46T292 526q72 0 124-34.5t79.5-95.5T523 256q0-84-27.5-144.5t-79-92T292-12q-68 0-116 29.5T105 107h-2v-291H65v898h38zm48.5-632.5Q199 21 292 21q60 0 103.5 29t66.5 82 23 124q0 69-23 123t-66.5 84T291 493q-58 0-100.5-28.5t-64.5-82T104 256q0-114 47.5-174.5z"/><glyph glyph-name="ugrave" unicode="ù" horiz-adv-x="519" d="M94 514V184q0-82 37-122.5T240 21q56 0 98 27.5t64.5 75.5T425 233v281h38V0h-38v110h-2q-14-39-42-66.5T315.5 2 238-12q-89 0-135.5 48.5T56 185v329h38zm82 216l120-140h-37L125 730h51z"/><glyph glyph-name="uacute" unicode="ú" horiz-adv-x="519" d="M94 514V184q0-82 37-122.5T240 21q56 0 98 27.5t64.5 75.5T425 233v281h38V0h-38v110h-2q-14-39-42-66.5T315.5 2 238-12q-89 0-135.5 48.5T56 185v329h38zm300 216L260 590h-37l120 140h51z"/><glyph glyph-name="ucircumflex" unicode="û" horiz-adv-x="519" d="M94 514V184q0-82 37-122.5T240 21q56 0 98 27.5t64.5 75.5T425 233v281h38V0h-38v110h-2q-14-39-42-66.5T315.5 2 238-12q-89 0-135.5 48.5T56 185v329h38zm185 216l116-140h-38l-98 115-97-115h-38l115 140h40z"/><glyph glyph-name="udieresis" unicode="ü" horiz-adv-x="519" d="M94 514V184q0-82 37-122.5T240 21q56 0 98 27.5t64.5 75.5T425 233v281h38V0h-38v110h-2q-14-39-42-66.5T315.5 2 238-12q-89 0-135.5 48.5T56 185v329h38zm108 192V603h-44v103h44zm158 0V603h-44v103h44z"/><glyph glyph-name="yacute" unicode="ý" horiz-adv-x="444" d="M39 514L230 45l176 469h43L230-52q-25-63-42-88-12-17-27-26.5T122.5-180 61-184H49v33h8q43 0 67.5 11t39.5 32q13 19 45 111L-6 514h45zm325 216L230 590h-37l120 140h51z"/><glyph glyph-name="ydieresis" unicode="ÿ" horiz-adv-x="444" d="M39 514L230 45l176 469h43L230-52q-25-63-42-88-12-17-27-26.5T122.5-180 61-184H49v33h8q43 0 67.5 11t39.5 32q13 19 45 111L-6 514h45zm133 192V603h-44v103h44zm158 0V603h-44v103h44z"/><glyph glyph-name="zcaron" unicode="ž" horiz-adv-x="426" d="M401 478L55 33h362V0H9v36l345 445H36v33h365v-36zM119 730l97-115 98 115h38L236 590h-40L81 730h38z"/><glyph glyph-name="fi" unicode="ﬁ" horiz-adv-x="389" d="M250 717v-33q-6 1-20.5 3t-24.5 2q-39 0-57-18t-18-52V514h107v-33H130V0H92v481H0v33h92v107q0 48 30.5 74.5T205 722q15 0 45-5zm74-3V611h-38v103h38zm0-200V0h-38v514h38z"/><glyph glyph-name="fl" unicode="ﬂ" horiz-adv-x="389" d="M250 717v-33q-6 1-20.5 3t-24.5 2q-39 0-57-18t-18-52V514h107v-33H130V0H92v481H0v33h92v107q0 48 30.5 74.5T205 722q15 0 45-5zm74-3V0h-38v714h38z"/><glyph glyph-name="grave.cap" horiz-adv-x="167" d="M21 920l120-140h-37L-30 920h51z"/><glyph glyph-name="acute" unicode="´" horiz-adv-x="167" d="M197 730L63 590H26l120 140h51z"/><glyph glyph-name="acute.cap" horiz-adv-x="167" d="M197 920L63 780H26l120 140h51z"/><glyph glyph-name="circumflex" unicode="ˆ" horiz-adv-x="167" d="M103 730l116-140h-38L83 705l-97-115h-38L63 730h40z"/><glyph glyph-name="circumflex.cap" horiz-adv-x="167" d="M103 920l116-140h-38L83 895l-97-115h-38L63 920h40z"/><glyph glyph-name="caron" unicode="ˇ" horiz-adv-x="167" d="M-14 730l97-115 98 115h38L103 590H63L-52 730h38z"/><glyph glyph-name="caron.cap" horiz-adv-x="167" d="M-14 920l97-115 98 115h38L103 780H63L-52 920h38z"/><glyph glyph-name="caron.alt" horiz-adv-x="167" d="M147 714L60 574H31l65 140h51z"/><glyph glyph-name="tilde" unicode="˜" horiz-adv-x="167" d="M52.5 691.5Q69 684 94 668q21-13 34-19.5t26-6.5q18 0 30 15.5t15 41.5h29q-5-44-25-67t-51-23q-16 0-31.5 7.5T84 638q-24 14-38.5 21T15 666q-36 0-47-57h-29q2 26 13 46.5t28 32T17 699q19 0 35.5-7.5z"/><glyph glyph-name="tilde.cap" horiz-adv-x="167" d="M52.5 881.5Q69 874 94 858q21-13 34-19.5t26-6.5q17 0 29 15t16 42h29q-5-44-25-67t-51-23q-16 0-31.5 7.5T84 828q-24 14-38.5 21T15 856q-36 0-47-57h-29q2 26 13 46.5t28 32T17 889q19 0 35.5-7.5z"/><glyph glyph-name="dieresis" unicode="¨" horiz-adv-x="167" d="M26 706V603h-44v103h44zm158 0V603h-44v103h44z"/><glyph glyph-name="dieresis.cap" horiz-adv-x="167" d="M26 896V793h-44v103h44zm158 0V793h-44v103h44z"/><glyph glyph-name="macron" unicode="¯" horiz-adv-x="167" d="M205 638H-37v33h242v-33z"/><glyph glyph-name="macron.cap" horiz-adv-x="167" d="M205 828H-37v33h242v-33z"/><glyph glyph-name="breve" unicode="˘" horiz-adv-x="167" d="M19 654.5Q47 633 87 633q37 0 64.5 23t34.5 64h33q-4-34-23-61.5t-48-43T87 600q-57 0-94.5 32T-52 720h33q10-44 38-65.5z"/><glyph glyph-name="breve.cap" horiz-adv-x="167" d="M18.5 845Q46 823 87 823q38 0 64.5 23t34.5 64h33q-4-34-23.5-61.5t-48-43T87 790q-57 0-94.5 32T-52 910h33q10-43 37.5-65z"/><glyph glyph-name="ring" unicode="˚" horiz-adv-x="167" d="M133.5 756q22.5-13 35.5-36t13-50q0-28-13-51t-36-35.5T83 571q-28 0-50.5 13T-3 619.5-16 670t13 50.5T32.5 756 83 769t50.5-13zm-113-122.5q9.5-16.5 26-26T83 598t36.5 10 26 26.5T155 670q0 20-10 36.5t-26.5 26T83 742t-35.5-9.5-26.5-26T11 670t9.5-36.5z"/><glyph glyph-name="ring.cap" horiz-adv-x="167" d="M133.5 936q22.5-13 35.5-36t13-50q0-28-13-51t-36-35.5T83 751q-28 0-50.5 13T-3 799.5-16 850t13 50.5T32.5 936 83 949t50.5-13zm-113-122.5q9.5-16.5 26-26T83 778t36.5 10 26 26.5T155 850q0 20-10 36.5t-26.5 26T83 922t-35.5-9.5-26.5-26T11 850t9.5-36.5z"/><glyph glyph-name="hungarumlaut" unicode="˝" horiz-adv-x="167" d="M115 730L-19 590h-37L64 730h51zm158 0L139 590h-37l120 140h51z"/><glyph glyph-name="hungarumlaut.cap" horiz-adv-x="167" d="M115 920L-19 780h-37L64 920h51zm158 0L139 780h-37l120 140h51z"/><glyph glyph-name="dotaccent" unicode="˙" horiz-adv-x="167" d="M105 706V603H61v103h44z"/><glyph glyph-name="dotaccent.cap" horiz-adv-x="167" d="M105 896V793H61v103h44z"/><glyph glyph-name="cedilla" unicode="¸" horiz-adv-x="167" d="M117 0L69-56l1-1q9 3 19.5 5t18.5 2q34 0 54-18t20-49q0-37-25.5-58T84-196q-51 0-92 25l11 24q25-13 43-17.5t37-4.5q29 0 45 14t16 36q0 19-14.5 31T92-76q-12 0-22.5-2.5T43-88L27-75 83 0h34z"/><glyph glyph-name="ogonek" unicode="˛" horiz-adv-x="167" d="M69-66.5Q50-95 50-121q0-19 12-30.5T93-163t32 7.5 26 27.5l23-8q-24-60-86-60-39 0-60.5 18T6-128q0 31 25 62t77 66h24Q88-38 69-66.5z"/><glyph glyph-name="ellipsis" unicode="…" horiz-adv-x="1000" d="M192 103V0h-51v103h51zm333 0V0h-51v103h51zm333 0V0h-51v103h51z"/><glyph glyph-name="exclamdown" unicode="¡" horiz-adv-x="259" d="M155 535V432h-51v103h51zm-14-188l12-290v-241h-48V57l12 290h24z"/><glyph glyph-name="questiondown" unicode="¿" horiz-adv-x="519" d="M287 535V432h-51v103h51zm-26-294q-21-49-70-95-52-48-74-85T95-17q0-44 21-76t57.5-48.5T256-158q56 0 96.5 24T415-65t22 107h38q0-75-26.5-128.5T372-168t-119-28q-59 0-103 21.5t-68.5 62T57-17q0 35 9 62.5t32 56 66 67.5q42 38 61 79.5T244 354h38q0-64-21-113z"/><glyph glyph-name="quoteleft" unicode="‘" horiz-adv-x="204" d="M118 648.5q-9-26.5-9-60.5h21V485H79v107q0 45 16.5 78t47.5 44v-33q-16-6-25-32.5z"/><glyph glyph-name="quoteright" unicode="’" horiz-adv-x="204" d="M125 714V607q0-45-16-77.5T61 485v33q16 7 24 30.5T95 611H74v103h51z"/><glyph glyph-name="quotedblleft" unicode="“" horiz-adv-x="315" d="M103 648.5Q94 624 94 588h21V485H64v106q0 45 16 78t48 45v-33q-16-8-25-32.5zm126 .5q-9-24-9-61h21V485h-51v106q0 45 16 77.5t48 45.5v-33q-16-8-25-32z"/><glyph glyph-name="quotedblright" unicode="”" horiz-adv-x="315" d="M125 714V607q0-45-16-77.5T61 485v33q32 15 34 93H74v103h51zm126 0V607q0-45-16-77.5T187 485v33q16 8 24.5 31.5T221 611h-21v103h51z"/><glyph glyph-name="quotesinglbase" unicode="‚" horiz-adv-x="204" d="M125 103V-4q0-45-16.5-77.5T61-126v33q17 7 25.5 32.5T95 0H74v103h51z"/><glyph glyph-name="quotedblbase" unicode="„" horiz-adv-x="315" d="M125 103V-4q0-45-16.5-77.5T61-126v33q16 7 25 32.5T95 0H74v103h51zm126 0V-4q0-45-16.5-77.5T187-126v33q17 7 25.5 32.5T221 0h-21v103h51z"/><glyph glyph-name="guilsinglleft" unicode="‹" horiz-adv-x="259" d="M181 372L96 272l85-102v-49L67 252v40l114 131v-51z"/><glyph glyph-name="guilsinglright" unicode="›" horiz-adv-x="259" d="M192 292v-40L78 121v49l85 102-85 100v51z"/><glyph glyph-name="endash" unicode="–" horiz-adv-x="500" d="M500 253H0v38h500v-38z"/><glyph glyph-name="emdash" unicode="—" horiz-adv-x="1000" d="M870 253H130v38h740v-38z"/><glyph glyph-name="bullet" unicode="•" horiz-adv-x="500" d="M339.5 511.5Q381 488 405 447t24-90q0-48-24-89t-65-65.5-90-24.5q-47 0-88 23.5T96.5 266 72 357q0 48 23.5 89t64.5 65 90 24q48 0 89.5-23.5z"/><glyph glyph-name="periodcentered" unicode="·" horiz-adv-x="278" d="M177.5 355q16.5-16 16.5-38t-16-38.5-39-16.5q-22 0-38 16.5T85 317q0 13 7.5 25.5t20 20.5 26.5 8q22 0 38.5-16z"/><glyph glyph-name="dagger" unicode="†" d="M297 714V514h205v-33H297v-627h-38v627H54v33h205v200h38z"/><glyph glyph-name="daggerdbl" unicode="‡" d="M297 714V514h205v-33H297V87h205V54H297v-200h-38V54H54v33h205v394H54v33h205v200h38z"/><glyph glyph-name="section" unicode="§" d="M176.5-107.5Q214-151 280-151q65 0 98 26.5T411-46q0 38-21 67t-51 49.5-79 47.5l-39 22q-61 35-92.5 57.5t-54 55.5T52 331q0 50 30 85.5t81 54.5q-25 17-40 49.5T108 585q0 44 22.5 77t60 51 82.5 18q85 0 129.5-50T449 536h-38v6q0 37-14.5 72.5t-46 59.5-80.5 24q-29 0-57.5-13t-47-37.5T147 591q0-41 25-73t61-54.5 94-51.5q54-27 91-53t61-62.5 24-84.5q0-51-28.5-86T392 77q20-19 32-35t18.5-37 6.5-50q0-68-44.5-103.5T280-184q-53 0-94 23t-64 66.5T99 9h38q2-73 39.5-116.5zM409 119q24 15 40 38.5t16 52.5q0 31-15.5 57T403 317q-17 13-43 29l-51 31-48 28-74 44q-47-18-72-48t-25-64q0-35 22-65.5t68-58.5l184-113q21 4 45 19z"/><glyph glyph-name="paragraph" unicode="¶" horiz-adv-x="600" d="M506-146h-38v827H311v-827h-38v470q-53 0-100.5 24.5t-77 69T66 519q0 62 26 105.5t75 66.5 117 23h222v-860z"/><glyph glyph-name="brokenbar" unicode="¦" horiz-adv-x="222" d="M130 661V411H92v250h38zm0-500V-89H92v250h38z"/><glyph glyph-name="copyright" unicode="©" horiz-adv-x="800" d="M584 682.5q86-48.5 138-134T774 357q0-100-49-186T590 34 400-17q-101 0-187 50T76.5 169 26 357q0 101 50 187t136 136.5T400 731q98 0 184-48.5zm-476-495q44-78.5 121-125T401 16q91 0 167.5 45t122 123T736 358q0 95-44 172.5T571 653t-172 45q-91 0-167.5-43.5t-122-121T64 358q0-92 44-170.5zm391 387q41-18.5 67.5-53.5t32.5-83h-38q-12 58-53.5 90T409 560q-56 0-98-25.5t-65-71T223 359t24.5-106 67.5-73.5 96-26.5q55 0 94.5 32t55.5 96h38q-6-48-32.5-85t-67-56.5T411 120q-66 0-117.5 30t-80 84T185 358t27.5 123 78 82.5T408 593q50 0 91-18.5z"/><glyph glyph-name="registered" unicode="®" horiz-adv-x="800" d="M584.5 682q86.5-49 138-134.5T774 357q0-100-49.5-186t-135-137T400-17q-98 0-184.5 49t-138 134.5T26 357q0 97 48.5 183t134 138.5T400 731q98 0 184.5-49zM108 187.5q44-78.5 121-125T401 16q92 0 169 45.5t121.5 124T736 358t-43.5 171.5-120.5 123T399 698q-91 0-168-44T109 532 64 357q0-91 44-169.5zm429.5 361Q574 519 574 457q0-49-29.5-79.5T460 339l132-203h-42L417 340H302V136h-38v442h169q68 0 104.5-29.5zm-33-155Q536 414 536 458q0 43-30.5 65T426 545H302V373h100q71 0 102.5 20.5z"/><glyph glyph-name="trademark" unicode="™" horiz-adv-x="990" d="M404 681H261V302h-32v379H85v33h319v-33zm138 33l152-346 152 346h59V302h-32v379h-3L703 302h-18L518 681h-3V302h-32v412h59z"/><glyph glyph-name="currency" unicode="¤" d="M439 532l54 55 27-27-55-54q29-34 45-75.5t16-85.5q0-46-16.5-88T465 185l54-54-27-27-53 54q-34-29-75.5-45T277 97q-44 0-85 16t-75 45l-55-56-27 27 56 55q-32 38-46.5 79.5T30 347q0 41 15.5 82T91 506l-57 56 27 27 56-56q35 29 76.5 44.5T277 593q90 0 162-61zM103.5 237q29.5-48 77-75t97.5-27q54 0 101 28.5t75 77T482 345q0 55-27.5 103T380 525.5 277 555q-54 0-100.5-29T102 448.5 74 345q0-60 29.5-108z"/><glyph glyph-name="cent" unicode="¢" d="M304 615v-89q84-4 135-48t60-123h-38q-5 59-45.5 95.5T304 493V21q65 6 108 49t54 111h38q-8-55-34-96.5t-68.5-67T304-12v-106h-32v106q-71 3-121 39t-75 96.5T51 262q0 72 26.5 131t77 94.5T272 526v89h32zM109.5 140q20.5-53 62-84T272 21v472q-57-4-98.5-37t-63-84.5T89 262q0-69 20.5-122z"/><glyph glyph-name="sterling" unicode="£" d="M452.5 671Q512 611 512 495v-11h-38q-2 107-49.5 158T278 693q-58 0-101-18t-66-52.5T88 541q0-30 9-60t30-68l26-50h160v-33H172q11-18 17-45.5t6-61.5q0-52-27-102.5T96 31l2-2q26 18 48.5 27t45.5 9q27 0 50-6t55-17q27-10 47.5-15.5T387 21q35 0 65 15t70 53l22-33q-33-35-72.5-54T393-17q-30 0-55.5 6T280 7q-32 11-50.5 15.5T189 27q-27 0-52-8T69-17L44 17q61 58 87 107t26 100q0 27-7.5 54.5T128 330H50v33h60q-33 59-46.5 99T50 539q0 58 29.5 101.5t81.5 67T277 731q116 0 175.5-60z"/><glyph glyph-name="florin" unicode="ƒ" d="M466 729.5q16-1.5 27-4.5l-8-38q-33 6-54 6-42 0-68.5-26T327 597l-33-168h120l-5-33H288L208-14q-17-90-54.5-130T58-184q-24 0-53 6l7 37q34-5 50-5 78 0 105 137l79 405H134l7 33h111l34 172q12 60 49.5 95t97.5 35q17 0 33-1.5z"/><glyph glyph-name="yen" unicode="¥" d="M279 340l239 374h45L325 342h92v-33H297v-78h120v-33H297V0h-38v198H139v33h120v78H139v33h92L-7 714h48z"/><glyph glyph-name="ordfeminine" unicode="ª" horiz-adv-x="310" d="M252.5 680q29.5-22 29.5-61V430q0-14 3.5-21t15.5-7q11 0 17 2v-27q-16-2-20-2-21 0-33 8.5T253 419v15h-2q-9-29-42.5-48.5T127 366q-58 0-86 23.5T13 462q0 43 29 66.5t96 28.5q44 3 75 9 16 4 24 9t11 15.5 3 30.5q0 26-24.5 40T159 675t-69-20.5T61 597v-1H29q12 106 132 106 62 0 91.5-22zM67 412q22-19 58-19 42 0 70 16t41.5 41 13.5 53v51q-13-17-81-21-48-2-75-11t-38-23.5T45 462q0-31 22-50z"/><glyph glyph-name="ordmasculine" unicode="º" horiz-adv-x="334" d="M251 680.5q36-21.5 55-59.5t19-87-18.5-87-54.5-59.5-85-21.5-85 21.5T27.5 447 9 534t19 87 55 59.5 84 21.5 84-21.5zM56 460q15-32 43.5-49.5T167 393t67.5 17.5T278 460t15 74-15 74-44 49.5-68 17.5q-38 0-66.5-17.5t-43.5-49T41 534q0-42 15-74z"/><glyph glyph-name="onesuperior" unicode="¹" horiz-adv-x="360" d="M219 397h-34v362q-26-24-55-37t-64-16v30q94 14 126 84h27V397z"/><glyph glyph-name="twosuperior" unicode="²" horiz-adv-x="360" d="M253 814.5q29-14.5 45-42.5t16-65-19-69-54-55l-76-50q-42-28-62.5-51T77 428h236v-31H40q1 33 10 58t31.5 50 65.5 53l74 48q27 18 43 43.5t16 58.5q0 42-26 66.5T186 799q-50 0-77-29t-28-84H47q0 67 37 105t102 38q38 0 67-14.5z"/><glyph glyph-name="threesuperior" unicode="³" horiz-adv-x="360" d="M274.5 798.5Q308 768 308 717q0-35-20.5-60T231 623q44-6 69-35t25-71q0-39-18-68t-51-45-77-16-76.5 16.5-49.5 48T36 527h34q0-52 28-80.5t80-28.5 82.5 25.5T291 516q0 40-28 64.5T178 605h-28v31h29q40 0 67.5 20t27.5 60-23.5 61.5T183 799q-49 0-75-26.5T80 697H46q1 63 38 97.5T184 829q57 0 90.5-30.5z"/><glyph glyph-name="fraction" unicode="⁄" horiz-adv-x="167" d="M336 714L-129-24h-40l465 738h40z"/><glyph glyph-name="onehalf" unicode="½" horiz-adv-x="834" d="M620 714L155-24h-40l465 738h40zM211 274h-34v362q-22-22-53-36t-66-17v30q50 8 80 29t46 55h27V274zm491 142.5q29-15.5 44-43t15-63.5q0-42-21.5-73T676 178l-74-49q-34-23-53.5-45.5T524 31h236V0H487q0 51 25 87t72 67l75 49q35 22 51.5 48.5T727 311q0 41-25.5 66T633 402q-50 0-77.5-29.5T528 289h-34q0 67 36.5 105T633 432q40 0 69-15.5z"/><glyph glyph-name="onequarter" unicode="¼" horiz-adv-x="834" d="M634 714L169-24h-40l465 738h40zM211 274h-34v362q-22-22-53-36t-66-17v30q50 8 80 29t46 55h27V274zm473 149V132h68v-31h-68V0h-34v101H435v31l218 291h31zM469 132h181v240z"/><glyph glyph-name="threequarters" unicode="¾" horiz-adv-x="834" d="M717 714L252-24h-40l465 738h40zm-404.5-38.5Q346 645 346 594q0-34-20.5-59.5T270 500q42-6 67.5-34.5T363 394q0-39-18.5-68.5t-51.5-45-76-15.5q-67 0-105 36T74 404h34q0-52 28-80.5t80-28.5 82.5 26 30.5 72q0 40-28.5 64.5T216 482h-28v31h27q49 0 73 23t24 57q0 40-23.5 61.5T221 676q-48 0-75-26.5T118 574H84q1 62 38.5 97t99.5 35q57 0 90.5-30.5zM705 423V132h68v-31h-68V0h-34v101H456v31l218 291h31zM490 132h181v240z"/><glyph glyph-name="perthousand" unicode="‰" horiz-adv-x="1074" d="M610 714L145-24h-40l465 738h40zm-337-33q34-21 52.5-59t18.5-87q0-50-18-89t-52-60.5-81-21.5q-72 0-112.5 44.5T40 535q0 48 19.5 86t54.5 59.5 79 21.5q46 0 80-21zM107.5 433q29.5-36 84.5-36 35 0 61 17.5t39.5 48.5 13.5 72q0 39-14.5 69.5T251 652t-60 17q-35 0-60.5-16.5t-39-46.5T78 535q0-66 29.5-102zM607 304.5q34-21.5 52.5-59.5t18.5-87q0-51-18-89T608 9.5 527-12q-73 0-113 45t-40 125q0 48 19.5 86.5t54.5 60 79 21.5q46 0 80-21.5zm355.5-.5q34.5-22 53-60t18.5-86q0-51-18-89T963.5 9.5 882-12q-73 0-112.5 45T730 158q0 48 19.5 86.5t54 60T882 326q46 0 80.5-22zM441 56q29-35 84-35 35 0 61 17.5T626 87t14 71q0 37-13.5 67.5t-39.5 49-63 18.5q-52 0-82-35.5T412 158q0-67 29-102zm357 .5Q828 21 882 21q35 0 61 17t39.5 48 13.5 72q0 38-13.5 68.5T943 275t-62 18q-34 0-59.5-16.5T782 230t-14-72q0-66 30-101.5z"/><glyph glyph-name="minus" unicode="−" horiz-adv-x="600" d="M552 233H48v38h504v-38z"/><glyph glyph-name="plusminus" unicode="±" horiz-adv-x="600" d="M319 504V315h233v-38H319V88h-38v189H48v38h233v189h38zM552 0H48v38h504V0z"/><glyph glyph-name="multiply" unicode="×" horiz-adv-x="600" d="M494 474l27-27-194-195L521 58l-27-27-194 195L105 31 79 58l194 194L79 447l26 27 195-195z"/><glyph glyph-name="divide" unicode="÷" horiz-adv-x="600" d="M337.5 488.5Q353 473 353 452q0-20-15.5-35.5T301 401t-36 15-15 36 14.5 36.5T301 504q21 0 36.5-15.5zM552 233H48v38h504v-38zM337.5 87.5Q353 72 353 51t-15.5-36T301 0t-36 15-15 36 15.5 36.5T301 103q21 0 36.5-15.5z"/><glyph glyph-name="notequal" unicode="≠" horiz-adv-x="600" d="M465 488l-73-119h160v-38H369l-95-156h278v-38H251L167 0l-32 18 72 119H48v38h182l96 156H48v38h301l84 137z"/><glyph glyph-name="approxequal" unicode="≈" horiz-adv-x="600" d="M503 302q-32-25-77-25-30 0-59 9.5T295 314q-40 17-67 26t-54 9q-32 0-56-18t-42-57l-33 8q22 53 54 78t77 25q30 0 58-9t72-28q40-17 67-26t55-9q34 0 57 18t41 59l33-8q-22-55-54-80zm-.5-167.5Q471 110 426 110q-30 0-59 9.5T295 147q-40 17-67 26t-54 9q-33 0-57-18.5T76 105l-33 8q21 53 53 79t78 26q30 0 58-9t72-28q40-17 67-26t55-9q33 0 56.5 18t41.5 57l33-8q-23-54-54.5-78.5z"/><glyph glyph-name="lessequal" unicode="≤" horiz-adv-x="600" d="M552 472L86 304l466-170V92L48 281v46l504 187v-42zM551 0H48v38h503V0z"/><glyph glyph-name="greaterequal" unicode="≥" horiz-adv-x="600" d="M552 327v-46L48 92v42l466 170L48 472v42zm0-327H48l1 38h503V0z"/><glyph glyph-name="logicalnot" unicode="¬" horiz-adv-x="600" d="M552 108h-38v223H48v38h504V108z"/><glyph glyph-name="uni0394" unicode="Δ" horiz-adv-x="593" d="M323 714L605 0H-12l287 714h48zM50 38h492L301 671h-2z"/><glyph glyph-name="uni03A9" unicode="Ω" horiz-adv-x="741" d="M536 688q76-43 121.5-121.5T703 386q0-219-192-345v-3h192V0H450v39q107 65 157.5 149T658 386q0 83-35.5 153.5T521 651.5 370 693q-83 0-148.5-40t-102-110.5T83 386q0-114 48.5-198T288 39V0H39v38h185v3q-91 59-138.5 146T38 386q0 94 41 173t116 125.5T370 731q90 0 166-43z"/><glyph glyph-name="uni03BC" unicode="μ" horiz-adv-x="528" d="M103 514V184q0-81 37-122t109-41q56 0 98 27.5t64.5 75.5T434 232v282h38V0h-38v110h-2q-14-38-42-65.5t-65-42T248-12q-50 0-87 17.5T103 56v-240H65v698h38z"/><glyph glyph-name="pi" unicode="π" horiz-adv-x="560" d="M540 481h-91V67q0-40 38-40 18 0 39 4V-1q-23-5-45-5-38 0-54 17.5T411 64v417H135V0H97v481H12v33h528v-33z"/><glyph glyph-name="degree" unicode="°" horiz-adv-x="400" d="M271.5 683.5q32.5-18.5 52-51.5t19.5-73q0-39-19-72t-51.5-52-72.5-19q-39 0-72 19t-52 51.5T57 559t19 72.5 52 51.5 72 19 71.5-18.5zM109 503q14-25 38-39.5t53-14.5 53 14.5 38 40 14 55.5q0 29-14 54.5T253 654t-53 15-53-15-38-40-14-55q0-31 14-56z"/><glyph glyph-name="infinity" unicode="∞" horiz-adv-x="722" d="M239 358q37-17 122-93l48 42q40 35 74 52t66 17q37 0 65.5-16.5t44.5-46 16-67.5q0-39-15.5-69.5t-44-47T549 113t-78 21q-39 20-110 88l-52-46q-35-31-67.5-46.5T173 114q-37 0-65.5 16.5t-44.5 46T47 244q0 36 15.5 66t43.5 48 64 18q30 0 69-18zM105.5 173.5Q131 147 173 147q37 0 74 21.5t91 74.5q-70 62-109 83-32 17-62 17-25 0-45-13t-31-35.5T80 245q0-45 25.5-71.5zM549 146q43 0 68 26.5t25 72.5q0 27-11 49.5T599.5 330 550 343q-28 0-66-21.5T383 243l43-38q67-59 123-59z"/><glyph glyph-name="partialdiff" unicode="∂" horiz-adv-x="463" d="M294.5 696.5Q337 672 366 623t43.5-114.5T424 369q0-115-23.5-200.5T329 35.5 210-12q-55 0-97 32t-64 83.5T27 210q0 59 22.5 107t64.5 76 98 28q50 0 95.5-25.5T388 324l1 60q0 64-12.5 119T340 601q-50 87-140 87-30 0-56-10t-59-35l-20 26q32 26 65 39t69 13q53 0 95.5-24.5zM80 121q17-44 50.5-73T211 19q50 0 86.5 33t58 93T384 284q-39 53-81.5 79T212 389q-44 0-77.5-23.5T82 301t-19-92q0-44 17-88z"/><glyph glyph-name="integral" unicode="∫" horiz-adv-x="534" d="M360 776.5q14-9.5 14-26.5 0-11-7.5-18.5T347 724q-11 0-17.5 5T316 744.5 304 755q-22 0-32.5-47T261 585q0-191 1-287l1-296q0-114-26-164.5T161-213q-20 0-31 9.5T119-179q0 10 8.5 17.5T145-154q7 0 12.5-4.5T168-168q4-5 8-8.5t9-3.5q19 0 30 46.5T226-4l-1 588q0 105 24.5 153.5T325 786q21 0 35-9.5z"/><glyph glyph-name="radical" unicode="√" horiz-adv-x="463" d="M467 782L252-217h-32L42 149l-44-21-13 27 73 36 173-359 203 950h33z"/><glyph glyph-name="summation" unicode="∑" horiz-adv-x="593" d="M546 751H95l322-462L79-179h479v-35H35v32l338 471L49 753v33h497v-35z"/><glyph glyph-name="product" unicode="∏" horiz-adv-x="704" d="M621-214h-36v965H119v-965H83V786h538V-214z"/><glyph glyph-name="uni20BE" unicode="₾" horiz-adv-x="736" d="M364 702q23 0 63-6v84h32v-92q70-20 121.5-68.5t78.5-119T686 345h-38q0 73-21.5 136t-64 109T459 655V345h-32v318q-35 7-63 7t-55-6V345h-32v311q-62-18-104.5-64T109 482.5 88 345q0-85 36-156T227.5 75.5 384 33h210V0H124v32h130v3q-64 18-110.5 65t-70 112T50 349q0 78 25.5 148.5t76.5 122T277 690v90h32v-83q30 5 55 5z"/><glyph glyph-name="Schwa" unicode="Ə" horiz-adv-x="724" d="M189.5 29.5Q114 76 72.5 159T31 346l1 17h617q0 97-35.5 172T514 651.5 367 693q-77 0-139.5-31.5t-101-88.5T79 442H36q9 83 54 149t117.5 103T368 731q94 0 168-47t115.5-131.5T693 361q0-108-42.5-194t-118-135T362-17q-97 0-172.5 46.5zm-76 139.5q36.5-70 101-109T363 21q78 0 141.5 39.5t101 109T648 328H75q2-89 38.5-159z"/><glyph glyph-name="dotlessi" unicode="ı" horiz-adv-x="168" d="M103 514V0H65v514h38z"/><glyph glyph-name="schwa" unicode="ə" horiz-adv-x="519" d="M139 19.5q-51 31.5-79 90T32 246l1 16h415q0 71-23 123t-65 80-96 28q-76 0-123-37.5T75 340H37q19 92 77 139t151 47q66 0 116.5-32t78-92T487 261q0-79-28-141t-79.5-97T259-12 139 19.5zm-41 99q24-46.5 65.5-72T260 21q49 0 89 24t66 71 32 113H71q3-64 27-110.5z"/><glyph glyph-name="uni10D0" unicode="ა" horiz-adv-x="477" d="M129 14Q83 40 59 83.5T35 179q0 46 17 85h37q-17-42-17-83t20-77.5 57-59T236 22q49 0 86 22.5t57 60 20 79.5q0 46-13 80.5T352 324t-53 52q-33 27-49 42t-28.5 38.5T209 511h37q1-24 12.5-43.5T284 435t44-38q33-28 56.5-56.5t38-66.5 14.5-87q0-53-24.5-98.5t-70-73T236-12 129 14z"/><glyph glyph-name="uni10D1" unicode="ბ" horiz-adv-x="533" d="M146 23q-51 34-78.5 93T40 250q0 72 25 130.5t76 94T267 511v39q0 36-13 54t-28.5 28.5T205 646q-17 12-28 23.5t-18 31-7 49.5h37q0-31 11.5-49t32.5-33q6-4 27-19t32.5-37.5T304 558v-49q57-9 100-44.5t66-91T493 250q0-72-26-131.5T389.5 24 266-11q-69 0-120 34zm222.5 30Q411 84 433 136t22 114q0 63-22.5 115T367 447.5 266 478q-59 0-101.5-30.5T100 365 78 250q0-64 22.5-116t65-82T267 22t101.5 31z"/><glyph glyph-name="uni10D2" unicode="გ" horiz-adv-x="501" d="M138-183q-50 28-79 81.5T30 25q0 66 26 115.5t71.5 80T232 262q64 11 94.5 42t30.5 73q0 33-15.5 56T301 467.5 246 479q-28 0-54-12.5T150 429t-16-60H97q0 47 22 79t56.5 47.5T245 511q41 0 74.5-15t53.5-44.5 20-71.5q0-44-26-78t-77-48v-3q51-4 92.5-33.5t65-79.5T471 25q0-69-28-123t-78.5-83.5T250-211q-62 0-112 28zm206.5 30.5Q386-127 409.5-81T433 25q0 61-24 107t-65.5 71-93.5 25q-51 0-92.5-25.5T92 131 68 25q0-62 24-108t65.5-70.5T251-178t93.5 25.5z"/><glyph glyph-name="uni10D3" unicode="დ" horiz-adv-x="791" d="M460.5-138Q431-111 385-96.5T285-82H132v30h100v2Q182-36 138.5.5t-71 101T40 257q0 78 20 135.5t57.5 88T207 511q58 0 99-33.5t50-98.5h3q20 64 70 98t115 34q61 0 108-31.5t73-87T751 267q0-67-24.5-122.5t-72-88.5T541 23 428 54.5t-71.5 87T332 267v62q0 46-15.5 80t-43 51.5T212 478q-42 0-72.5-27t-46-77T78 257q0-101 37-167.5t94-100T332-53q87-13 140-50t60-97h-37q-5 35-34.5 62zm174 223.5Q673 114 693 162t20 105q0 59-20.5 107T633 450t-92 28q-52 0-91-26t-60-74-21-111q0-59 20.5-106.5T449 85t93-28 92.5 28.5z"/><glyph glyph-name="uni10D4" unicode="ე" horiz-adv-x="502" d="M131.5-185.5Q85-160 60-111.5T35 3q0 25 6.5 52.5T56 100h38q-8-18-14.5-45.5T73 6q0-56 20.5-98t58.5-64 89-22q52 0 89.5 23t58 68T409 22v268q0 56-17.5 98.5t-52 66T255 478q-48 0-83-20t-53-53-18-71q0-23 9-56H72q-9 30-9 56 0 47 23 87.5t66.5 65T255 511q61 0 104-29t65.5-79T447 291V20q0-74-25-126t-71-78.5T241-211q-63 0-109.5 25.5z"/><glyph glyph-name="uni10D5" unicode="ვ" horiz-adv-x="500" d="M138.5-185Q89-159 62-111T35 1q0 22 5.5 46.5T53 90h37q-7-19-12-43T73 4q0-55 23-96t64-63.5 92-22.5q50 0 90 22.5T404.5-93 427 0q0 55-21.5 93.5t-57 58T269 171h-45v33h45q41 0 71 18t45 47.5 15 63.5q0 39-19.5 72.5t-53.5 53-74 19.5q-43 0-78-19t-54.5-52-19.5-74q0-16 7-44H69q-6 24-6 45 0 47 23.5 88t66.5 65 100 24q54 0 96-24t65.5-64 23.5-86q0-53-26-92.5T335 190v-3q59-16 94.5-64T465 0q0-62-26.5-110t-75-74.5T252-211q-64 0-113.5 26z"/><glyph glyph-name="uni10D6" unicode="ზ" horiz-adv-x="576" d="M188 22q-51 33-78 91.5T83 247q0 59 19.5 112t65.5 91v3q-47 0-81 20.5t-51.5 56T18 609q0 43 19.5 77.5t55 54.5 81.5 20q45 0 80-20t54.5-54 19.5-75q0-29-11.5-59.5T282 503q16 2 26 2 68 0 120-33.5t80-92T536 247q0-72-26.5-130.5t-77.5-93T309-11q-70 0-121 33zm45.5 474.5q27.5 16.5 43.5 46t16 66.5q0 33-14 60.5T237.5 714 173 731q-36 0-63.5-17T67 669t-15-60q0-36 14-65t41.5-46.5T172 480q34 0 61.5 16.5zM411.5 52Q454 82 476 133.5T498 247q0 63-22.5 114.5T410 443t-101 30-100.5-30.5-65-82T121 247q0-64 22.5-115t65-80.5T310 22t101.5 30z"/><glyph glyph-name="uni10D7" unicode="თ" horiz-adv-x="834" d="M756 257q0 69-18 119t-51 76-76 26q-37 0-66.5-20t-47-57.5T480 313v-63q0-73-24.5-132t-74-94T260-11q-69 0-118.5 33.5t-75.5 93T40 250q0 72 25.5 131.5T140 476t118 35 121-36 75-106h3q7 47 29.5 79t55.5 47.5 72 15.5q53 0 93.5-30.5t63.5-88T794 257q0-74-17-136.5T725 0h-39q70 120 70 257zM360.5 52.5q41.5 30.5 62 82T443 250q0 68-23 119.5t-64.5 80T260 478q-58 0-99-30.5t-62-82T78 250q0-65 21-116.5T161.5 52 261 22t99.5 30.5z"/><glyph glyph-name="uni10D8" unicode="ი" horiz-adv-x="494" d="M399 122q17 63 17 134 0 67-20.5 117.5T337 451t-90 27-90-27-58.5-77T78 256q0-71 17-134T145 0h-38Q74 58 57 119.5T40 256q0 79 25.5 136.5t72.5 88T247 511t109-30.5 72.5-88T454 256q0-75-17-136.5T387 0h-38q33 59 50 122z"/><glyph glyph-name="uni10D9" unicode="კ" horiz-adv-x="488" d="M132.5-184Q84-157 57-109T30 1q0 22 5 47t12 42h37q-8-18-12-42T68 4q0-55 22.5-96.5T153-156t91-22q50 0 89 23.5T393.5-88 415 10t-21 96-56.5 63-78.5 22h-64v33h62q40 0 68.5 18.5T368 290t14 61q0 47-23.5 78.5T291 472v34q64-12 96.5-52.5T420 355q0-50-25-89.5T323 211v-4q39-11 68.5-37.5T437 102t16-92q0-65-26-115t-73.5-78T244-211q-63 0-111.5 27z"/><glyph glyph-name="uni10DA" unicode="ლ" horiz-adv-x="951" d="M585-126.5Q535-98 469-86T342-74H148v30h116v2q-55 15-105.5 52.5T75 110.5 42 257q0 78 20 135.5t58.5 88T212 511q48 0 82.5-30.5T340 392h4q6 38 25.5 65t47 40.5T476 511q49 0 85-31t46-88h4q7 38 27 65t47.5 40.5T744 511q52 0 89.5-30.5T890 393t19-135q0-119-45-212h-39q46 95 46 211 0 69-15 118.5t-44 76-70 26.5q-32 0-58.5-19.5t-41-54T628 328V152h-38v176q0 43-14.5 77T535 458.5 476 478t-59.5-19.5-41-54T361 328V152h-38v176q0 43-13.5 77.5T271 459t-57 19q-42 0-72-27t-46-77-16-117q0-98 46-163.5t111-98T359-41q56-4 101.5-12.5T547-76q65-23 98-56t36-68h-38q-8 45-58 73.5z"/><glyph glyph-name="uni10DB" unicode="მ" horiz-adv-x="538" d="M452.5 112q-25.5-58-74-90.5T264-11q-68 0-118.5 32.5t-78 91.5T40 249q0 81 26.5 140t75.5 90.5T257 511q69 0 114-30t67-86h2v142q0 94-45 142t-122 48q-50 0-88-18.5T126 659t-21-68H68q0 45 26.5 84t73 62.5T273 761q62 0 108.5-26.5T453 659t25-114V246q0-76-25.5-134zM357 49q40 27 61.5 78.5T440 249q0 111-47.5 170T258 478q-52 0-93-28.5T101 369 78 249t22.5-119 65-79.5T265 22q52 0 92 27z"/><glyph glyph-name="uni10DC" unicode="ნ" horiz-adv-x="538" d="M100 395q22 56 67 86t114 30q66 0 115-31.5t75.5-90.5T498 249q0-77-27.5-136t-78-91.5T274-11q-66 0-114.5 32.5t-74 90.5T60 246v336q0 87 49 127.5T247 750h201v-34H248q-51 0-84-13t-49.5-43T98 580V395h2zM372.5 50.5Q415 79 437.5 130T460 249t-23 120-64 80.5-93 28.5q-87 0-134.5-59T98 249q0-70 21.5-121.5T181 49t92-27q57 0 99.5 28.5z"/><glyph glyph-name="uni10DD" unicode="ო" horiz-adv-x="706" d="M629 257q0 68-17 118t-48 76.5-73 26.5q-33 0-60-20t-43-54-16-76V152h-38v176q0 43-16 77t-43 53.5-59 19.5q-43 0-74-27t-47.5-77T78 257q0-68 17.5-134.5T146 0h-38Q73 59 56.5 122.5T40 259q0 77 20.5 134t59.5 88 92 31q49 0 87-31t53-88h4q16 57 53 88t85 31q53 0 91.5-30.5t59.5-88T666 258q0-75-16.5-138.5T598 0h-39q70 120 70 257z"/><glyph glyph-name="uni10DE" unicode="პ" horiz-adv-x="499" d="M139 15Q90 41 62 86.5T34 190q0 19 4 39t9 34h37q-5-15-8.5-34.5T72 192q0-49 22.5-87.5t63-60.5T249 22q50 0 89 23t61 63 22 90q0 54-23.5 96.5T336 360t-80 23h-45v33h54q40 0 67 12.5t40 34 13 46.5q0 32-13.5 53.5T338 598t-53 30q-44 22-71 49t-31 73h38q5-35 27-56.5t61-41.5q37-19 59.5-34.5T407 576t16-65q0-42-25.5-72T325 399v-3q30-8 61-33t52-67 21-98q0-59-26.5-106.5t-74.5-75T249-11 139 15z"/><glyph glyph-name="uni10DF" unicode="ჟ" horiz-adv-x="524" d="M150-186q-47 25-73.5 72.5T50 0q0 16 4 36.5T63 71h36q-5-14-8-34.5T88 2q0-55 22-96t60.5-62.5T257-178q49 0 87 22.5t60 69T426 29v447l-252-39v-2q26-8 46.5-27t31.5-43 11-47q0-39-20.5-69T187 202t-79-17H41v33h64q34 0 61 12.5t42.5 36T224 322q0 28-16 52.5T166 413t-54 14v31l313 48h39V30q0-81-26.5-135t-73-80T257-211q-60 0-107 25z"/><glyph glyph-name="uni10E0" unicode="რ" horiz-adv-x="710" d="M630 257q0 68-17 118t-48.5 76.5T491 478q-33 0-60-20t-42.5-54-15.5-76V152h-37v176q0 43-15.5 77t-42 53.5T219 478q-37 0-68.5-24.5t-51-74T80 257q0-68 17.5-134.5T148 0h-39Q73 60 57.5 127.5T42 299q0 128 33.5 209.5t95 124T321 692l77 14q73 13 87 44h37q-6-33-40-51t-91-28l-73-14q-106-19-163-82.5T77 397h3q11 39 33 64.5t49.5 37.5 56.5 12q49 0 84.5-30.5T354 392h3q16 58 52.5 88.5T494 511q53 0 92-30.5t60.5-87.5T668 258q0-75-16.5-138T600 0h-39q69 118 69 257z"/><glyph glyph-name="uni10E1" unicode="ს" horiz-adv-x="528" d="M162 16.5q-49 27.5-75.5 81T60 225v525h38V227q0-63 21.5-109.5t62-71T276 22q53 0 92.5 22.5t61 60.5 21.5 83q0 41-11 71t-26 50.5-42 49.5q-25 26-39.5 43.5t-26.5 42-16 55.5h38q5-25 15.5-45.5t23.5-37 35-38.5q27-27 45-51.5t30-59.5 12-82q0-56-27-100.5T386 15 276-11q-65 0-114 27.5z"/><glyph glyph-name="uni10E2" unicode="ტ" horiz-adv-x="626" d="M168-167q-61 44-93.5 124.5T42 147q0 105 30 184.5T158.5 457 292 509h5q-2 33-2 101h36q0-69-2-101h5q78-5 134-51t86-126 30-185q0-109-32.5-190T458-167.5 313-211t-145 44zm271.5 30.5Q492-95 519-22t27 169q0 91-25 164t-73 117-115 49l-6 1q4-74 4-113V152h-36v215q0 39 4 111l-6-1q-67-6-115-50t-73-117-25-163q0-95 27-168.5t79.5-115T313-178t126.5 41.5z"/><glyph glyph-name="uni10E3" unicode="უ" horiz-adv-x="540" d="M146-185.5Q97-160 69.5-112T42 1q0 25 6.5 52.5T63 98h37q-8-18-14-45.5T80 4q0-56 23-97t63.5-63 92.5-22q51 0 91 23.5T413-85t23 111v307q0 66-27.5 105.5T328 478q-49 0-75.5-37T226 347v-86h-37v85q0 58-25.5 92.5T85 473H36v34h46q53 0 82.5-21.5T205 417h4q12 46 44.5 70t80.5 24q41 0 72.5-20t49.5-59 18-93V26q0-75-27-128.5t-76-81T259-211q-64 0-113 25.5z"/><glyph glyph-name="uni10E4" unicode="ფ" horiz-adv-x="770" d="M288.5-174.5Q218-138 210-51h38q10-71 70-99t144-28q90 0 152 35t62 115q0 36-16 68t-47 51-74 19h-21v34h33q66 0 102.5 42T690 305q0 173-129 173-36 0-64-18t-44-51-16-78v-43q0-66-23.5-116.5T345 93 239 65q-62 0-107 28.5t-68.5 79T40 288q0 68 25 118.5t69.5 77.5T236 511q41 0 77.5-14t62.5-42.5 37-70.5h3q11 62 50 94.5t96 32.5q80 0 123-50.5T728 307q0-73-30-118.5T613 127v-4q50-20 75.5-59T714-30q0-63-33.5-103.5t-90.5-59T461-211q-102 0-172.5 36.5zm36.5 295q37 23.5 56.5 66.5T401 288q0 62-20.5 104.5t-57 64T239 478q-50 0-87-23.5T95.5 388 76 288q0-56 19-99t56-67.5T238 97t87 23.5z"/><glyph glyph-name="uni10E5" unicode="ქ" horiz-adv-x="511" d="M426-105.5q-25-52.5-71.5-79T244-211q-63 0-109.5 25.5t-72 74T37 3q0 26 6.5 54T58 100h37q-8-18-14-45T75 6q0-56 20.5-97.5t59-64T244-178q52 0 90 23t58.5 67.5T413 21v228q0 72-21 123.5T332 451t-92 27q-43 0-73.5-18.5t-47-51.5-16.5-75q0-13 2.5-29t5.5-26H74q-9 33-9 56 0 51 21.5 91t60 63 87.5 23q65 0 110.5-31.5T411 395h2v355h38V23q0-76-25-128.5z"/><glyph glyph-name="uni10E6" unicode="ღ" horiz-adv-x="707" d="M451.5-137.5Q425-111 382-96.5T284-82H131v30h99v3q-55 16-97.5 56.5T65 111 40 257q0 78 20.5 135.5t59 88T211 511q50 0 87.5-30.5T351 392h4q16 58 53.5 88.5T495 511q53 0 91.5-30.5T646 393t21-135q0-118-44-212h-40q46 98 46 211 0 68-16.5 117.5T565 451t-73 27q-33 0-60.5-19.5T388 405t-16-77V152h-38v176q0 43-16 77t-43.5 53.5T214 478q-42 0-73-27.5T94 373 78 257q0-98 38-165.5T211.5-11 331-53q55-7 97-27.5t65.5-51.5 26.5-68h-37q-5 36-31.5 62.5z"/><glyph glyph-name="uni10E7" unicode="ყ" horiz-adv-x="526" d="M149-191.5q-47 19.5-74.5 59T47-35q0 25 7 46h37q-6-20-6-43 0-46 21.5-79t60-50 89.5-17 88.5 23T402-89.5 422 11v187h-2q-21-53-66.5-84.5T240 82q-57 0-102 27t-71.5 78.5T40 309q0 58 17.5 108t42.5 83h37q-24-37-41.5-87T78 308q0-58 21-102t58.5-67.5T243 115q56 0 96.5 27t61.5 78.5T422 344v156h38V12q0-72-25.5-122t-71-75.5T256-211q-60 0-107 19.5z"/><glyph glyph-name="uni10E8" unicode="შ" horiz-adv-x="540" d="M152 749.5q25-11.5 42-31t24-43.5h3q14 41 47 63.5t76 22.5q41 0 71.5-20t47.5-59 17-93V242q0-76-25.5-133t-74-88.5T266-11q-68 0-118.5 31.5t-78 89.5T42 245q0 81 26.5 139.5t75.5 89T259 504q69 0 114.5-29t66.5-84h2v193q0 67-26.5 105.5T337 728q-30 0-52.5-14.5t-34.5-38-12-51.5v-34h-37v34q0 28-14 51.5T148.5 713 95 727q-31 0-55-5v34q25 5 58 5 29 0 54-11.5zm207.5-701Q399 75 420.5 125T442 245q0 111-47 168.5T260 471q-52 0-93-27.5t-64-79T80 245t22.5-118 65-77.5T267 22q53 0 92.5 26.5z"/><glyph glyph-name="uni10E9" unicode="ჩ" horiz-adv-x="529" d="M435 122.5Q452 184 452 254q0 68-22.5 118.5t-63.5 77-95 26.5q-49 0-88.5-27.5t-62-79T98 247V0H60v564q0 57 20.5 101.5t59.5 70 93 25.5q57 0 96.5-25.5T388 667t19-96h-37q0 43-14.5 78.5t-45.5 57-77 21.5q-43 0-73.5-22t-46-59.5T98 563V393h2q21 53 66.5 84.5T277 509q66 0 113.5-30t73-87.5T489 254q0-75-16.5-136T423 0h-38q33 61 50 122.5z"/><glyph glyph-name="uni10EA" unicode="ც" horiz-adv-x="553" d="M164-171.5Q106-132 74-51T42 150q0 100 28 190.5T142 500h37q-43-66-71-159.5T80 150q0-110 28-183.5t78-109T301-178q58 0 98.5 23t61 63.5T481 2q0 48-22.5 87t-58 61.5T326 173h-51v33h53q41 0 70 12t44.5 33.5T458 301q0 32-13.5 55T407 400q-19 17-31.5 29.5t-23 30T338 500h38q7-25 21.5-42.5T438 417q28-25 43-50.5t15-65.5q0-43-27.5-71T393 190v-3q33-10 62-36t46.5-65T519 1q0-62-25-110t-74.5-75T301-211q-79 0-137 39.5z"/><glyph glyph-name="uni10EB" unicode="ძ" horiz-adv-x="538" d="M145.5 21.5Q95 54 67.5 113T40 249q0 81 26.5 140t75.5 90.5T257 511q69 0 114-30t67-86h2v355h38V246q0-76-25.5-134t-74-90.5T264-11q-68 0-118.5 32.5zM357 49q40 27 61.5 78.5T440 249q0 111-47.5 170T258 478q-52 0-93-28.5T101 369 78 249t22.5-119 65-79.5T265 22q52 0 92 27z"/><glyph glyph-name="uni10EC" unicode="წ" horiz-adv-x="540" d="M500 756v-34q-24 5-55 5-29 0-53.5-14T353 675.5 339 624v-34h-37v34q0 28-12 51.5t-34.5 38T203 728q-52 0-78.5-38.5T98 584V391h2q21 55 66.5 84T281 504q66 0 115-30.5t75.5-89T498 245q0-77-27.5-135t-78-89.5T274-11q-66 0-114.5 31.5t-74 88.5T60 242v347q0 54 17.5 93t48.5 59 72 20q44 0 76.5-22.5T319 675h3q12 36 44.5 61t75.5 25q33 0 58-5zM372.5 49.5Q415 77 437.5 127T460 245t-23 119.5-64 79-93 27.5q-88 0-135-57.5T98 245q0-70 21.5-120t61-76.5T273 22q57 0 99.5 27.5z"/><glyph glyph-name="uni10ED" unicode="ჭ" horiz-adv-x="569" d="M128.5-186Q82-161 57-114T32-1q0 17 4 37.5T45 71h37q-5-14-8.5-34.5T70 1q0-56 20.5-96t58-61.5T238-178q51 0 89.5 23.5t59 68.5T407 21v257h-2q-18-47-60.5-70.5T239 184q-48 0-91.5 17.5t-70.5 53T50 342q0 53 27.5 88.5t73 52.5 99.5 17h157v250h38V500h119v-33H445V23q0-75-25.5-127.5t-72-79.5T238-211t-109.5 25zM328 234.5q36 18.5 57.5 57T407 387v80H247q-43 0-79-13.5T110 412t-22-70q0-41 22-69.5t58.5-42.5 79.5-14q44 0 80 18.5z"/><glyph glyph-name="uni10EE" unicode="ხ" horiz-adv-x="539" d="M159.5 21.5Q111 54 85.5 112T60 246v504h38V395h2q22 56 67 86t114 30q66 0 115-31.5t75.5-90.5T498 249q0-77-27.5-136t-78-91.5T274-11q-66 0-114.5 32.5zm213 29Q415 79 437.5 130T460 249t-23 120-64 80.5-93 28.5q-87 0-134.5-59T98 249q0-70 21.5-121.5T181 49t92-27q57 0 99.5 28.5z"/><glyph glyph-name="uni10EF" unicode="ჯ" horiz-adv-x="476" d="M131-184.5q-47 26.5-73.5 74T31-1q0 16 3 31.5T41 56h36q-8-26-8-54 0-55 22-95.5t60.5-62.5 85.5-22q48 0 86 23.5t60 66T405 9q0 51-21 95t-59.5 70-88.5 26h-25v151H36v32h175v128h36V383h182v-32H247V232q58-3 102.5-33t69-80T443 9q0-63-26.5-113T343-182.5 237-211t-106 26.5z"/><glyph glyph-name="uni10F0" unicode="ჰ" horiz-adv-x="488" d="M134 9Q86 29 59 64.5T32 145q0 29 11 65h37q-4-12-7.5-30.5T69 146q0-36 22.5-64T154 38t90-16q49 0 87 17t58.5 47.5T410 157q0 41-19.5 69.5t-51 43T273 284h-88v33h92q50 0 79.5 19.5T386 393q0 40-30 61t-79 21h-92v33h92q54 0 76 20t22 51q0 25-12 41t-30 25-48 19q-43 15-72.5 35T174 750h37q8-15 22.5-26t34.5-20 40-16q32-12 54-24.5t36.5-33T413 579q0-29-20-52.5T331 494v-3q40-7 66.5-33.5T424 393t-24.5-60-66.5-31v-3q50-12 82.5-49t32.5-94q0-50-25-87.5T352 10 244-11 134 9z"/><glyph glyph-name="uni10F1" unicode="ჱ" horiz-adv-x="555" d="M112 82.5Q40 176 40 371q0 69 13.5 141t36 134T140 750h37q-27-41-49.5-104.5t-36-136T78 371q0-121 30-199t82-114.5T311 21q52 0 89.5 17t57 48 19.5 71q0 44-19 72.5T408 271t-68 13h-68v33h71q51 0 80.5 19.5T453 393q0 40-30 61t-80 21h-71v33h72q99 0 99 71 0 29-15 46.5T384 660q-20 12-33 22t-24.5 27-18.5 41h37q9-24 25.5-39t42.5-31q32-20 49.5-42t17.5-59q0-29-19-52.5T399 494v-3q40-7 66-33.5t26-64.5-24-60.5-65-30.5v-3q50-12 81.5-48.5T515 156q0-50-24-87.5T421 10 310-11q-126 0-198 93.5z"/><glyph glyph-name="uni10F2" unicode="ჲ" horiz-adv-x="503" d="M35-1v33q49 0 93.5 5.5T218 54v2q-60 19-99 59.5T62.5 204 45 297q0 63 25.5 111.5t72 75.5T251 511q63 0 109.5-27t72-75.5T458 297q0-45-17.5-93T384 115.5 285 56v-2q45-11 89-16.5t94-5.5V-1Q346-1 251 35 158-1 35-1zm315.5 129.5q37.5 39.5 53.5 83t16 85.5q0 53-21 94t-59 64-89 23q-50 0-88-23t-59-64-21-94q0-42 15.5-85.5t53.5-83T251 65q62 24 99.5 63.5z"/><glyph glyph-name="uni10F3" unicode="ჳ" horiz-adv-x="502" d="M139-185q-49 26-77 74T34 1q0 22 5.5 46.5T52 90h37q-8-18-12.5-42T72 4q0-55 23-96t64-63.5 92-22.5q50 0 89.5 24.5t62 67.5T425 10q0 52-21.5 93T346 167.5 268 191h-48v33h48q41 0 70 18t43.5 47.5T396 353v114H83v33h351V357q0-53-26-92.5T331 210v-4q39-11 69-39t46.5-68.5T463 10q0-64-26.5-114t-75-78.5T251-211q-63 0-112 26z"/><glyph glyph-name="uni10F4" unicode="ჴ" horiz-adv-x="502" d="M139-185q-49 26-77 74T34 1q0 21 5 46.5T51 90h37q-8-18-12.5-42.5T71 4q0-55 23.5-96t64.5-63.5 92-22.5q50 0 89.5 23.5t61.5 66T424 10q0 52-21 93t-57 64.5-79 23.5h-44v33h46q40 0 69.5 17t45 45.5T399 348v119H236q-51 0-86 18.5T97.5 536 80 610h38q0-50 32-80t94-30h193V352q0-49-25.5-87.5T334 210v-4q38-11 67-39t45.5-68.5T463 10q0-64-26.5-114.5T362-183t-111-28-112 26z"/><glyph glyph-name="uni10F5" unicode="ჵ" horiz-adv-x="553" d="M128 6.5Q86 24 60.5 59T35 143t25.5 83 68.5 50.5 97 16.5h155v174H226q-84 0-136.5 36.5T37 613q0 49 25 82.5t66 49.5 91 16q87 0 143.5-37.5T419 589v-89h119v-33H419V293h119v-32H419v-99q0-96-57-134.5T219-11q-49 0-91 17.5zM381 590q0 75-43.5 106.5T223 728q-66 0-107-29.5T75 613q0-57 41.5-85T221 500h160v90zM337.5 54.5Q381 87 381 162v99H221q-40 0-74-13.5t-54-40T73 143t20-65.5T147 36t76-14q71 0 114.5 32.5z"/><glyph glyph-name="uni10F6" unicode="ჶ" horiz-adv-x="702" d="M230-169h20q34 0 51 7t23.5 25 6.5 54v82q-90 2-155.5 32.5T75 120.5 40 260q0 79 37 136t102.5 86.5T331 513v126q0 42 12 66t37.5 34.5T449 751h20v-33h-20q-34 0-51-7t-23.5-25-6.5-53V513q88-2 154-31.5t102.5-86T661 261q0-82-36.5-140.5T522 31.5 368-1v-89q0-42-12-66t-37.5-34.5T250-202h-20v33zm-32 623.5Q141 428 109.5 378T78 260q0-72 32-123.5t89-78T331 32v450q-76-1-133-27.5zm303.5-396Q559 85 591 136.5T623 261q0 70-32.5 119.5T500 455t-132 27V31q76 1 133.5 27.5z"/><glyph glyph-name="uni10F7" unicode="ჷ" horiz-adv-x="505" d="M141-184q-50 27-79.5 75T32 0q0 67 25 112.5t63 72.5 91 50q50 22 79 38.5t48.5 41.5 19.5 62q0 33-15.5 56T302 467.5 247 479q-28 0-53.5-12.5t-42-37.5-16.5-60H99q0 47 22 79t56.5 47.5T247 511q40 0 73.5-15t53.5-44.5 20-71.5q0-48-23-79.5t-56-51-89-43.5q-47-21-80.5-45T91 97.5 70 0q0-48 24.5-89t66-65 92.5-24q53 0 94.5 24T412-89t23 91q0 54-21 98h37q8-14 14.5-40.5T472 5q0-64-28.5-113T365-184t-113-27q-61 0-111 27z"/><glyph glyph-name="uni10F8" unicode="ჸ" horiz-adv-x="520" d="M156.5-185.5Q111-160 85.5-110T60 12v488h38V344q0-72 21-123.5t61.5-78.5 96.5-27q48 0 85.5 23.5T421 206t21 102q0 55-17.5 105T383 500h37q25-33 42.5-83T480 309q0-70-26.5-121.5T382 109 280 82q-68 0-113.5 31.5T100 198h-2V11q0-58 20-100.5t57.5-65.5 88.5-23 89.5 17 60 50T435-32q0 23-6 43h37q7-21 7-46 0-58-27.5-97.5t-74.5-59T264-211q-62 0-107.5 25.5z"/><glyph glyph-name="uni10F9" unicode="ჹ" horiz-adv-x="507" d="M364 483q50-28 79-81.5T472 275q0-66-26-115.5t-71.5-80T270 38q-64-11-94.5-42T145-77q0-33 15.5-56t40.5-34.5 55-11.5q28 0 54 12.5t42 37.5 16 60h37q0-47-22-79t-56.5-47.5T257-211q-41 0-74.5 15T129-151.5 109-80q0 44 26 78t77 48v3q-51 4-92.5 33.5t-65 79.5T31 275q0 69 28 123t78.5 83.5T252 511q62 0 112-28zm-206.5-30.5Q116 427 92.5 381T69 275q0-61 24-107t65.5-71T252 72q51 0 92.5 25.5T410 169t24 106q0 62-24 108t-65.5 70.5T251 478t-93.5-25.5z"/><glyph glyph-name="uni10FA" unicode="ჺ" horiz-adv-x="472" d="M310.5 43Q287 63 253 75t-73 12H91v29h76v2q-63 19-95 73T40 316q0 56 23.5 100t68 69.5T237 511q62 0 106.5-25t67.5-68 23-97q0-44-17-83h-37q16 40 16 81 0 45-19 81t-54.5 57-85.5 21q-49 0-85-21t-55-58-19-83q0-74 39-127t126-76q55-14 90-43t44-70h-36q-7 23-30.5 43z"/><glyph glyph-name="uni10FD" unicode="ჽ" horiz-adv-x="572" d="M107.5 52Q40 115 40 238h37q1-107 60-161.5T299 22q56 0 100.5 18.5t70 53.5 25.5 85q0 57-24 92.5T402.5 328 284 367q-67 17-115 40t-77.5 64T62 573t29 103 79.5 63.5T285 761q108 0 168-55.5T517 543h-37q-6 91-55 137.5T285 727q-53 0-95.5-18T123 656.5 99 574q0-63 45-105.5T293 401q88-21 139-47t76-67 25-106q0-61-31-104.5T417.5 11 298-11q-123 0-190.5 63z"/><glyph glyph-name="uni10D0.case" horiz-adv-x="531" d="M143 14Q91 45 62 99.5T33 222q0 37 9.5 69.5T65 349h39q-30-60-30-126 0-57 24-103.5T164.5 46 261 19t97 28 67 75 24 103q0 54-17 99t-40.5 78-63.5 80q-31 37-52 69t-34.5 72.5T228 714h40q0-43 12-79.5t31-67 49-66.5q43-51 67.5-85.5t43-83T489 225q0-69-29.5-124T378 14.5 261-17q-66 0-118 31z"/><glyph glyph-name="uni10D1.case" horiz-adv-x="555" d="M157 15q-54 32-85 89.5T41 234q0 67 29 123t82 89.5T273 482v34q0 25-7.5 42T248 584.5 219 609q-17 13-27 24t-18 31-8 50h39q0-31 12-49t34-35q19-14 31.5-27t21.5-32 9-45v-46q56-9 101.5-42.5t72-86.5T513 234q0-70-30-127t-84-90.5T276-17q-65 0-119 32zm221 32q45 28 70.5 77.5T474 234t-26 108.5-71.5 76.5T276 447t-99.5-28-70-77T81 234q0-62 25.5-111T177 46.5 277 19q56 0 101 28z"/><glyph glyph-name="uni10D2.case" horiz-adv-x="563" d="M162.5 13q-54.5 30-88 85.5T41 226q0 65 28 117t76 84.5T252 470q69 13 105 44t36 76q0 33-17.5 57t-46 37-61.5 13q-31 0-60.5-13.5t-48-39T141 584h-40q0 48 25 81t63.5 49.5T267 731q43 0 81-16t61.5-48 23.5-76q0-49-29.5-80.5T322 464v-2q54-5 99.5-37t72.5-84 27-115q0-69-32.5-124.5t-87.5-87T280-17q-63 0-117.5 30zM380 45.5q46 26.5 73.5 74T481 226q0 62-28 110.5t-74 75-99 26.5q-51 0-97-27t-74-75.5T81 226t28-108.5 74-73T281 19q53 0 99 26.5z"/><glyph glyph-name="uni10D3.case" horiz-adv-x="846" d="M496.5 62.5q-35.5 26.5-90 41T290 118H143v32h104v2q-47 13-95 50.5T70.5 307 37 467q0 81 24 140.5t67 91.5 98 32q37 0 69.5-15t55-45 30.5-74h3q23 66 77 100t122 34q62 0 113-32t80.5-88T806 486q0-67-28.5-123t-80-89T580 241t-117.5 32-79.5 87.5T355 486v57q0 46-17 80.5t-45.5 53T231 695q-47 0-81.5-28T96 587.5 77 467q0-99 42-167.5T224.5 195 356 149q91-13 153-51t68-98h-39q-6 36-41.5 62.5zm180.5 243q42 28.5 65.5 76.5T766 486q0 58-24 105.5T675.5 667 580 695q-52 0-94-26t-66.5-73.5T395 486q0-59 24-106.5t66-75 96-27.5 96 28.5z"/><glyph glyph-name="uni10D4.case" horiz-adv-x="545" d="M145.5 8.5Q94 34 64.5 83T35 198q0 26 6 53.5T55 295h39q-8-20-13.5-46T75 202q0-55 24.5-97t67-64T261 19t94 23 66.5 67T446 213v299q0 50-21.5 92t-61 66.5T274 695q-52 0-91-21.5T123.5 616 103 538q0-24 8-53H72q-8 27-8 58 0 52 26.5 95t74.5 68 110 25q61 0 109.5-29t75.5-78.5T487 514V213q0-71-30-123t-81-79.5T261-17 145.5 8.5z"/><glyph glyph-name="uni10D5.case" horiz-adv-x="544" d="M151 9Q97 35 66 83T35 196q0 23 5 48t12 41h39q-8-17-12-40.5T75 201q0-56 27-97t72-63 97-22 96 22 70 61 26 90q0 54-23 93.5T378.5 346 293 367h-51v36h50q41 0 74 17t51.5 49.5T436 546q0 43-21.5 77t-59 53-82.5 19q-47 0-86-19.5T125.5 622 103 546q0-25 6-48H70q-6 24-6 49 0 50 27.5 92.5t75.5 67T274 731q55 0 101.5-23.5t74-65.5 27.5-93q0-35-12.5-67.5T427 424t-59-36v-3q38-9 68.5-35.5T485 282t18-92q0-61-31-108.5t-84-73T271-17q-66 0-120 26z"/><glyph glyph-name="uni10D6.case" horiz-adv-x="593" d="M191.5 15Q137 47 106 103.5T75 230q0 57 22 109.5t73 89.5v2q-47 1-81 20t-52.5 52T18 578q0 45 21 80t58.5 54 84.5 19q45 0 82-19t58.5-53 21.5-76q0-31-11-59t-36-47q10 3 24 3 64-1 117-33t83.5-88T552 233q0-68-30.5-125.5t-85-91T313-17q-67 0-121.5 32zm53 459.5q27.5 15.5 44 42.5t16.5 61q0 35-16.5 62.5T244 683t-63 15q-36 0-64-15t-44-42.5T57 578q0-56 34.5-87.5T186 459q31 0 58.5 15.5zm171-428Q461 75 487 124.5T513 233q0 61-26 109.5t-71 76T315 446q-57 0-102.5-27.5T141 342t-26-109q0-62 26-111t71.5-76.5T314 18t101.5 28.5z"/><glyph glyph-name="uni10D7.case" horiz-adv-x="877" d="M784 328v155q0 72-20 119.5t-54 70-78 22.5q-36 0-67.5-19t-51-59T494 517V245q0-85-28.5-144t-78-88.5T274-17 160 12.5t-79 88T52 244v226q0 85 29 143.5t79 88T272 731q79 0 128.5-37.5T468 594h3q9 41 32.5 72t57.5 48 73 17q55 0 97.5-27t67.5-82.5T824 482V329q0-102-23-184T739 0h-41q86 152 86 328zM366.5 45q40.5 26 64 78T454 250v218q0 114-47 170.5T274 695q-53 0-94-26.5t-64.5-79T92 463V251q0-75 23.5-127T180 45.5 274 19q52 0 92.5 26z"/><glyph glyph-name="uni10D8.case" horiz-adv-x="557" d="M438 156q25 93 25 183v128q0 66-22.5 117.5t-64.5 81-98 29.5-98.5-29.5-65-81T92 467V339q0-90 25-183T176 0h-41q-35 60-59 152.5T52 339v135q0 77 28.5 135t80 90T278 731q65 0 116-32t80-90 29-135V339q0-94-24.5-186T420 0h-42q35 63 60 156z"/><glyph glyph-name="uni10D9.case" horiz-adv-x="533" d="M146.5 10Q93 37 61.5 85.5T30 196q0 23 5 47.5T47 285h39q-7-18-11.5-41.5T70 199q0-54 26.5-95t71-63T264 19q50 0 93.5 23.5t69 66.5 25.5 99q0 55-24 98t-63 67-83 24h-67v36h70q42 0 72.5 16.5t47 44T421 553q0 54-28.5 89T314 687v37q71-13 108.5-57.5T460 557q0-33-14-62.5t-39-50-58-28.5v-2q44-11 76.5-40t50-72.5T493 206q0-64-30.5-115t-83-79.5T264-17q-64 0-117.5 27z"/><glyph glyph-name="uni10DA.case" horiz-adv-x="979" d="M620 73.5Q568 102 499.5 114T370 126H144v32h126v3q-53 14-106.5 53.5t-90 107T37 480q0 77 21 134t60 87 92 30q33 0 61.5-14t48.5-41 28-64h3q7 38 27.5 65t49.5 40.5 60 13.5 60.5-13.5 50-40.5 27.5-65h3q8 37 28.5 63.5t49 41T767 731q52 0 91-32.5t59.5-92T938 467q0-58-13-113t-36-104h-41q23 51 36.5 106T898 465q0 71-15.5 123T837 667.5 766 695q-36 0-63-19.5t-41.5-53T647 547V354h-40v193q0 45-15.5 78.5T549 677t-61 18q-33 0-60-18.5t-43-52-16-77.5V354h-40v193q0 42-15 75.5t-42 53-61 19.5q-42 0-72-25.5T93 596 77 483q0-105 51-176t121.5-106.5T378 161q60-4 115-11.5T598 124q53-19 85.5-51.5T720 0h-40q-8 45-60 73.5z"/><glyph glyph-name="uni10DB.case" horiz-adv-x="567" d="M156 14.5q-53 31.5-84 90T41 241q0 68 29.5 125t81 90T266 489q43 0 83.5-14.5t71-42.5 44.5-66h2v136q0 64-25 107.5T376 674t-91 21q-45 0-84-17.5T137.5 630 110 565H69q4 43 33.5 81t78 61.5T285 731q62 0 112.5-26.5T478 628t30-117V241q0-78-31-136.5t-84-90T274-17q-65 0-118 31.5zm218 32Q418 74 442.5 124T467 240q0 65-25 113t-69.5 74T271 453q-54 0-97.5-29t-68-77.5T81 240q0-65 25-115.5t69-78T274 19q56 0 100 27.5z"/><glyph glyph-name="uni10DC.case" horiz-adv-x="567" d="M98 365q14 38 44.5 65.5t71 42.5 84.5 15q63 0 114.5-33t81-89.5T523 241q0-78-31-136.5t-84-90T290-17q-66 0-119.5 31.5t-84 90T56 240v311q0 87 44.5 125T236 714h229v-37H237q-72 0-106.5-29.5T96 549V365h2zM389 46.5Q433 74 458 124t25 115q0 58-24.5 107t-68 77.5T293 452q-57 0-102-25.5t-70.5-74T95 239t25-115 69.5-77.5T290 19q55 0 99 27.5z"/><glyph glyph-name="uni10DD.case" horiz-adv-x="777" d="M657 152q26 84 26 179v151q0 71-19.5 119t-53 71-75.5 23q-37 0-66.5-20t-46-56-16.5-82V214h-40v323q0 46-16.5 82t-46 56-65.5 20q-42 0-75.5-24t-53-73T90 478V331q0-94 26-180.5T180 0h-42Q99 67 74.5 150.5T50 331v150q0 82 23.5 138t65.5 84 96 28q34 0 65.5-14.5t54-42T385 609h3q8 38 30.5 65.5t54 42T538 731q54 0 96-27t65.5-83T723 482V331q0-100-25-183T633 0h-42q40 68 66 152z"/><glyph glyph-name="uni10DE.case" horiz-adv-x="519" d="M141.5 9Q90 35 60 79.5T30 179q0 33 12 67h39q-11-33-11-62 0-47 24-85t66.5-59T255 19q50 0 91.5 21.5t65.5 59 24 83.5q0 51-22.5 90.5t-59 61T276 356h-60v36h73q37 0 63 12t38.5 32 12.5 43q0 28-12.5 48t-32 33-50.5 28q-37 18-58 31.5t-38 37-21 57.5h40q4-25 18.5-43.5t34-30.5 51.5-28q36-18 57-32.5t36-39 15-59.5q0-39-25.5-68T346 374v-3q29-7 59-30.5t50.5-63.5 20.5-94q0-56-29-102T367.5 9 255-17 141.5 9z"/><glyph glyph-name="uni10DF.case" horiz-adv-x="551" d="M153 8.5Q101 34 70 82T39 195q0 17 4 37.5t9 34.5h39q-5-14-8-35t-3-36q0-53 26.5-93t69-62T265 19q49 0 91.5 22t68.5 68 26 114v464l-256-38v-2q28-8 49-26.5t32-44 11-53.5q0-40-20.5-70T208 406t-90-17H43v34h71q40 0 71 12.5t48 36.5 17 56q0 36-21 61t-53 37.5-64 12.5v32l326 48h53V221q0-79-31-132.5T378 9 265-17q-60 0-112 25.5z"/><glyph glyph-name="uni10E0.case" horiz-adv-x="715" d="M631 245q0 63-16.5 109.5t-47 71.5-71.5 25q-33 0-60.5-19T392 380.5 376 309V145h-40v164q0 40-15.5 72.5t-42 51T219 451q-37 0-68-22t-50-68-19-114q0-65 18.5-128T152 0h-40Q75 63 58 126.5T41 284q0 122 32 199t90 116 142 56l92 17q32 6 53.5 15.5T480 714h41q-6-33-39-50.5T391 635l-84-17q-102-20-157-78T77 377h3q11 37 34 61.5t51 36 56 11.5q30 0 57.5-13t48-39 29.5-61h2q10 35 31.5 61t50 39 58.5 13q52 0 91-29t60.5-83T671 248q0-70-18-130T600 0h-42q73 124 73 245z"/><glyph glyph-name="uni10E1.case" horiz-adv-x="550" d="M171 11q-52 28-82.5 82.5T58 226v488h40V229q0-67 25.5-114.5T192 43t95-24 94 21 66 57 24 79q0 36-9.5 64t-25 48.5T398 331q-27 27-42 45t-27.5 42.5T313 472h40q5-31 24-57.5t53-61.5q26-27 42.5-49.5t27.5-55 11-76.5q0-54-29.5-97.5T400.5 7 287-17q-64 0-116 28z"/><glyph glyph-name="uni10E2.case" horiz-adv-x="674" d="M183.5 27Q117 71 79 153T41 344q0 105 35.5 185T174 654.5 314 706h5q-1 8-1 35h35q0-19-2-35h6q79-5 141-50t97.5-125.5T631 344q0-110-38-191.5T487.5 27 335-17 183.5 27zM468 60.5q58 41.5 90.5 115T591 344q0 92-30 164.5T478 624t-120 48l-6 2q4-49 4-114V334h-40v229q0 63 4 111l-6-1q-68-6-121-49.5t-82.5-116T81 344q0-94 32-168t90-115.5T335 19q75 0 133 41.5z"/><glyph glyph-name="uni10E3.case" horiz-adv-x="574" d="M162.5 9Q108 35 76 84T44 198q0 26 6.5 53T65 293h39q-8-18-13.5-45T85 199q0-54 27-95t72-63 97-22 97 23.5 72 69.5 27 111v328q0 42-14 74.5t-40.5 51T360 695q-34 0-58.5-17.5t-38-47T250 564V438h-40v129q0 55-25 88.5T110 689H45v37h58q54 0 85-22.5t41-68.5h3q13 46 49 71t85 25q43 0 77-21t54-60 20-91V221q0-74-32-128t-85.5-82T281-17q-64 0-118.5 26z"/><glyph glyph-name="uni10E4.case" horiz-adv-x="782" d="M330.5.5Q274 18 236.5 56T193 154h41q10-73 72.5-104T452 19q54 0 105.5 16.5t85 52.5 33.5 90q0 39-17 73t-49 54-74 20h-29v36h47q42 0 75 21.5t51.5 59.5 18.5 85q0 54-17.5 92T633 676.5 562 696q-37 0-67.5-18T446 626.5 428 548v-42q0-66-24-116.5T334.5 311 227 283t-106.5 28.5T53 390 30 506q0 68 24.5 119t69 78.5T225 731q41 0 77.5-14t63-42.5T404 604h3q8 39 31 68t56 44 70 15q52 0 91.5-24t61.5-69.5T739 530q0-49-16.5-88t-44-64-62.5-36v-4q47-19 73.5-62.5T716 175q0-63-37-106.5T582 4 452-17Q387-17 330.5.5zM313 341q37 23 57 65.5t20 99.5q0 62-21 105t-57.5 64.5T227 697q-49 0-85-23.5T87 607 68 506q0-55 19-97.5t54.5-66.5 84.5-24q50 0 87 23z"/><glyph glyph-name="uni10E5.case" horiz-adv-x="539" d="M143.5 8.5Q93 34 64 81T35 191q0 11 2.5 27.5T44 247h38q-3-13-5-27.5T75 193q0-52 24-91.5T164 40t92-22q52 0 93.5 22.5T415 106t24 102v151q0 64-25 113t-66.5 76-90.5 27q-45 0-79.5-19.5T124 502t-19-75q0-23 5-41H71q-6 17-6 43 0 52 24.5 93t67 64 94.5 23q46 0 83.5-16.5T398 548t39-62h2v228h40V206q0-71-29-121T370.5 9 256-17q-62 0-112.5 25.5z"/><glyph glyph-name="uni10E6.case" horiz-adv-x="735" d="M430.5 86.5Q382 118 301 118H132v32h114v3q-52 14-100 56.5t-78.5 109T37 467q0 78 22.5 138t63.5 93 94 33q55 0 94-30.5t54-87.5h3q16 58 55 88t92 30 94-31 64-88.5T696 476q0-119-43-211h-41q44 96 44 210 0 67-18 117t-51 76.5-75 26.5q-36 0-64.5-19.5t-45-53T386 547V354h-40v193q0 43-16 77t-45 52.5-65 18.5q-42 0-74.5-29T95 585 77 467q0-98 42.5-167.5t105.5-106T350 149q54-7 92.5-28.5T502 68t26-68h-40q-9 55-57.5 86.5z"/><glyph glyph-name="uni10E7.case" horiz-adv-x="560" d="M165.5 3Q113 23 80 63.5T47 162q0 28 8 50h39q-6-21-6-46 0-46 26-79t69-50.5T277 19q52 0 93.5 22t65.5 65 24 104v203h-2q-13-36-42-63t-69-42-85-15q-57 0-108 27.5T72 399 41 516q0 61 17 112.5t42 85.5h40q-24-36-41.5-87T81 520q0-58 26-101.5t69-66.5 92-23q53 0 97.5 26t70 71.5T461 526v188h39V207q0-73-30-123.5T389.5 8 277-17q-59 0-111.5 20z"/><glyph glyph-name="uni10E8.case" horiz-adv-x="567" d="M155 14q-53 31-84 88T40 236q0 68 29.5 123.5T151 447t115 32q67 0 120.5-30t79.5-86h2v194q0 41-14 72.5t-39 49-58 17.5q-32 0-56-14t-37.5-39-13.5-56v-26h-40v33q0 27-12 49t-35 34.5-54 12.5H56v36h56q43 0 75-21.5t41-58.5h2q15 44 51 64.5t80 20.5q41 0 74.5-19.5t53-57T508 565V236q0-76-31-133.5T392.5 14 274-17q-66 0-119 31zm219.5 32Q419 73 444 122t25 113-25.5 111-70.5 72-102 25q-54 0-97.5-28t-68-75.5T81 235q0-64 25-113t69-76 99-27q56 0 100.5 27z"/><glyph glyph-name="uni10E9.case" horiz-adv-x="554" d="M160.5 673Q129 651 112 614t-17-81V359h2q14 38 44 67t70.5 45.5T296 488q59 0 108-29.5t78-84.5 29-130q0-70-19-129T440 0h-40q34 63 52 119.5T470 242q0 64-24.5 112t-66 73-90.5 25q-55 0-99-27.5t-69.5-77T95 234V0H56v535q0 54 22 99t62 71 92 26q54 0 96-25t65-67 23-92h-39q0 39-18.5 73T307 674.5 233 695t-72.5-22z"/><glyph glyph-name="uni10EA.case" horiz-adv-x="606" d="M180 26Q116 69 78.5 153T41 356q0 110 31.5 196.5T156 714h39Q81 544 81 356q0-108 33.5-184.5t89-114.5T324 19q58 0 103 22.5t70.5 63.5 25.5 93q0 49-21.5 89.5T441 352t-89 24h-62v36h83q39 0 67.5 11.5t44 33T500 506q0 23-9 41.5T469 580t-34 33-33.5 32-22.5 30.5-14 38.5h38q6-24 21-41.5t43-41.5q25-22 39-37.5t24-37.5 10-50q0-43-28-72t-76-41v-3q36-10 65-38t45.5-68.5T563 196q0-61-29.5-109.5t-84-76T324-17q-80 0-144 43z"/><glyph glyph-name="uni10EB.case" horiz-adv-x="568" d="M156 14.5q-53 31.5-84 90T41 241q0 68 29.5 125t81 90T266 489q43 0 83.5-15.5t71.5-44 45-67.5h2v352h40V241q0-78-31-136.5t-84-90T274-17q-65 0-118 31.5zm218.5 32Q419 74 444 124.5T469 240t-25.5 113-70.5 74-102 26q-54 0-97.5-29t-68-77.5T81 240q0-65 25-115.5t69-78T274 19q56 0 100.5 27.5z"/><glyph glyph-name="uni10EC.case" horiz-adv-x="568" d="M172.5 14q-53.5 31-84 88T58 236v329q0 52 19.5 89.5t52.5 57 74 19.5q44 0 80-20.5t51-64.5h2q10 37 42 58.5t74 21.5h56v-36h-53q-31 0-53.5-12.5T368 643t-12-49v-33h-40v26q0 31-13.5 56t-38 39-56.5 14q-33 0-58-17.5t-38.5-49T98 557V363h2q26 56 79.5 86T300 479q63 0 114.5-32t81-87.5T525 236q0-77-31-134t-84-88-119-31q-65 0-118.5 31zM391 46q44 27 69 76t25 113q0 57-24.5 104.5t-68 75.5-97.5 28q-57 0-102-25t-70.5-72T97 235t25-113 69-76 100-27 100 27z"/><glyph glyph-name="uni10ED.case" horiz-adv-x="601" d="M146.5 8.5Q96 34 66.5 81T37 191q0 11 2.5 26t6.5 26h39q-3-13-5-26.5T78 191q0-51 24-90t65.5-60.5T260 19t92.5 21.5T418 104t24 101v212h-2q-21-48-73.5-75T246 315q-47 0-89 16.5t-68.5 50T62 463t26.5 80 69 47 91.5 15h193v110h41V605h101v-34H483V208q0-71-29-122T374 9 260-17 146.5 8.5zm198 358.5q42.5 18 70 56t27.5 94v54H256q-68 0-111.5-26.5T101 464q0-36 21-62t56.5-39.5T256 349q46 0 88.5 18z"/><glyph glyph-name="uni10EE.case" horiz-adv-x="568" d="M173 14.5q-53 31.5-84 90T58 241v473h40V366h2q14 37 44.5 65t71 43 84.5 15q63 0 114.5-33t81-90T525 241q0-78-31-136.5t-84-90T291-17q-65 0-118 31.5zm218 32q44 27.5 69 78T485 240q0 58-24.5 106.5t-68 77.5-97.5 29q-57 0-102-26t-70.5-74T97 240t25-115.5 69-78T291 19t100 27.5z"/><glyph glyph-name="uni10EF.case" horiz-adv-x="531" d="M150.5 9.5Q98 36 66.5 84T35 193q0 16 3 35.5t7 31.5h38q-3-11-5.5-29T75 197q0-54 27-94t70.5-61.5T264 20q47 0 90 22t70 64.5 27 99.5q0 58-24.5 102.5t-66 69T269 402h-28v169H47v34h194v117h38V605h195v-34H279V438q59-4 107.5-32.5t77-80T492 204q0-65-31.5-115.5t-84-78T264-17q-61 0-113.5 26.5z"/><glyph glyph-name="uni10F0.case" horiz-adv-x="524" d="M144.5.5Q93 18 61.5 54T30 141q0 25 9 55h38q-7-30-7-46 0-44 26-74t68-44 91-14q50 0 92.5 13.5t68 42.5 25.5 72q0 39-18 66t-49.5 40.5T302 266H197v35h116q49 0 77 17.5t28 53.5q0 37-29 57t-76 20H197v34h114q97 0 97 63 0 22-13.5 36.5t-35 24T305 626q-35 10-57 19.5T209 671t-22 41h37q9-21 33.5-33.5T328 652q39-13 63-24t40.5-31 16.5-52q0-28-17.5-49T373 467v-2q38-5 62-31t24-62q0-37-22-59t-61-29v-2q48-12 76.5-46t28.5-90q0-53-31-89.5t-82.5-55T255-17Q196-17 144.5.5z"/><glyph glyph-name="uni10F1.case" horiz-adv-x="595" d="M190.5 24Q123 65 81 149T39 356q0 192 108 358h39q-47-74-77-165.5T79 356q0-113 37.5-189T213 54.5 338 18q50 0 89.5 16.5T489 80t22 66q0 40-19 67t-50 39.5-67 12.5h-94v35h105q48 0 75 18t27 53q0 37-28 57t-74 20H281v35h102q51 0 72.5 17.5T477 545q0 21-7 35.5t-17.5 24T423 626q-19 14-30.5 23.5t-23 25.5-17.5 39h39q9-22 24-36.5t40-31.5q21-15 34-26.5t21.5-29.5 8.5-44q0-28-18-50t-57-29v-2q37-6 61-32t24-62q0-69-83-88v-2q47-12 76-47t29-90q0-47-27-83.5t-75.5-57T337-17q-79 0-146.5 41z"/><glyph glyph-name="uni10F2.case" horiz-adv-x="557" d="M278 57q-50-27-102.5-42T73 0v36q42 0 87.5 10.5T246 77v2q-60 35-106 89T67.5 294.5 41 453q0 81 31.5 144.5T158 696t120 35 120-35 85.5-98.5T515 453q0-86-26.5-158.5T416 168 310 79v-2q39-20 84.5-30.5T482 36V0q-98 0-204 57zm142.5 184Q474 332 474 452q0 70-26 125.5T377.5 664 278 695t-100-31-71-86.5T81 452q0-120 53.5-211T278 95q89 55 142.5 146z"/><glyph glyph-name="uni10F3.case" horiz-adv-x="544" d="M153.5 9Q99 35 67 83.5T35 196q0 23 5.5 48T53 285h39q-8-17-12-41t-4-45q0-53 27-94t72-63.5T272 19q50 0 93.5 25t69.5 68 26 95q0 51-21 92.5T383.5 364 306 387h-65v36h66q41 0 70 18t43.5 47 14.5 63v125H84v36h391V555q0-53-26.5-93.5T372 406v-2q39-11 68.5-40t45.5-70.5 16-89.5q0-63-31-113.5t-83.5-79T272-17q-64 0-118.5 26z"/><glyph glyph-name="uni10F4.case" horiz-adv-x="543" d="M153.5 9Q99 35 67 83.5T35 196q0 22 5 46.5T52 282h39q-7-17-11-40.5T76 199q0-53 27-94t72-63.5T272 19q51 0 94 21t69 60.5 26 91.5q0 46-22.5 82.5t-59.5 57-79 20.5h-57v36h63q41 0 70.5 17.5t44 47T435 516v64H238q-51 0-85.5 18.5t-51 50T85 719h40q0-46 29.5-75t89.5-29h231v-95q0-53-26.5-93.5T372 371v-3q37-10 66-35t46-62 17-82q0-59-30.5-106t-83-73.5T272-17q-64 0-118.5 26z"/><glyph glyph-name="uni10F5.case" horiz-adv-x="596" d="M141 .5Q95 18 68 53t-27 84 25 82.5 68 50.5 96 17h194v150H230q-54 0-96 16t-66.5 48.5T43 583t27 82 72.5 49.5T245 731q54 0 103.5-16.5T431 658t33-105v-80h116v-36H464V287h116v-35H464v-89q0-65-33.5-105.5T347 0 243-17Q187-17 141 .5zM424 551q0 51-25 83.5T335 682t-84 15q-50 0-88-13t-59.5-38.5T82 583t20-61.5 53-36.5 73-12h196v78zM334 32q40 15 65 47.5t25 83.5v89H227q-40 0-73-13t-53-39-20-63 21.5-64T162 31.5 249 17q45 0 85 15z"/><glyph glyph-name="uni10F6.case" horiz-adv-x="724" d="M241 33h19q34 0 51 7.5T334.5 66t6.5 53v82q-92 2-159.5 33t-104 88.5T41 461q0 79 38.5 135.5T186 683t155 32v27h39l-1-27q89-3 157.5-32.5T643 597t38-134q0-82-38-140t-106-88.5T380 201v-89q0-42-12.5-66T329 11.5 261 0h-20v33zm-36.5 620.5Q146 627 113.5 578T81 461q0-72 32.5-122t91-76T341 235v447q-78-2-136.5-28.5zm312-390.5q58.5 26 91.5 76.5T641 463q0 70-33.5 118.5t-92.5 73T380 682V235q78 2 136.5 28z"/><glyph glyph-name="uni10F7.case" horiz-adv-x="559" d="M349.5 715q37.5-16 61-48t23.5-76q0-46-22-77.5T357.5 462 269 416q-63-29-100.5-53t-64-65T78 195q0-48 27.5-89T179 41t99-24q55 0 101 24t72.5 65 26.5 89q0 57-22 101h40q8-14 15-42.5t7-58.5q0-62-33-110.5t-88-75T277-17q-62 0-117 26.5T71.5 84 38 195q0 72 29.5 119t71.5 73.5T247 444q51 24 79.5 41t48 42.5T394 589q0 53-35 80.5T269 697q-32 0-61-13t-47.5-39-18.5-61h-40q0 48 25.5 81t64 49.5T269 731q43 0 80.5-16z"/><glyph glyph-name="uni10F8.case" horiz-adv-x="558" d="M176 8.5Q122 34 88.5 84T55 206v508h40V526q0-55 25.5-100t70-71 97.5-26q48 0 91 23t69.5 66.5T475 519q0 55-17.5 107T416 714h39q25-36 42.5-87T515 516q0-66-31-117t-82-78.5T294 293q-46 0-86 15t-69 42-42 63h-2V210q0-61 28-104.5T196 40t95-22q45 0 86 17.5t66 51 25 78.5q0 22-7 46h39q8-21 8-51 0-55-31-95T396 4 291-17q-61 0-115 25.5z"/><glyph glyph-name="uni10F9.case" horiz-adv-x="559" d="M395 701q55-30 88.5-85.5T517 488q0-65-28-117t-76-84.5T306 244q-70-13-106-44t-36-76q0-33 17.5-57t46-37T289 17q32 0 61.5 13t48 39 18.5 61h40q0-48-25.5-81t-64-49.5T290-17q-43 0-80.5 16t-61 48-23.5 76q0 49 29.5 80.5T236 250v2q-55 5-100.5 37t-72 84T37 488q0 69 32.5 124.5t87.5 87T277 731q63 0 118-30zm-217-32.5q-46-26.5-74-74T76 488q0-62 28-110.5t74.5-75T277 276t98 27 74 75.5T477 488t-28 108.5-74.5 73T276 695t-98-26.5z"/><glyph glyph-name="uni10FA.case" horiz-adv-x="547" d="M361.5 62.5Q339 89 302.5 103T219 117H110v33h112v2q-48 21-89 58.5T66 309 40 452q0 91 31.5 154t84 94T272 731q65 0 117.5-31t83.5-94 31-155q0-29-5-59.5t-12-54-12-32.5h-39q11 25 19.5 63.5T464 451q0 79-26 134t-69.5 82.5T272 695t-96.5-27.5T106 585 80 452q0-226 234-313 47-18 78.5-55T428 0h-40q-4 36-26.5 62.5z"/><glyph glyph-name="uni10FD.case" horiz-adv-x="614" d="M496.5 674Q568 617 573 510h-44q-2 58-30.5 99T419 671.5 300 693q-56 0-100.5-17.5t-70-52T104 541q0-44 19-72t70.5-48.5T342 383q94-17 148-43t77.5-64 23.5-92q0-67-36-112T461.5 5 339-17q-94 0-161 28T75 94.5 39 231v5h44v-14q0-65 31-110t88.5-68T339 21q52 0 99.5 17t78 53.5T547 184q0 44-20.5 74.5T455 311t-145 39q-97 18-151.5 43T82 453.5 60 541q0 59 31.5 102t86 65.5T300 731q125 0 196.5-57z"/><glyph glyph-name="uni10FC" unicode="ჼ" horiz-adv-x="360" d="M101 428q-33 40-33 111v182q0 53 26 76t81 23h113v-27H177q-41 0-59.5-17.5T99 721V621h1q9 26 35 44.5t62 18.5q37 0 64-19t41.5-52 14.5-74q0-71-33-111t-92-40q-58 0-91 40zm159.5 22q24.5 33 24.5 89 0 31-10.5 57.5T243 639t-49 16q-45 0-70-31t-25-85q0-56 24.5-89t68.5-33 68.5 33z"/><glyph glyph-name="uni10FE" unicode="ჾ" horiz-adv-x="508" d="M144.5 16Q98 43 72.5 91.5T47 203q0 45 17.5 93t56.5 88.5 99 59.5v2q-45 11-89.5 16.5T37 468v33q123 0 216-36 95 36 217 36v-33q-50 0-94-5.5T287 446v-2q60-19 99-59.5t56.5-88.5 17.5-93q0-63-25.5-111.5t-72-75.5T253-11q-62 0-108.5 27zM342 45q38 23 59 64t21 94q0 42-16 85.5t-53.5 83T253 435q-61-24-99-63.5t-53.5-83T85 203q0-53 21-94t59-64 88-23q51 0 89 23z"/><glyph glyph-name="uni10FF" unicode="ჿ" horiz-adv-x="533" d="M146 22.5q-51 33.5-78.5 93T40 250q0 72 26.5 131.5T144 476t123 35q68 0 119-33.5t79-93T493 250q0-72-26-131.5T389.5 24 266-11q-69 0-120 33.5zM368.5 53Q411 84 433 136t22 114q0 63-22.5 115T367 447.5 266 478q-59 0-101.5-30.5T100 365 78 250q0-64 22.5-116t65-82T267 22t101.5 31z"/><glyph glyph-name="uni10FE.case" horiz-adv-x="557" d="M394.5 667.5Q349 657 310 637v-2q60-35 106-89t72.5-126.5T515 261q0-81-31.5-144.5T398 18 278-17 158 18t-85.5 98.5T41 261q0 86 26.5 158.5T140 546t106 89v2q-40 20-85.5 30.5T73 678v36q50 0 102.5-15T278 657q106 57 204 57v-36q-42 0-87.5-10.5zM134.5 473Q81 382 81 262q0-70 26-125.5T178 50t100-31 99.5 31 70.5 86.5T474 262q0 120-53.5 211T278 619q-90-55-143.5-146z"/><glyph glyph-name="uni10FF.case" horiz-adv-x="674" d="M185 28.5Q118 74 79.5 159T41 357q0 109 37 194t104 132.5T336 731q85 0 152-44t105-128.5T631 357t-40-201.5T484 27 336-17q-84 0-151 45.5zm281 30Q524 99 557.5 176T591 357q0 100-32.5 177T468 653.5 335 696q-74 0-131.5-42.5t-90-119.5T81 357q0-98 32-175t90-120.5T336 18q72 0 130 40.5z"/><glyph glyph-name="uni00AD" unicode="­" horiz-adv-x="352" d="M283 253H69v38h214v-38z"/><glyph glyph-name="guillemotleft" unicode="«" horiz-adv-x="389" d="M181 372L96 272l85-102v-49L67 252v40l114 131v-51zm128 0l-85-100 85-102v-49L195 252v40l114 131v-51z"/><glyph glyph-name="guillemotright" unicode="»" horiz-adv-x="389" d="M194 292v-40L80 121v49l85 102-85 100v51zm128 0v-40L208 121v49l85 102-85 100v51z"/><glyph glyph-name="uni10FB" unicode="჻" horiz-adv-x="467" d="M160 413h-43v101h43V413zm242-206h-42v102h42V207zM160 0h-43v101h43V0z"/><glyph glyph-name="uni10FB.case" horiz-adv-x="472" d="M162 585V479h-47v106h47zm246-202V277h-47v106h47zM162 179V73h-47v106h47z"/><glyph glyph-name="uni00A0" horiz-adv-x="278"/><glyph glyph-name="uniFEFF" horiz-adv-x="0"/><glyph glyph-name="Euro" unicode="€" d="M461 673.5q48-28.5 69-78.5l-21-38q-15 49-56.5 80.5T336 669q-103 0-156-64.5T116 430h332l-15-33H113q-2-17-2-50 0-31 2-46h283l-15-33H117q8-66 32.5-121.5T221 56t118-35q59 0 104.5 19.5T522 99V53q-34-32-83-48.5T336-12q-77 0-131.5 35T118 120.5 77 268H12l15 33h47q-1 14-1 42 0 36 2 54H12l15 33h50q7 77 36.5 138t85.5 97.5T337 702q76 0 124-28.5z"/><glyph glyph-name="Delta" unicode="∆" horiz-adv-x="593" d="M323 714L605 0H-12l287 714h48zM50 38h492L301 671h-2z"/><glyph glyph-name="Omega" unicode="Ω" horiz-adv-x="741" d="M536 688q76-43 121.5-121.5T703 386q0-219-192-345v-3h192V0H450v39q107 65 157.5 149T658 386q0 83-35.5 153.5T521 651.5 370 693q-83 0-148.5-40t-102-110.5T83 386q0-114 48.5-198T288 39V0H39v38h185v3q-91 59-138.5 146T38 386q0 94 41 173t116 125.5T370 731q90 0 166-43z"/><glyph glyph-name="uni2219" unicode="∙" horiz-adv-x="278" d="M177.5 355q16.5-16 16.5-38t-16-38.5-39-16.5q-22 0-38 16.5T85 317q0 13 7.5 25.5t20 20.5 26.5 8q22 0 38.5-16z"/><glyph glyph-name="uni2215" unicode="∕" horiz-adv-x="167" d="M336 714L-129-24h-40l465 738h40z"/><glyph glyph-name="mu" unicode="µ" horiz-adv-x="528" d="M103 514V184q0-81 37-122t109-41q56 0 98 27.5t64.5 75.5T434 232v282h38V0h-38v110h-2q-14-38-42-65.5t-65-42T248-12q-50 0-87 17.5T103 56v-240H65v698h38z"/><glyph glyph-name="uni2113" unicode="ℓ" horiz-adv-x="500" d="M347.5 689.5Q372 658 372 603q0-69-40-150.5T211 279V107q0-43 21-67.5T292 15q24 0 47.5 10.5T381 55l15-20q-22-23-51-36t-59-13q-52 0-81 31t-29 88v148l-61-69-16 20 77 83v274q0 47 13.5 83.5T227 701t55 20q41 0 65.5-31.5zm-40-226.5Q342 537 342 599q0 28-8 50t-21.5 33.5T282 694q-31 0-51-34.5T211 553V314q62 75 96.5 149z"/><glyph glyph-name="uni2116" unicode="№" horiz-adv-x="950" d="M118 690L529 59h2v631h44V0h-52L109 636h-2V0H63v690h55zm721-292q30-18 46.5-51t16.5-76q0-42-16.5-75T839 144.5 768 126t-71.5 18.5-46.5 51-16 75.5 16.5 75.5 47 51T768 416q41 0 71-18zM697 190q26-30 71-30 46 0 71.5 30t25.5 81q0 49-25.5 80T768 382q-45 0-71-29.5T671 271q0-51 26-81zM910 0H636v40h274V0z"/></font>
</defs>
</svg>
