<svg xmlns="http://www.w3.org/2000/svg" viewBox="0 0 22.007 21.095"><defs><style>.a{fill:#fff}</style></defs><path class="a" d="M21.701 2.271L19.732.305a1.044 1.044 0 0 0-1.475 0l-1.575 1.57 3.443 3.437 1.575-1.57a1.039 1.039 0 0 0 .001-1.471zm-15.24 9.808l3.443 3.438 9.485-9.468-3.443-3.442zm-.743.735l-.735 4.17 4.179-.733z"/><path class="a" d="M15.237 18.842H2.254V5.86h9.162l2.258-2.254H1.458A1.462 1.462 0 0 0 0 5.064v14.575a1.462 1.462 0 0 0 1.458 1.456h14.575a1.461 1.461 0 0 0 1.457-1.457V9.218l-2.254 2.25v7.374z"/></svg>