<svg xmlns="http://www.w3.org/2000/svg" viewBox="0 0 17.213 18.466"><defs><style>.a{fill:#7a7a7a}</style></defs><path class="a" d="M12.126 6.366l-1.445-.053-.313 8.558 1.445.053zM7.883 6.34h1.446v8.558H7.883zm-1.037 8.531l-.313-8.558-1.445.053.313 8.558z"/><path class="a" d="M0 2.772v1.446h1.507l1.2 13.588a.723.723 0 0 0 .72.66h10.338a.723.723 0 0 0 .72-.66l1.2-13.587h1.532V2.772zm13.1 14.247H4.085l-1.126-12.8h11.27z"/><path class="a" d="M10.968 0H6.243a1.207 1.207 0 0 0-1.205 1.205V3.5h1.446V1.446h4.243V3.5h1.446V1.205A1.207 1.207 0 0 0 10.968 0z"/></svg>