<svg xmlns="http://www.w3.org/2000/svg" viewBox="0 0 40.637 40.581"><defs><style>.a{fill:#64cbc7;stroke:#64cbc7}</style></defs><path class="a" d="M20.603 3.801a3.918 3.918 0 0 0-3.59 4.168.826.826 0 1 0 1.651 0 2.289 2.289 0 0 1 1.939-2.517.826.826 0 1 0 0-1.651z"/><path class="a" d="M29.938.5a6.587 6.587 0 0 0-4.667 1.972A6.584 6.584 0 0 0 20.605.5c-3.8 0-6.893 3.351-6.893 7.471a8.214 8.214 0 0 0 1.963 5.222c2.139 2.612 8.7 9.847 8.983 10.156a.828.828 0 0 0 .611.271.841.841 0 0 0 .614-.271c.279-.307 6.845-7.542 8.983-10.156a8.214 8.214 0 0 0 1.963-5.222C36.831 3.851 33.738.5 29.938.5zm3.649 11.645c-1.736 2.12-6.6 7.517-8.318 9.418-1.719-1.9-6.582-7.3-8.318-9.418a6.644 6.644 0 0 1-1.59-4.176 5.558 5.558 0 0 1 5.241-5.818 5.038 5.038 0 0 1 4.008 2.074.856.856 0 0 0 1.316 0 5.043 5.043 0 0 1 4.009-2.074c2.89 0 5.241 2.611 5.241 5.819a6.645 6.645 0 0 1-1.588 4.175zm6.459 20.186a5.394 5.394 0 0 0-6.173-2.839l-5.35 1.338c-.238-2.063-1.458-3.28-3.9-3.891L10.3 23.758c.045-.314.079-.614.1-.9a.822.822 0 0 0-.254-.67c-1.415-1.341-7.074-1.775-8.775-1.876a.844.844 0 0 0-.616.223.833.833 0 0 0-.258.6v14.862a.826.826 0 0 0 .826.826H6.28a.825.825 0 0 0 .784-.57c.021-.066.134-.413.3-.95l11.83 3.943a9.5 9.5 0 0 0 3.423.827c1.674 0 3.636-.733 7.946-2.5l9.082-4.128a.828.828 0 0 0 .4-1.123zM5.677 35.183H2.15V22.027a25.1 25.1 0 0 1 6.559 1.171 86.7 86.7 0 0 1-3.032 11.985zm24.234.887c-6.942 2.844-7.182 2.754-10.159 1.631l-11.9-3.965c.679-2.247 1.625-5.582 2.167-8.343l14.223 3.161c1.83.457 2.565 1.177 2.665 2.685l-1.585.4a4.107 4.107 0 0 1-1.81.043l-7.164-1.433a.825.825 0 0 0-.324 1.618l7.165 1.433a5.793 5.793 0 0 0 1.133.111 5.694 5.694 0 0 0 1.4-.172l2.214-.553h.008l6.326-1.582a3.76 3.76 0 0 1 3.823 1.248z"/></svg>