<svg xmlns="http://www.w3.org/2000/svg" viewBox="0 0 34.667 26.51"><path d="M34.5 5.468a12.206 12.206 0 0 0-2.31-2.734A10.286 10.286 0 0 0 25.3 0a10.079 10.079 0 0 0-6.839 2.746 12.841 12.841 0 0 0-1.15 1.2 13.313 13.313 0 0 0-1.182-1.212A10.313 10.313 0 0 0 9.237 0 10.073 10.073 0 0 0 2.4 2.746 11.583 11.583 0 0 0 .157 5.49L0 6.096v19.786l2.371.605a9.264 9.264 0 0 1 1.841-2.191 7.5 7.5 0 0 1 5.025-1.982 7.755 7.755 0 0 1 5.207 2.1 10.388 10.388 0 0 1 1.365 1.476c.155.2.263.368.336.474.033.056.061.1.075.127a.231.231 0 0 1 .013.023h.006l2.2-.02a9.551 9.551 0 0 1 1.837-2.183 7.528 7.528 0 0 1 5.024-1.99 7.77 7.77 0 0 1 5.208 2.1 10.189 10.189 0 0 1 1.361 1.476c.156.2.266.368.34.474.037.056.059.1.075.127a.057.057 0 0 1 .013.023l2.364-.628V6.096zM9.237 19.783a10.02 10.02 0 0 0-6.7 2.629V6.453a9.933 9.933 0 0 1 1.679-1.939 7.484 7.484 0 0 1 5.021-1.985 7.775 7.775 0 0 1 5.207 2.1 10.327 10.327 0 0 1 1.365 1.482c.107.137.194.262.254.357v16.004a10.248 10.248 0 0 0-6.826-2.689zm22.9 2.689a10.271 10.271 0 0 0-6.837-2.689 10.028 10.028 0 0 0-6.7 2.631V6.453a10.153 10.153 0 0 1 1.679-1.939A7.514 7.514 0 0 1 25.3 2.529a7.789 7.789 0 0 1 5.208 2.1 10.13 10.13 0 0 1 1.361 1.482c.108.137.195.262.261.357v16.004z" fill="#64cbc7"/></svg>