<svg xmlns="http://www.w3.org/2000/svg" viewBox="0 0 31.189 31.19"><path d="M15.601 31.19a15.5 15.5 0 0 1-11.028-4.568A15.5 15.5 0 0 1 .001 15.593 15.49 15.49 0 0 1 4.569 4.567 15.5 15.5 0 0 1 15.601.001a15.492 15.492 0 0 1 11.026 4.567 15.5 15.5 0 0 1 4.566 11.026 15.5 15.5 0 0 1-4.566 11.029 15.491 15.491 0 0 1-11.026 4.567zm-.2-23.12a6.208 6.208 0 0 0-6.2 6.2c0 2.226 1.562 5.012 2.872 6.958a37.933 37.933 0 0 0 2.915 3.778.546.546 0 0 0 .414.185.556.556 0 0 0 .417-.185 37.814 37.814 0 0 0 2.979-3.876c1.86-2.785 2.8-5.093 2.8-6.86a6.207 6.207 0 0 0-6.204-6.2zm0 9.321a3.123 3.123 0 0 1-3.12-3.12 3.123 3.123 0 0 1 3.12-3.12 3.123 3.123 0 0 1 3.119 3.12 3.123 3.123 0 0 1-3.126 3.12z" fill="#2095b4"/></svg>