<svg xmlns="http://www.w3.org/2000/svg" viewBox="0 0 35.262 40.715"><defs><style>.a{fill:#64cbc7}</style></defs><path class="a" d="M33.256 1.9A9.455 9.455 0 0 0 25.814.1a13.132 13.132 0 0 0-6.935 3.564 1.2 1.2 0 0 0-1.008-.548h-5.764a1.2 1.2 0 0 0-1.2 1.2v4.375a1.2 1.2 0 0 0 1.2 1.2h1.682v1.46H12.33a1.2 1.2 0 0 0-1.2 1.2v1.4a14.99 14.99 0 0 0-5.072 26.525 1.2 1.2 0 0 0 .717.237h16.433a1.2 1.2 0 0 0 .717-.237 14.993 14.993 0 0 0-5.071-26.523v-1.4a1.2 1.2 0 0 0-1.2-1.2h-1.461v-1.46h1.682a1.2 1.2 0 0 0 1.008-.548 13.132 13.132 0 0 0 6.931 3.564 13.21 13.21 0 0 0 1.642.1 8.7 8.7 0 0 0 5.8-1.9 5.959 5.959 0 0 0 2.006-4.61A5.959 5.959 0 0 0 33.256 1.9zM16.449 13.757v1.152a1.2 1.2 0 0 0 .972 1.18A12.6 12.6 0 0 1 27.577 28.44a12.476 12.476 0 0 1-4.777 9.871H7.181a12.476 12.476 0 0 1-4.777-9.871 12.6 12.6 0 0 1 10.157-12.351 1.2 1.2 0 0 0 .972-1.18v-1.152h2.916zm.224-6.269h-3.359V5.525h3.364zm14.992 1.825a7.11 7.11 0 0 1-5.548 1.21c-3-.376-5.545-2.787-6.667-4.018 1.118-1.231 3.651-3.637 6.664-4.015a7.11 7.11 0 0 1 5.551 1.21 3.573 3.573 0 0 1 1.193 2.807 3.573 3.573 0 0 1-1.193 2.806z"/><path class="a" d="M18.058 20.746a4.862 4.862 0 0 0-3.067 1.108 4.861 4.861 0 0 0-3.067-1.108 5.183 5.183 0 0 0-5.022 5.32 5.589 5.589 0 0 0 .576 2.476 19.243 19.243 0 0 0 6.913 7.544 1.2 1.2 0 0 0 1.2 0 19.238 19.238 0 0 0 6.912-7.542 5.591 5.591 0 0 0 .577-2.478 5.183 5.183 0 0 0-5.022-5.32zm2.291 6.73a17.1 17.1 0 0 1-5.36 6.133 17.005 17.005 0 0 1-5.357-6.135 3.175 3.175 0 0 1-.325-1.407 2.782 2.782 0 0 1 2.618-2.915 2.52 2.52 0 0 1 2.077 1.143 1.2 1.2 0 0 0 1.979 0 2.52 2.52 0 0 1 2.077-1.143 2.782 2.782 0 0 1 2.618 2.915 3.177 3.177 0 0 1-.327 1.409z"/></svg>