<svg xmlns="http://www.w3.org/2000/svg" viewBox="0 0 31.188 31.188"><path d="M15.599 0a15.594 15.594 0 1 0 15.589 15.594A15.595 15.595 0 0 0 15.599 0zm8.23 22.753L22.58 24a2.3 2.3 0 0 1-.9.361A14.727 14.727 0 0 1 6.822 9.468a2.324 2.324 0 0 1 .366-.856l1.249-1.249a2.086 2.086 0 0 1 1.949-.463l.263.088A2.467 2.467 0 0 1 12.075 8.5l.624 2.3a2.261 2.261 0 0 1-.516 1.974l-.834.834a8.856 8.856 0 0 0 6.227 6.229l.833-.834a2.26 2.26 0 0 1 1.975-.518l2.3.63a2.47 2.47 0 0 1 1.515 1.427l.088.266a2.088 2.088 0 0 1-.458 1.945z" fill="#2095b4"/></svg>