<svg xmlns="http://www.w3.org/2000/svg" viewBox="0 0 133.5 35.6"><defs><style>.b,.e{fill:none}.b{stroke:#fff}.d{stroke:none}</style></defs><g opacity=".388"><g class="b"><rect class="d" width="35.6" height="35.6" rx="5"/><rect class="e" x=".5" y=".5" width="34.6" height="34.6" rx="4.5"/></g><g class="b" transform="translate(48.95)"><rect class="d" width="35.6" height="35.6" rx="5"/><rect class="e" x=".5" y=".5" width="34.6" height="34.6" rx="4.5"/></g><g class="b" transform="translate(97.9)"><rect class="d" width="35.6" height="35.6" rx="5"/><rect class="e" x=".5" y=".5" width="34.6" height="34.6" rx="4.5"/></g><path d="M124.16 12.833c-.517-.92-1.078-1.089-2.221-1.153s-4.01-.11-6.496-.11-5.362.032-6.5.108-1.7.233-2.224 1.154-.809 2.501-.809 5.286v.01c0 2.773.274 4.367.806 5.276s1.083 1.087 2.223 1.166 4.012.106 6.5.106 5.356-.039 6.5-.1 1.7-.244 2.221-1.164c.537-.909.809-2.5.809-5.276v-.01c.001-2.793-.27-4.375-.809-5.293zm-11.1 8.863v-7.148l5.95 3.574zM76.575 12.71a7.307 7.307 0 0 1-2.1.576 3.674 3.674 0 0 0 1.608-2.023 7.376 7.376 0 0 1-2.325.888 3.662 3.662 0 0 0-6.235 3.336 10.387 10.387 0 0 1-7.54-3.822 3.663 3.663 0 0 0 1.132 4.884 3.659 3.659 0 0 1-1.657-.459v.046a3.662 3.662 0 0 0 2.934 3.588 3.706 3.706 0 0 1-.964.128 3.513 3.513 0 0 1-.689-.069 3.661 3.661 0 0 0 3.417 2.541 7.341 7.341 0 0 1-4.543 1.563 7.778 7.778 0 0 1-.874-.05 10.342 10.342 0 0 0 5.608 1.646 10.338 10.338 0 0 0 10.411-10.409l-.012-.474a7.306 7.306 0 0 0 1.829-1.89zM22.302 8.9h-2.229a3.918 3.918 0 0 0-4.127 4.234v1.953h-2.245a.351.351 0 0 0-.351.351v2.828a.351.351 0 0 0 .351.351h2.243v7.138a.351.351 0 0 0 .351.351h2.927a.351.351 0 0 0 .351-.351v-7.138h2.623a.351.351 0 0 0 .351-.351v-2.828a.351.351 0 0 0-.351-.351h-2.623v-1.655c0-.8.19-1.2 1.226-1.2h1.5a.351.351 0 0 0 .351-.351V9.254a.351.351 0 0 0-.348-.354z" fill="#fff"/></g></svg>