<svg xmlns="http://www.w3.org/2000/svg" viewBox="0 0 19.331 19.331"><path d="M19.282 16.564a.755.755 0 0 0-1.478.308.789.789 0 0 1-.16.661.767.767 0 0 1-.6.287H2.292a.767.767 0 0 1-.6-.287.789.789 0 0 1-.16-.661 8.343 8.343 0 0 1 7.938-6.606h.4a8.307 8.307 0 0 1 6.709 3.687.755.755 0 1 0 1.254-.841 9.822 9.822 0 0 0-5.09-3.867 5.135 5.135 0 1 0-6.146 0 9.821 9.821 0 0 0-6.548 7.319 2.294 2.294 0 0 0 2.242 2.767H17.04a2.294 2.294 0 0 0 2.243-2.767zM6.041 5.135a3.625 3.625 0 1 1 3.808 3.62h-.366a3.629 3.629 0 0 1-3.442-3.62z" fill="#fff"/></svg>